<ttFont>
    <TTGlyph name="A" xMin="-16" yMin="-76" xMax="1100" yMax="1495">
      <contour>
        <pt x="1096" y="381" on="1"/>
        <pt x="1098" y="372" on="0"/>
        <pt x="1100" y="351" on="0"/>
        <pt x="1100" y="340" on="1"/>
        <pt x="1100" y="314" on="0"/>
        <pt x="1090" y="259" on="0"/>
        <pt x="1075" y="205" on="0"/>
        <pt x="1058" y="156" on="0"/>
        <pt x="1051" y="135" on="1"/>
        <pt x="1037" y="94" on="0"/>
        <pt x="1023" y="52" on="0"/>
        <pt x="1009" y="33" on="0"/>
        <pt x="988" y="31" on="0"/>
        <pt x="967" y="31" on="1"/>
        <pt x="952" y="31" on="0"/>
        <pt x="904" y="46" on="0"/>
        <pt x="854" y="77" on="0"/>
        <pt x="811" y="123" on="0"/>
        <pt x="803" y="154" on="1"/>
        <pt x="803" y="160" on="0"/>
        <pt x="811" y="188" on="0"/>
        <pt x="811" y="205" on="1"/>
        <pt x="810" y="216" on="0"/>
        <pt x="805" y="258" on="0"/>
        <pt x="797" y="309" on="0"/>
        <pt x="788" y="362" on="0"/>
        <pt x="776" y="406" on="0"/>
        <pt x="763" y="434" on="0"/>
        <pt x="756" y="434" on="1"/>
        <pt x="730" y="434" on="0"/>
        <pt x="707" y="419" on="0"/>
        <pt x="691" y="402" on="0"/>
        <pt x="672" y="387" on="0"/>
        <pt x="651" y="387" on="1"/>
        <pt x="631" y="387" on="0"/>
        <pt x="583" y="396" on="0"/>
        <pt x="524" y="407" on="0"/>
        <pt x="454" y="416" on="0"/>
        <pt x="412" y="416" on="1"/>
        <pt x="390" y="416" on="0"/>
        <pt x="354" y="413" on="0"/>
        <pt x="348" y="408" on="1"/>
        <pt x="337" y="399" on="0"/>
        <pt x="327" y="347" on="0"/>
        <pt x="321" y="284" on="0"/>
        <pt x="317" y="223" on="0"/>
        <pt x="311" y="205" on="1"/>
        <pt x="309" y="202" on="0"/>
        <pt x="297" y="185" on="0"/>
        <pt x="281" y="162" on="0"/>
        <pt x="265" y="135" on="0"/>
        <pt x="260" y="123" on="1"/>
        <pt x="248" y="96" on="0"/>
        <pt x="231" y="27" on="0"/>
        <pt x="208" y="-34" on="0"/>
        <pt x="174" y="-76" on="0"/>
        <pt x="145" y="-76" on="1"/>
        <pt x="126" y="-76" on="0"/>
        <pt x="93" y="-58" on="0"/>
        <pt x="68" y="-35" on="0"/>
        <pt x="52" y="-14" on="0"/>
        <pt x="51" y="-10" on="1"/>
        <pt x="39" y="11" on="0"/>
        <pt x="16" y="38" on="0"/>
        <pt x="-4" y="60" on="0"/>
        <pt x="-16" y="85" on="0"/>
        <pt x="-16" y="104" on="1"/>
        <pt x="-16" y="111" on="0"/>
        <pt x="-15" y="135" on="0"/>
        <pt x="-12" y="161" on="0"/>
        <pt x="-8" y="185" on="0"/>
        <pt x="-6" y="193" on="1"/>
        <pt x="-4" y="198" on="0"/>
        <pt x="7" y="209" on="0"/>
        <pt x="18" y="221" on="0"/>
        <pt x="27" y="232" on="0"/>
        <pt x="27" y="238" on="1"/>
        <pt x="27" y="246" on="0"/>
        <pt x="18" y="260" on="0"/>
        <pt x="18" y="268" on="1"/>
        <pt x="18" y="270" on="0"/>
        <pt x="20" y="272" on="0"/>
        <pt x="20" y="274" on="1"/>
        <pt x="30" y="304" on="0"/>
        <pt x="59" y="360" on="0"/>
        <pt x="86" y="419" on="0"/>
        <pt x="107" y="482" on="0"/>
        <pt x="109" y="520" on="1"/>
        <pt x="109" y="538" on="0"/>
        <pt x="110" y="580" on="0"/>
        <pt x="113" y="623" on="0"/>
        <pt x="120" y="664" on="0"/>
        <pt x="127" y="680" on="1"/>
        <pt x="128" y="683" on="0"/>
        <pt x="145" y="697" on="0"/>
        <pt x="165" y="720" on="0"/>
        <pt x="180" y="753" on="0"/>
        <pt x="180" y="774" on="1"/>
        <pt x="180" y="785" on="0"/>
        <pt x="176" y="809" on="0"/>
        <pt x="176" y="821" on="1"/>
        <pt x="176" y="835" on="0"/>
        <pt x="185" y="854" on="0"/>
        <pt x="198" y="871" on="0"/>
        <pt x="211" y="889" on="0"/>
        <pt x="215" y="901" on="1"/>
        <pt x="223" y="922" on="0"/>
        <pt x="225" y="969" on="0"/>
        <pt x="225" y="1016" on="0"/>
        <pt x="228" y="1062" on="0"/>
        <pt x="236" y="1083" on="1"/>
        <pt x="238" y="1092" on="0"/>
        <pt x="252" y="1105" on="0"/>
        <pt x="267" y="1118" on="0"/>
        <pt x="279" y="1134" on="0"/>
        <pt x="279" y="1145" on="1"/>
        <pt x="279" y="1153" on="0"/>
        <pt x="276" y="1170" on="0"/>
        <pt x="276" y="1180" on="1"/>
        <pt x="276" y="1203" on="0"/>
        <pt x="297" y="1251" on="0"/>
        <pt x="323" y="1298" on="0"/>
        <pt x="344" y="1343" on="0"/>
        <pt x="344" y="1362" on="1"/>
        <pt x="344" y="1382" on="1"/>
        <pt x="344" y="1401" on="0"/>
        <pt x="375" y="1441" on="0"/>
        <pt x="429" y="1474" on="0"/>
        <pt x="500" y="1495" on="0"/>
        <pt x="539" y="1495" on="1"/>
        <pt x="561" y="1495" on="0"/>
        <pt x="596" y="1484" on="0"/>
        <pt x="632" y="1470" on="0"/>
        <pt x="674" y="1457" on="0"/>
        <pt x="702" y="1456" on="1"/>
        <pt x="718" y="1456" on="0"/>
        <pt x="753" y="1463" on="0"/>
        <pt x="789" y="1472" on="0"/>
        <pt x="825" y="1479" on="0"/>
        <pt x="842" y="1479" on="1"/>
        <pt x="851" y="1479" on="0"/>
        <pt x="880" y="1468" on="0"/>
        <pt x="911" y="1450" on="0"/>
        <pt x="940" y="1426" on="0"/>
        <pt x="950" y="1413" on="1"/>
        <pt x="968" y="1390" on="0"/>
        <pt x="981" y="1320" on="0"/>
        <pt x="988" y="1240" on="0"/>
        <pt x="998" y="1160" on="0"/>
        <pt x="1012" y="1128" on="1"/>
        <pt x="1017" y="1115" on="0"/>
        <pt x="1031" y="1094" on="0"/>
        <pt x="1044" y="1070" on="0"/>
        <pt x="1053" y="1039" on="0"/>
        <pt x="1053" y="1016" on="1"/>
        <pt x="1053" y="988" on="0"/>
        <pt x="1047" y="931" on="0"/>
        <pt x="1047" y="905" on="1"/>
        <pt x="1047" y="884" on="0"/>
        <pt x="1058" y="856" on="0"/>
        <pt x="1070" y="835" on="0"/>
        <pt x="1081" y="815" on="0"/>
        <pt x="1081" y="801" on="1"/>
        <pt x="1081" y="782" on="0"/>
        <pt x="1069" y="734" on="0"/>
        <pt x="1069" y="711" on="1"/>
        <pt x="1069" y="689" on="0"/>
        <pt x="1083" y="653" on="0"/>
        <pt x="1081" y="635" on="1"/>
        <pt x="1080" y="616" on="0"/>
        <pt x="1068" y="578" on="0"/>
        <pt x="1054" y="542" on="0"/>
        <pt x="1042" y="506" on="0"/>
        <pt x="1042" y="489" on="1"/>
        <pt x="1042" y="475" on="0"/>
        <pt x="1056" y="449" on="0"/>
        <pt x="1074" y="423" on="0"/>
        <pt x="1092" y="396" on="0"/>
      </contour>
      <contour>
        <pt x="709" y="641" on="1"/>
        <pt x="715" y="650" on="0"/>
        <pt x="715" y="664" on="1"/>
        <pt x="715" y="678" on="0"/>
        <pt x="705" y="714" on="0"/>
        <pt x="694" y="747" on="0"/>
        <pt x="684" y="773" on="0"/>
        <pt x="684" y="778" on="1"/>
        <pt x="684" y="788" on="0"/>
        <pt x="690" y="808" on="0"/>
        <pt x="690" y="819" on="1"/>
        <pt x="690" y="845" on="0"/>
        <pt x="668" y="899" on="0"/>
        <pt x="641" y="944" on="0"/>
        <pt x="617" y="977" on="0"/>
        <pt x="614" y="983" on="1"/>
        <pt x="607" y="999" on="0"/>
        <pt x="602" y="1032" on="0"/>
        <pt x="595" y="1062" on="0"/>
        <pt x="583" y="1084" on="0"/>
        <pt x="569" y="1090" on="1"/>
        <pt x="549" y="1030" on="0"/>
        <pt x="504" y="914" on="0"/>
        <pt x="461" y="795" on="0"/>
        <pt x="424" y="670" on="0"/>
        <pt x="412" y="602" on="1"/>
        <pt x="447" y="607" on="0"/>
        <pt x="521" y="610" on="0"/>
        <pt x="563" y="616" on="1"/>
        <pt x="569" y="617" on="0"/>
        <pt x="615" y="623" on="0"/>
        <pt x="666" y="631" on="0"/>
        <pt x="707" y="639" on="0"/>
      </contour>
    </TTGlyph>
    <TTGlyph name="AE" xMin="-20" yMin="-76" xMax="1829" yMax="1495">
      <contour>
        <pt x="1817" y="309" on="1"/>
        <pt x="1813" y="300" on="0"/>
        <pt x="1800" y="286" on="0"/>
        <pt x="1798" y="276" on="1"/>
        <pt x="1794" y="263" on="0"/>
        <pt x="1792" y="236" on="0"/>
        <pt x="1787" y="210" on="0"/>
        <pt x="1777" y="186" on="0"/>
        <pt x="1765" y="176" on="1"/>
        <pt x="1754" y="165" on="0"/>
        <pt x="1710" y="151" on="0"/>
        <pt x="1659" y="139" on="0"/>
        <pt x="1607" y="127" on="0"/>
        <pt x="1589" y="119" on="1"/>
        <pt x="1574" y="112" on="0"/>
        <pt x="1546" y="87" on="0"/>
        <pt x="1516" y="60" on="0"/>
        <pt x="1483" y="36" on="0"/>
        <pt x="1462" y="31" on="1"/>
        <pt x="1447" y="26" on="0"/>
        <pt x="1400" y="22" on="0"/>
        <pt x="1380" y="18" on="1"/>
        <pt x="1360" y="14" on="0"/>
        <pt x="1305" y="5" on="0"/>
        <pt x="1243" y="-4" on="0"/>
        <pt x="1176" y="-10" on="0"/>
        <pt x="1145" y="-10" on="1"/>
        <pt x="1113" y="-10" on="0"/>
        <pt x="1076" y="-1" on="0"/>
        <pt x="1050" y="13" on="0"/>
        <pt x="1026" y="30" on="0"/>
        <pt x="1008" y="37" on="1"/>
        <pt x="1006" y="37" on="1"/>
        <pt x="999" y="31" on="0"/>
        <pt x="980" y="31" on="0"/>
        <pt x="963" y="31" on="1"/>
        <pt x="948" y="31" on="0"/>
        <pt x="900" y="46" on="0"/>
        <pt x="850" y="77" on="0"/>
        <pt x="807" y="123" on="0"/>
        <pt x="799" y="154" on="1"/>
        <pt x="799" y="160" on="0"/>
        <pt x="807" y="188" on="0"/>
        <pt x="807" y="205" on="1"/>
        <pt x="806" y="216" on="0"/>
        <pt x="801" y="258" on="0"/>
        <pt x="793" y="309" on="0"/>
        <pt x="784" y="362" on="0"/>
        <pt x="772" y="406" on="0"/>
        <pt x="759" y="434" on="0"/>
        <pt x="752" y="434" on="1"/>
        <pt x="726" y="434" on="0"/>
        <pt x="703" y="419" on="0"/>
        <pt x="686" y="402" on="0"/>
        <pt x="668" y="387" on="0"/>
        <pt x="647" y="387" on="1"/>
        <pt x="627" y="387" on="0"/>
        <pt x="579" y="396" on="0"/>
        <pt x="520" y="407" on="0"/>
        <pt x="450" y="416" on="0"/>
        <pt x="408" y="416" on="1"/>
        <pt x="386" y="416" on="0"/>
        <pt x="350" y="413" on="0"/>
        <pt x="344" y="408" on="1"/>
        <pt x="333" y="399" on="0"/>
        <pt x="323" y="347" on="0"/>
        <pt x="317" y="284" on="0"/>
        <pt x="313" y="223" on="0"/>
        <pt x="307" y="205" on="1"/>
        <pt x="305" y="202" on="0"/>
        <pt x="293" y="185" on="0"/>
        <pt x="277" y="162" on="0"/>
        <pt x="261" y="135" on="0"/>
        <pt x="256" y="123" on="1"/>
        <pt x="244" y="96" on="0"/>
        <pt x="227" y="27" on="0"/>
        <pt x="204" y="-34" on="0"/>
        <pt x="170" y="-76" on="0"/>
        <pt x="141" y="-76" on="1"/>
        <pt x="122" y="-76" on="0"/>
        <pt x="89" y="-58" on="0"/>
        <pt x="64" y="-35" on="0"/>
        <pt x="48" y="-14" on="0"/>
        <pt x="47" y="-10" on="1"/>
        <pt x="35" y="11" on="0"/>
        <pt x="12" y="38" on="0"/>
        <pt x="-8" y="60" on="0"/>
        <pt x="-20" y="85" on="0"/>
        <pt x="-20" y="104" on="1"/>
        <pt x="-20" y="111" on="0"/>
        <pt x="-19" y="135" on="0"/>
        <pt x="-16" y="161" on="0"/>
        <pt x="-12" y="185" on="0"/>
        <pt x="-10" y="193" on="1"/>
        <pt x="-8" y="198" on="0"/>
        <pt x="3" y="209" on="0"/>
        <pt x="14" y="221" on="0"/>
        <pt x="23" y="232" on="0"/>
        <pt x="23" y="238" on="1"/>
        <pt x="23" y="246" on="0"/>
        <pt x="14" y="260" on="0"/>
        <pt x="14" y="268" on="1"/>
        <pt x="14" y="270" on="0"/>
        <pt x="16" y="272" on="0"/>
        <pt x="16" y="274" on="1"/>
        <pt x="26" y="304" on="0"/>
        <pt x="55" y="360" on="0"/>
        <pt x="82" y="419" on="0"/>
        <pt x="102" y="482" on="0"/>
        <pt x="104" y="520" on="1"/>
        <pt x="104" y="538" on="0"/>
        <pt x="105" y="580" on="0"/>
        <pt x="108" y="623" on="0"/>
        <pt x="116" y="664" on="0"/>
        <pt x="123" y="680" on="1"/>
        <pt x="124" y="683" on="0"/>
        <pt x="141" y="697" on="0"/>
        <pt x="161" y="720" on="0"/>
        <pt x="176" y="753" on="0"/>
        <pt x="176" y="774" on="1"/>
        <pt x="176" y="785" on="0"/>
        <pt x="172" y="809" on="0"/>
        <pt x="172" y="821" on="1"/>
        <pt x="172" y="835" on="0"/>
        <pt x="181" y="854" on="0"/>
        <pt x="194" y="871" on="0"/>
        <pt x="207" y="889" on="0"/>
        <pt x="211" y="901" on="1"/>
        <pt x="218" y="922" on="0"/>
        <pt x="221" y="969" on="0"/>
        <pt x="221" y="1016" on="0"/>
        <pt x="223" y="1062" on="0"/>
        <pt x="231" y="1083" on="1"/>
        <pt x="234" y="1092" on="0"/>
        <pt x="248" y="1105" on="0"/>
        <pt x="263" y="1118" on="0"/>
        <pt x="274" y="1134" on="0"/>
        <pt x="274" y="1145" on="1"/>
        <pt x="274" y="1153" on="0"/>
        <pt x="272" y="1170" on="0"/>
        <pt x="272" y="1180" on="1"/>
        <pt x="272" y="1203" on="0"/>
        <pt x="293" y="1251" on="0"/>
        <pt x="319" y="1298" on="0"/>
        <pt x="340" y="1343" on="0"/>
        <pt x="340" y="1362" on="1"/>
        <pt x="340" y="1382" on="1"/>
        <pt x="340" y="1401" on="0"/>
        <pt x="371" y="1441" on="0"/>
        <pt x="425" y="1474" on="0"/>
        <pt x="496" y="1495" on="0"/>
        <pt x="535" y="1495" on="1"/>
        <pt x="557" y="1495" on="0"/>
        <pt x="592" y="1484" on="0"/>
        <pt x="628" y="1470" on="0"/>
        <pt x="670" y="1457" on="0"/>
        <pt x="698" y="1456" on="1"/>
        <pt x="714" y="1456" on="0"/>
        <pt x="749" y="1463" on="0"/>
        <pt x="785" y="1472" on="0"/>
        <pt x="821" y="1479" on="0"/>
        <pt x="838" y="1479" on="1"/>
        <pt x="847" y="1479" on="0"/>
        <pt x="876" y="1468" on="0"/>
        <pt x="907" y="1450" on="0"/>
        <pt x="936" y="1426" on="0"/>
        <pt x="946" y="1413" on="1"/>
        <pt x="946" y="1411" on="1"/>
        <pt x="955" y="1413" on="0"/>
        <pt x="973" y="1415" on="0"/>
        <pt x="981" y="1415" on="1"/>
        <pt x="1041" y="1415" on="0"/>
        <pt x="1171" y="1395" on="0"/>
        <pt x="1237" y="1395" on="1"/>
        <pt x="1250" y="1395" on="0"/>
        <pt x="1284" y="1402" on="0"/>
        <pt x="1327" y="1410" on="0"/>
        <pt x="1379" y="1417" on="0"/>
        <pt x="1411" y="1417" on="1"/>
        <pt x="1431" y="1417" on="0"/>
        <pt x="1455" y="1407" on="0"/>
        <pt x="1475" y="1392" on="0"/>
        <pt x="1496" y="1373" on="0"/>
        <pt x="1513" y="1364" on="1"/>
        <pt x="1524" y="1358" on="0"/>
        <pt x="1556" y="1352" on="0"/>
        <pt x="1569" y="1346" on="1"/>
        <pt x="1583" y="1339" on="0"/>
        <pt x="1605" y="1324" on="0"/>
        <pt x="1614" y="1321" on="1"/>
        <pt x="1648" y="1309" on="0"/>
        <pt x="1703" y="1301" on="0"/>
        <pt x="1741" y="1284" on="0"/>
        <pt x="1761" y="1247" on="0"/>
        <pt x="1761" y="1208" on="1"/>
        <pt x="1761" y="1153" on="0"/>
        <pt x="1736" y="1095" on="0"/>
        <pt x="1686" y="1068" on="0"/>
        <pt x="1612" y="1060" on="0"/>
        <pt x="1563" y="1055" on="1"/>
        <pt x="1519" y="1050" on="0"/>
        <pt x="1434" y="1044" on="0"/>
        <pt x="1384" y="1044" on="1"/>
        <pt x="1326" y="1044" on="0"/>
        <pt x="1182" y="1059" on="0"/>
        <pt x="1110" y="1059" on="1"/>
        <pt x="1092" y="1059" on="0"/>
        <pt x="1069" y="1058" on="0"/>
        <pt x="1056" y="1049" on="0"/>
        <pt x="1050" y="1030" on="0"/>
        <pt x="1049" y="1012" on="1"/>
        <pt x="1049" y="995" on="1"/>
        <pt x="1049" y="978" on="0"/>
        <pt x="1052" y="942" on="0"/>
        <pt x="1056" y="910" on="0"/>
        <pt x="1061" y="888" on="0"/>
        <pt x="1063" y="885" on="1"/>
        <pt x="1072" y="875" on="0"/>
        <pt x="1123" y="864" on="0"/>
        <pt x="1185" y="859" on="0"/>
        <pt x="1246" y="858" on="0"/>
        <pt x="1266" y="858" on="1"/>
        <pt x="1289" y="858" on="0"/>
        <pt x="1326" y="868" on="0"/>
        <pt x="1359" y="881" on="0"/>
        <pt x="1388" y="891" on="0"/>
        <pt x="1403" y="891" on="1"/>
        <pt x="1419" y="891" on="0"/>
        <pt x="1436" y="885" on="0"/>
        <pt x="1446" y="876" on="0"/>
        <pt x="1451" y="867" on="0"/>
        <pt x="1456" y="864" on="1"/>
        <pt x="1468" y="856" on="0"/>
        <pt x="1482" y="844" on="0"/>
        <pt x="1490" y="830" on="0"/>
        <pt x="1493" y="810" on="0"/>
        <pt x="1493" y="793" on="1"/>
        <pt x="1493" y="736" on="0"/>
        <pt x="1477" y="673" on="0"/>
        <pt x="1428" y="642" on="0"/>
        <pt x="1339" y="633" on="0"/>
        <pt x="1266" y="631" on="1"/>
        <pt x="1239" y="630" on="0"/>
        <pt x="1205" y="627" on="0"/>
        <pt x="1187" y="618" on="0"/>
        <pt x="1180" y="602" on="0"/>
        <pt x="1180" y="588" on="1"/>
        <pt x="1180" y="541" on="0"/>
        <pt x="1179" y="478" on="0"/>
        <pt x="1195" y="439" on="0"/>
        <pt x="1237" y="422" on="0"/>
        <pt x="1280" y="422" on="1"/>
        <pt x="1346" y="422" on="0"/>
        <pt x="1490" y="442" on="0"/>
        <pt x="1550" y="455" on="1"/>
        <pt x="1575" y="460" on="0"/>
        <pt x="1617" y="476" on="0"/>
        <pt x="1656" y="491" on="0"/>
        <pt x="1696" y="502" on="0"/>
        <pt x="1718" y="502" on="1"/>
        <pt x="1772" y="502" on="0"/>
        <pt x="1829" y="440" on="0"/>
        <pt x="1829" y="381" on="1"/>
        <pt x="1829" y="364" on="0"/>
        <pt x="1823" y="326" on="0"/>
      </contour>
      <contour>
        <pt x="705" y="641" on="1"/>
        <pt x="711" y="650" on="0"/>
        <pt x="711" y="664" on="1"/>
        <pt x="711" y="678" on="0"/>
        <pt x="701" y="714" on="0"/>
        <pt x="690" y="747" on="0"/>
        <pt x="680" y="773" on="0"/>
        <pt x="680" y="778" on="1"/>
        <pt x="680" y="788" on="0"/>
        <pt x="686" y="808" on="0"/>
        <pt x="686" y="819" on="1"/>
        <pt x="686" y="845" on="0"/>
        <pt x="664" y="899" on="0"/>
        <pt x="637" y="944" on="0"/>
        <pt x="612" y="977" on="0"/>
        <pt x="610" y="983" on="1"/>
        <pt x="603" y="999" on="0"/>
        <pt x="598" y="1032" on="0"/>
        <pt x="591" y="1062" on="0"/>
        <pt x="579" y="1084" on="0"/>
        <pt x="565" y="1090" on="1"/>
        <pt x="545" y="1030" on="0"/>
        <pt x="500" y="914" on="0"/>
        <pt x="457" y="795" on="0"/>
        <pt x="420" y="670" on="0"/>
        <pt x="408" y="602" on="1"/>
        <pt x="443" y="607" on="0"/>
        <pt x="517" y="610" on="0"/>
        <pt x="559" y="616" on="1"/>
        <pt x="564" y="617" on="0"/>
        <pt x="610" y="623" on="0"/>
        <pt x="661" y="631" on="0"/>
        <pt x="703" y="639" on="0"/>
      </contour>
    </TTGlyph>
    <TTGlyph name="AEacute" xMin="-20" yMin="-76" xMax="1829" yMax="1915">
      <component glyphName="AE" x="0" y="0" flags="0x204"/>
      <component glyphName="acute" x="766" y="301" flags="0x4"/>
    </TTGlyph>
    <TTGlyph name="Aacute" xMin="-16" yMin="-76" xMax="1100" yMax="1915">
      <component glyphName="A" x="0" y="0" flags="0x4"/>
      <component glyphName="acute" x="594" y="301" flags="0x4"/>
    </TTGlyph>
    <TTGlyph name="Abreve" xMin="-16" yMin="-76" xMax="1100" yMax="1909">
      <component glyphName="A" x="0" y="0" flags="0x204"/>
      <component glyphName="breve" x="389" y="301" flags="0x4"/>
    </TTGlyph>
    <TTGlyph name="Acircumflex" xMin="-16" yMin="-76" xMax="1100" yMax="1940">
      <component glyphName="A" x="0" y="0" flags="0x4"/>
      <component glyphName="circumflex" x="440" y="324" flags="0x4"/>
    </TTGlyph>
    <TTGlyph name="Adieresis" xMin="-16" yMin="-76" xMax="1100" yMax="1806">
      <component glyphName="A" x="0" y="0" flags="0x4"/>
      <component glyphName="dieresis" x="356" y="301" flags="0x4"/>
    </TTGlyph>
    <TTGlyph name="Agrave" xMin="-16" yMin="-76" xMax="1100" yMax="1923">
      <component glyphName="A" x="0" y="0" flags="0x4"/>
      <component glyphName="grave" x="326" y="309" flags="0x4"/>
    </TTGlyph>
    <TTGlyph name="Amacron" xMin="-16" yMin="-76" xMax="1100" yMax="1798">
      <component glyphName="A" x="0" y="0" flags="0x204"/>
      <component glyphName="macron" x="455" y="319" flags="0x4"/>
    </TTGlyph>
    <TTGlyph name="Aogonek" xMin="-16" yMin="-319" xMax="1196" yMax="1495">
      <contour>
        <pt x="1194" y="-193" on="1"/>
        <pt x="1190" y="-210" on="0"/>
        <pt x="1158" y="-244" on="0"/>
        <pt x="1118" y="-274" on="0"/>
        <pt x="1080" y="-295" on="0"/>
        <pt x="1071" y="-299" on="1"/>
        <pt x="1063" y="-301" on="0"/>
        <pt x="1037" y="-300" on="0"/>
        <pt x="1026" y="-303" on="1"/>
        <pt x="1012" y="-311" on="0"/>
        <pt x="1000" y="-319" on="0"/>
        <pt x="987" y="-319" on="1"/>
        <pt x="975" y="-319" on="0"/>
        <pt x="950" y="-313" on="0"/>
        <pt x="938" y="-313" on="1"/>
        <pt x="916" y="-313" on="0"/>
        <pt x="898" y="-317" on="0"/>
        <pt x="889" y="-317" on="1"/>
        <pt x="878" y="-317" on="0"/>
        <pt x="832" y="-306" on="0"/>
        <pt x="781" y="-285" on="0"/>
        <pt x="735" y="-256" on="0"/>
        <pt x="723" y="-238" on="1"/>
        <pt x="717" y="-227" on="0"/>
        <pt x="713" y="-192" on="0"/>
        <pt x="713" y="-172" on="1"/>
        <pt x="713" y="-128" on="0"/>
        <pt x="724" y="-77" on="0"/>
        <pt x="744" y="-43" on="0"/>
        <pt x="772" y="-18" on="0"/>
        <pt x="788" y="0" on="1"/>
        <pt x="804" y="17" on="0"/>
        <pt x="830" y="64" on="0"/>
        <pt x="846" y="86" on="1"/>
        <pt x="830" y="100" on="0"/>
        <pt x="808" y="132" on="0"/>
        <pt x="803" y="154" on="1"/>
        <pt x="803" y="160" on="0"/>
        <pt x="811" y="188" on="0"/>
        <pt x="811" y="205" on="1"/>
        <pt x="810" y="216" on="0"/>
        <pt x="805" y="258" on="0"/>
        <pt x="797" y="309" on="0"/>
        <pt x="788" y="362" on="0"/>
        <pt x="776" y="406" on="0"/>
        <pt x="763" y="434" on="0"/>
        <pt x="756" y="434" on="1"/>
        <pt x="730" y="434" on="0"/>
        <pt x="707" y="419" on="0"/>
        <pt x="691" y="402" on="0"/>
        <pt x="672" y="387" on="0"/>
        <pt x="651" y="387" on="1"/>
        <pt x="631" y="387" on="0"/>
        <pt x="583" y="396" on="0"/>
        <pt x="524" y="407" on="0"/>
        <pt x="454" y="416" on="0"/>
        <pt x="412" y="416" on="1"/>
        <pt x="390" y="416" on="0"/>
        <pt x="354" y="413" on="0"/>
        <pt x="348" y="408" on="1"/>
        <pt x="337" y="399" on="0"/>
        <pt x="327" y="347" on="0"/>
        <pt x="321" y="284" on="0"/>
        <pt x="317" y="223" on="0"/>
        <pt x="311" y="205" on="1"/>
        <pt x="309" y="202" on="0"/>
        <pt x="297" y="185" on="0"/>
        <pt x="281" y="162" on="0"/>
        <pt x="265" y="135" on="0"/>
        <pt x="260" y="123" on="1"/>
        <pt x="248" y="96" on="0"/>
        <pt x="231" y="27" on="0"/>
        <pt x="208" y="-34" on="0"/>
        <pt x="174" y="-76" on="0"/>
        <pt x="145" y="-76" on="1"/>
        <pt x="126" y="-76" on="0"/>
        <pt x="93" y="-58" on="0"/>
        <pt x="68" y="-35" on="0"/>
        <pt x="52" y="-14" on="0"/>
        <pt x="51" y="-10" on="1"/>
        <pt x="39" y="11" on="0"/>
        <pt x="16" y="38" on="0"/>
        <pt x="-4" y="60" on="0"/>
        <pt x="-16" y="85" on="0"/>
        <pt x="-16" y="104" on="1"/>
        <pt x="-16" y="111" on="0"/>
        <pt x="-15" y="135" on="0"/>
        <pt x="-12" y="161" on="0"/>
        <pt x="-8" y="185" on="0"/>
        <pt x="-6" y="193" on="1"/>
        <pt x="-4" y="198" on="0"/>
        <pt x="7" y="209" on="0"/>
        <pt x="18" y="221" on="0"/>
        <pt x="27" y="232" on="0"/>
        <pt x="27" y="238" on="1"/>
        <pt x="27" y="246" on="0"/>
        <pt x="18" y="260" on="0"/>
        <pt x="18" y="268" on="1"/>
        <pt x="18" y="270" on="0"/>
        <pt x="20" y="272" on="0"/>
        <pt x="20" y="274" on="1"/>
        <pt x="30" y="304" on="0"/>
        <pt x="59" y="360" on="0"/>
        <pt x="86" y="419" on="0"/>
        <pt x="107" y="482" on="0"/>
        <pt x="109" y="520" on="1"/>
        <pt x="109" y="538" on="0"/>
        <pt x="110" y="580" on="0"/>
        <pt x="113" y="623" on="0"/>
        <pt x="120" y="664" on="0"/>
        <pt x="127" y="680" on="1"/>
        <pt x="128" y="683" on="0"/>
        <pt x="145" y="697" on="0"/>
        <pt x="165" y="720" on="0"/>
        <pt x="180" y="753" on="0"/>
        <pt x="180" y="774" on="1"/>
        <pt x="180" y="785" on="0"/>
        <pt x="176" y="809" on="0"/>
        <pt x="176" y="821" on="1"/>
        <pt x="176" y="835" on="0"/>
        <pt x="185" y="854" on="0"/>
        <pt x="198" y="871" on="0"/>
        <pt x="211" y="889" on="0"/>
        <pt x="215" y="901" on="1"/>
        <pt x="223" y="922" on="0"/>
        <pt x="225" y="969" on="0"/>
        <pt x="225" y="1016" on="0"/>
        <pt x="228" y="1062" on="0"/>
        <pt x="236" y="1083" on="1"/>
        <pt x="238" y="1092" on="0"/>
        <pt x="252" y="1105" on="0"/>
        <pt x="267" y="1118" on="0"/>
        <pt x="279" y="1134" on="0"/>
        <pt x="279" y="1145" on="1"/>
        <pt x="279" y="1153" on="0"/>
        <pt x="276" y="1170" on="0"/>
        <pt x="276" y="1180" on="1"/>
        <pt x="276" y="1203" on="0"/>
        <pt x="297" y="1251" on="0"/>
        <pt x="323" y="1298" on="0"/>
        <pt x="344" y="1343" on="0"/>
        <pt x="344" y="1362" on="1"/>
        <pt x="344" y="1382" on="1"/>
        <pt x="344" y="1401" on="0"/>
        <pt x="375" y="1441" on="0"/>
        <pt x="429" y="1474" on="0"/>
        <pt x="500" y="1495" on="0"/>
        <pt x="539" y="1495" on="1"/>
        <pt x="561" y="1495" on="0"/>
        <pt x="596" y="1484" on="0"/>
        <pt x="632" y="1470" on="0"/>
        <pt x="674" y="1457" on="0"/>
        <pt x="702" y="1456" on="1"/>
        <pt x="718" y="1456" on="0"/>
        <pt x="753" y="1463" on="0"/>
        <pt x="789" y="1472" on="0"/>
        <pt x="825" y="1479" on="0"/>
        <pt x="842" y="1479" on="1"/>
        <pt x="851" y="1479" on="0"/>
        <pt x="880" y="1468" on="0"/>
        <pt x="911" y="1450" on="0"/>
        <pt x="940" y="1426" on="0"/>
        <pt x="950" y="1413" on="1"/>
        <pt x="968" y="1390" on="0"/>
        <pt x="981" y="1320" on="0"/>
        <pt x="988" y="1240" on="0"/>
        <pt x="998" y="1160" on="0"/>
        <pt x="1012" y="1128" on="1"/>
        <pt x="1017" y="1115" on="0"/>
        <pt x="1031" y="1094" on="0"/>
        <pt x="1044" y="1070" on="0"/>
        <pt x="1053" y="1039" on="0"/>
        <pt x="1053" y="1016" on="1"/>
        <pt x="1053" y="988" on="0"/>
        <pt x="1047" y="931" on="0"/>
        <pt x="1047" y="905" on="1"/>
        <pt x="1047" y="884" on="0"/>
        <pt x="1058" y="856" on="0"/>
        <pt x="1070" y="835" on="0"/>
        <pt x="1081" y="815" on="0"/>
        <pt x="1081" y="801" on="1"/>
        <pt x="1081" y="782" on="0"/>
        <pt x="1069" y="734" on="0"/>
        <pt x="1069" y="711" on="1"/>
        <pt x="1069" y="689" on="0"/>
        <pt x="1083" y="653" on="0"/>
        <pt x="1081" y="635" on="1"/>
        <pt x="1080" y="616" on="0"/>
        <pt x="1068" y="578" on="0"/>
        <pt x="1054" y="542" on="0"/>
        <pt x="1042" y="506" on="0"/>
        <pt x="1042" y="489" on="1"/>
        <pt x="1042" y="475" on="0"/>
        <pt x="1056" y="449" on="0"/>
        <pt x="1074" y="423" on="0"/>
        <pt x="1092" y="396" on="0"/>
        <pt x="1096" y="381" on="1"/>
        <pt x="1098" y="372" on="0"/>
        <pt x="1100" y="351" on="0"/>
        <pt x="1100" y="340" on="1"/>
        <pt x="1100" y="314" on="0"/>
        <pt x="1090" y="259" on="0"/>
        <pt x="1075" y="205" on="0"/>
        <pt x="1058" y="156" on="0"/>
        <pt x="1051" y="135" on="1"/>
        <pt x="1037" y="94" on="0"/>
        <pt x="1023" y="52" on="0"/>
        <pt x="1009" y="33" on="0"/>
        <pt x="988" y="31" on="0"/>
        <pt x="967" y="31" on="1"/>
        <pt x="946" y="23" on="0"/>
        <pt x="940" y="10" on="1"/>
        <pt x="940" y="9" on="0"/>
        <pt x="929" y="-15" on="0"/>
        <pt x="916" y="-47" on="0"/>
        <pt x="905" y="-77" on="0"/>
        <pt x="905" y="-84" on="1"/>
        <pt x="905" y="-88" on="0"/>
        <pt x="913" y="-88" on="1"/>
        <pt x="950" y="-88" on="0"/>
        <pt x="1005" y="-68" on="0"/>
        <pt x="1053" y="-43" on="0"/>
        <pt x="1097" y="-23" on="0"/>
        <pt x="1124" y="-23" on="1"/>
        <pt x="1141" y="-23" on="0"/>
        <pt x="1168" y="-47" on="0"/>
        <pt x="1186" y="-88" on="0"/>
        <pt x="1196" y="-142" on="0"/>
        <pt x="1196" y="-172" on="1"/>
        <pt x="1196" y="-177" on="0"/>
        <pt x="1194" y="-188" on="0"/>
      </contour>
      <contour>
        <pt x="709" y="641" on="1"/>
        <pt x="715" y="650" on="0"/>
        <pt x="715" y="664" on="1"/>
        <pt x="715" y="678" on="0"/>
        <pt x="705" y="714" on="0"/>
        <pt x="694" y="747" on="0"/>
        <pt x="684" y="773" on="0"/>
        <pt x="684" y="778" on="1"/>
        <pt x="684" y="788" on="0"/>
        <pt x="690" y="808" on="0"/>
        <pt x="690" y="819" on="1"/>
        <pt x="690" y="845" on="0"/>
        <pt x="668" y="899" on="0"/>
        <pt x="641" y="944" on="0"/>
        <pt x="617" y="977" on="0"/>
        <pt x="614" y="983" on="1"/>
        <pt x="607" y="999" on="0"/>
        <pt x="602" y="1032" on="0"/>
        <pt x="595" y="1062" on="0"/>
        <pt x="583" y="1084" on="0"/>
        <pt x="569" y="1090" on="1"/>
        <pt x="549" y="1030" on="0"/>
        <pt x="504" y="914" on="0"/>
        <pt x="461" y="795" on="0"/>
        <pt x="424" y="670" on="0"/>
        <pt x="412" y="602" on="1"/>
        <pt x="447" y="607" on="0"/>
        <pt x="521" y="610" on="0"/>
        <pt x="563" y="616" on="1"/>
        <pt x="569" y="617" on="0"/>
        <pt x="615" y="623" on="0"/>
        <pt x="666" y="631" on="0"/>
        <pt x="707" y="639" on="0"/>
      </contour>
    </TTGlyph>
    <TTGlyph name="Aring" xMin="-16" yMin="-76" xMax="1100" yMax="1933">
      <component glyphName="A" x="0" y="0" flags="0x4"/>
      <component glyphName="ring" x="481" y="315" flags="0x4"/>
    </TTGlyph>
    <TTGlyph name="Atilde" xMin="-16" yMin="-76" xMax="1100" yMax="1915">
      <component glyphName="A" x="0" y="0" flags="0x4"/>
      <component glyphName="tilde" x="352" y="326" flags="0x4"/>
    </TTGlyph>
    <TTGlyph name="B" xMin="8" yMin="-127" xMax="1225" yMax="1562">
      <contour>
        <pt x="1225" y="483" on="1"/>
        <pt x="1225" y="475" on="1"/>
        <pt x="1225" y="452" on="0"/>
        <pt x="1212" y="390" on="0"/>
        <pt x="1212" y="358" on="1"/>
        <pt x="1212" y="334" on="0"/>
        <pt x="1217" y="284" on="0"/>
        <pt x="1217" y="264" on="1"/>
        <pt x="1217" y="234" on="0"/>
        <pt x="1193" y="206" on="0"/>
        <pt x="1165" y="186" on="0"/>
        <pt x="1141" y="161" on="0"/>
        <pt x="1141" y="135" on="1"/>
        <pt x="1141" y="123" on="0"/>
        <pt x="1149" y="99" on="0"/>
        <pt x="1149" y="88" on="1"/>
        <pt x="1149" y="67" on="0"/>
        <pt x="1126" y="37" on="0"/>
        <pt x="1091" y="15" on="0"/>
        <pt x="1049" y="-5" on="0"/>
        <pt x="1030" y="-16" on="1"/>
        <pt x="1012" y="-27" on="0"/>
        <pt x="980" y="-55" on="0"/>
        <pt x="944" y="-79" on="0"/>
        <pt x="898" y="-96" on="0"/>
        <pt x="866" y="-96" on="1"/>
        <pt x="837" y="-96" on="0"/>
        <pt x="772" y="-90" on="0"/>
        <pt x="741" y="-90" on="1"/>
        <pt x="715" y="-90" on="0"/>
        <pt x="681" y="-102" on="0"/>
        <pt x="652" y="-115" on="0"/>
        <pt x="622" y="-127" on="0"/>
        <pt x="600" y="-127" on="1"/>
        <pt x="578" y="-127" on="0"/>
        <pt x="534" y="-117" on="0"/>
        <pt x="488" y="-106" on="0"/>
        <pt x="438" y="-96" on="0"/>
        <pt x="410" y="-96" on="1"/>
        <pt x="384" y="-96" on="0"/>
        <pt x="350" y="-87" on="0"/>
        <pt x="322" y="-77" on="0"/>
        <pt x="296" y="-68" on="0"/>
        <pt x="279" y="-68" on="1"/>
        <pt x="263" y="-68" on="0"/>
        <pt x="230" y="-74" on="0"/>
        <pt x="213" y="-74" on="1"/>
        <pt x="194" y="-74" on="0"/>
        <pt x="135" y="-54" on="0"/>
        <pt x="79" y="-30" on="0"/>
        <pt x="39" y="-7" on="0"/>
        <pt x="39" y="-4" on="1"/>
        <pt x="39" y="-1" on="0"/>
        <pt x="45" y="6" on="0"/>
        <pt x="45" y="14" on="1"/>
        <pt x="45" y="21" on="0"/>
        <pt x="33" y="46" on="0"/>
        <pt x="20" y="76" on="0"/>
        <pt x="8" y="108" on="0"/>
        <pt x="8" y="123" on="1"/>
        <pt x="8" y="168" on="0"/>
        <pt x="40" y="247" on="0"/>
        <pt x="61" y="268" on="1"/>
        <pt x="73" y="280" on="0"/>
        <pt x="98" y="292" on="0"/>
        <pt x="121" y="304" on="0"/>
        <pt x="141" y="319" on="0"/>
        <pt x="156" y="350" on="0"/>
        <pt x="164" y="401" on="0"/>
        <pt x="164" y="442" on="1"/>
        <pt x="164" y="457" on="0"/>
        <pt x="155" y="500" on="0"/>
        <pt x="144" y="553" on="0"/>
        <pt x="135" y="613" on="0"/>
        <pt x="135" y="645" on="1"/>
        <pt x="135" y="667" on="0"/>
        <pt x="147" y="705" on="0"/>
        <pt x="160" y="743" on="0"/>
        <pt x="172" y="785" on="0"/>
        <pt x="172" y="811" on="1"/>
        <pt x="172" y="844" on="0"/>
        <pt x="165" y="926" on="0"/>
        <pt x="157" y="1015" on="0"/>
        <pt x="150" y="1108" on="0"/>
        <pt x="150" y="1153" on="1"/>
        <pt x="150" y="1201" on="0"/>
        <pt x="164" y="1283" on="0"/>
        <pt x="164" y="1317" on="1"/>
        <pt x="161" y="1342" on="0"/>
        <pt x="137" y="1387" on="0"/>
        <pt x="137" y="1407" on="1"/>
        <pt x="137" y="1447" on="0"/>
        <pt x="170" y="1490" on="0"/>
        <pt x="234" y="1513" on="0"/>
        <pt x="329" y="1521" on="0"/>
        <pt x="391" y="1526" on="1"/>
        <pt x="412" y="1527" on="0"/>
        <pt x="451" y="1539" on="0"/>
        <pt x="492" y="1552" on="0"/>
        <pt x="537" y="1562" on="0"/>
        <pt x="563" y="1561" on="1"/>
        <pt x="607" y="1561" on="0"/>
        <pt x="707" y="1552" on="0"/>
        <pt x="752" y="1552" on="1"/>
        <pt x="792" y="1552" on="0"/>
        <pt x="871" y="1561" on="0"/>
        <pt x="899" y="1561" on="1"/>
        <pt x="920" y="1561" on="0"/>
        <pt x="947" y="1549" on="0"/>
        <pt x="973" y="1530" on="0"/>
        <pt x="1002" y="1504" on="0"/>
        <pt x="1024" y="1489" on="1"/>
        <pt x="1042" y="1477" on="0"/>
        <pt x="1067" y="1464" on="0"/>
        <pt x="1087" y="1452" on="0"/>
        <pt x="1106" y="1435" on="0"/>
        <pt x="1118" y="1419" on="1"/>
        <pt x="1129" y="1404" on="0"/>
        <pt x="1159" y="1356" on="0"/>
        <pt x="1187" y="1305" on="0"/>
        <pt x="1206" y="1258" on="0"/>
        <pt x="1206" y="1245" on="1"/>
        <pt x="1206" y="1224" on="0"/>
        <pt x="1193" y="1191" on="0"/>
        <pt x="1188" y="1165" on="1"/>
        <pt x="1185" y="1147" on="0"/>
        <pt x="1182" y="1107" on="0"/>
        <pt x="1178" y="1066" on="0"/>
        <pt x="1171" y="1029" on="0"/>
        <pt x="1163" y="1014" on="1"/>
        <pt x="1152" y="994" on="0"/>
        <pt x="1104" y="956" on="0"/>
        <pt x="1040" y="926" on="0"/>
        <pt x="968" y="907" on="0"/>
        <pt x="934" y="907" on="1"/>
        <pt x="937" y="894" on="0"/>
        <pt x="955" y="878" on="0"/>
        <pt x="978" y="866" on="0"/>
        <pt x="1001" y="857" on="0"/>
        <pt x="1010" y="850" on="1"/>
        <pt x="1024" y="839" on="0"/>
        <pt x="1052" y="802" on="0"/>
        <pt x="1067" y="786" on="1"/>
        <pt x="1082" y="771" on="0"/>
        <pt x="1122" y="748" on="0"/>
        <pt x="1130" y="735" on="1"/>
        <pt x="1137" y="726" on="0"/>
        <pt x="1143" y="692" on="0"/>
        <pt x="1149" y="680" on="1"/>
        <pt x="1162" y="653" on="0"/>
        <pt x="1188" y="614" on="0"/>
        <pt x="1209" y="574" on="0"/>
        <pt x="1223" y="522" on="0"/>
      </contour>
      <contour>
        <pt x="858" y="1186" on="1"/>
        <pt x="858" y="1228" on="0"/>
        <pt x="830" y="1284" on="0"/>
        <pt x="780" y="1319" on="0"/>
        <pt x="713" y="1333" on="0"/>
        <pt x="674" y="1333" on="1"/>
        <pt x="652" y="1333" on="0"/>
        <pt x="592" y="1331" on="0"/>
        <pt x="527" y="1324" on="0"/>
        <pt x="463" y="1309" on="0"/>
        <pt x="412" y="1283" on="0"/>
        <pt x="381" y="1245" on="0"/>
        <pt x="381" y="1217" on="1"/>
        <pt x="381" y="1199" on="0"/>
        <pt x="385" y="1158" on="0"/>
        <pt x="391" y="1119" on="0"/>
        <pt x="396" y="1083" on="0"/>
        <pt x="397" y="1071" on="1"/>
        <pt x="397" y="1054" on="0"/>
        <pt x="391" y="1008" on="0"/>
        <pt x="391" y="989" on="1"/>
        <pt x="391" y="975" on="0"/>
        <pt x="397" y="961" on="0"/>
        <pt x="408" y="961" on="1"/>
        <pt x="421" y="961" on="0"/>
        <pt x="482" y="972" on="0"/>
        <pt x="553" y="986" on="0"/>
        <pt x="618" y="997" on="0"/>
        <pt x="635" y="997" on="1"/>
        <pt x="644" y="997" on="0"/>
        <pt x="659" y="995" on="0"/>
        <pt x="664" y="995" on="1"/>
        <pt x="663" y="995" on="0"/>
        <pt x="683" y="1001" on="0"/>
        <pt x="714" y="1012" on="0"/>
        <pt x="753" y="1025" on="0"/>
        <pt x="789" y="1039" on="0"/>
        <pt x="816" y="1053" on="0"/>
        <pt x="821" y="1059" on="1"/>
        <pt x="825" y="1063" on="0"/>
        <pt x="837" y="1100" on="0"/>
        <pt x="849" y="1143" on="0"/>
        <pt x="858" y="1180" on="0"/>
      </contour>
      <contour>
        <pt x="758" y="705" on="1"/>
        <pt x="755" y="710" on="0"/>
        <pt x="733" y="721" on="0"/>
        <pt x="725" y="729" on="1"/>
        <pt x="713" y="744" on="0"/>
        <pt x="700" y="759" on="0"/>
        <pt x="683" y="767" on="0"/>
        <pt x="654" y="768" on="0"/>
        <pt x="625" y="768" on="1"/>
        <pt x="602" y="768" on="0"/>
        <pt x="530" y="768" on="0"/>
        <pt x="461" y="765" on="0"/>
        <pt x="408" y="760" on="0"/>
        <pt x="403" y="756" on="1"/>
        <pt x="403" y="733" on="0"/>
        <pt x="405" y="702" on="0"/>
        <pt x="408" y="679" on="0"/>
        <pt x="410" y="660" on="0"/>
        <pt x="410" y="649" on="1"/>
        <pt x="410" y="606" on="0"/>
        <pt x="406" y="558" on="0"/>
        <pt x="406" y="541" on="1"/>
        <pt x="406" y="524" on="0"/>
        <pt x="412" y="479" on="0"/>
        <pt x="412" y="438" on="1"/>
        <pt x="412" y="412" on="0"/>
        <pt x="408" y="363" on="0"/>
        <pt x="408" y="344" on="1"/>
        <pt x="408" y="317" on="0"/>
        <pt x="450" y="294" on="0"/>
        <pt x="507" y="287" on="0"/>
        <pt x="565" y="291" on="0"/>
        <pt x="582" y="291" on="1"/>
        <pt x="594" y="291" on="0"/>
        <pt x="641" y="299" on="0"/>
        <pt x="692" y="314" on="0"/>
        <pt x="740" y="333" on="0"/>
        <pt x="752" y="344" on="1"/>
        <pt x="775" y="364" on="0"/>
        <pt x="795" y="456" on="0"/>
        <pt x="795" y="510" on="1"/>
        <pt x="795" y="539" on="0"/>
        <pt x="789" y="598" on="0"/>
        <pt x="779" y="650" on="0"/>
        <pt x="765" y="692" on="0"/>
      </contour>
    </TTGlyph>
    <TTGlyph name="C" xMin="31" yMin="-31" xMax="1112" yMax="1428">
      <contour>
        <pt x="1112" y="1032" on="1"/>
        <pt x="1112" y="1026" on="1"/>
        <pt x="1112" y="1011" on="0"/>
        <pt x="1104" y="946" on="0"/>
        <pt x="1086" y="873" on="0"/>
        <pt x="1060" y="805" on="0"/>
        <pt x="1042" y="786" on="1"/>
        <pt x="1025" y="769" on="0"/>
        <pt x="968" y="757" on="0"/>
        <pt x="942" y="748" on="1"/>
        <pt x="921" y="740" on="0"/>
        <pt x="874" y="714" on="0"/>
        <pt x="827" y="690" on="0"/>
        <pt x="780" y="672" on="0"/>
        <pt x="758" y="672" on="1"/>
        <pt x="743" y="672" on="0"/>
        <pt x="706" y="687" on="0"/>
        <pt x="674" y="721" on="0"/>
        <pt x="653" y="775" on="0"/>
        <pt x="653" y="815" on="1"/>
        <pt x="653" y="840" on="0"/>
        <pt x="657" y="894" on="0"/>
        <pt x="657" y="920" on="1"/>
        <pt x="657" y="948" on="0"/>
        <pt x="648" y="1019" on="0"/>
        <pt x="632" y="1081" on="0"/>
        <pt x="612" y="1124" on="0"/>
        <pt x="600" y="1124" on="1"/>
        <pt x="591" y="1124" on="0"/>
        <pt x="568" y="1116" on="0"/>
        <pt x="553" y="1116" on="1"/>
        <pt x="535" y="1116" on="0"/>
        <pt x="516" y="1124" on="0"/>
        <pt x="504" y="1133" on="0"/>
        <pt x="494" y="1141" on="0"/>
        <pt x="485" y="1141" on="1"/>
        <pt x="461" y="1141" on="0"/>
        <pt x="436" y="1120" on="0"/>
        <pt x="424" y="1084" on="0"/>
        <pt x="417" y="1038" on="0"/>
        <pt x="410" y="1014" on="1"/>
        <pt x="405" y="997" on="0"/>
        <pt x="379" y="955" on="0"/>
        <pt x="373" y="932" on="1"/>
        <pt x="365" y="909" on="0"/>
        <pt x="355" y="854" on="0"/>
        <pt x="346" y="825" on="1"/>
        <pt x="338" y="800" on="0"/>
        <pt x="317" y="724" on="0"/>
        <pt x="297" y="640" on="0"/>
        <pt x="283" y="556" on="0"/>
        <pt x="283" y="524" on="1"/>
        <pt x="283" y="478" on="0"/>
        <pt x="343" y="391" on="0"/>
        <pt x="391" y="362" on="1"/>
        <pt x="405" y="354" on="0"/>
        <pt x="456" y="343" on="0"/>
        <pt x="479" y="332" on="1"/>
        <pt x="501" y="321" on="0"/>
        <pt x="533" y="300" on="0"/>
        <pt x="569" y="283" on="0"/>
        <pt x="618" y="272" on="0"/>
        <pt x="657" y="272" on="1"/>
        <pt x="693" y="272" on="0"/>
        <pt x="768" y="287" on="0"/>
        <pt x="836" y="311" on="0"/>
        <pt x="892" y="341" on="0"/>
        <pt x="909" y="356" on="1"/>
        <pt x="915" y="361" on="0"/>
        <pt x="942" y="394" on="0"/>
        <pt x="978" y="430" on="0"/>
        <pt x="1022" y="459" on="0"/>
        <pt x="1047" y="459" on="1"/>
        <pt x="1052" y="459" on="0"/>
        <pt x="1073" y="454" on="0"/>
        <pt x="1094" y="439" on="0"/>
        <pt x="1110" y="411" on="0"/>
        <pt x="1110" y="389" on="1"/>
        <pt x="1110" y="360" on="0"/>
        <pt x="1094" y="298" on="0"/>
        <pt x="1094" y="270" on="1"/>
        <pt x="1094" y="258" on="0"/>
        <pt x="1096" y="222" on="0"/>
        <pt x="1096" y="205" on="1"/>
        <pt x="1096" y="170" on="0"/>
        <pt x="1053" y="98" on="0"/>
        <pt x="999" y="59" on="1"/>
        <pt x="982" y="47" on="0"/>
        <pt x="932" y="28" on="0"/>
        <pt x="909" y="14" on="1"/>
        <pt x="885" y="-1" on="0"/>
        <pt x="831" y="-31" on="0"/>
        <pt x="815" y="-31" on="1"/>
        <pt x="800" y="-31" on="0"/>
        <pt x="768" y="-23" on="0"/>
        <pt x="748" y="-23" on="1"/>
        <pt x="716" y="-23" on="0"/>
        <pt x="655" y="-27" on="0"/>
        <pt x="623" y="-27" on="1"/>
        <pt x="607" y="-27" on="0"/>
        <pt x="568" y="-26" on="0"/>
        <pt x="528" y="-23" on="0"/>
        <pt x="489" y="-19" on="0"/>
        <pt x="473" y="-16" on="1"/>
        <pt x="461" y="-15" on="0"/>
        <pt x="430" y="-12" on="0"/>
        <pt x="400" y="-9" on="0"/>
        <pt x="377" y="-6" on="0"/>
        <pt x="373" y="-4" on="1"/>
        <pt x="366" y="-1" on="0"/>
        <pt x="354" y="15" on="0"/>
        <pt x="341" y="36" on="0"/>
        <pt x="326" y="57" on="0"/>
        <pt x="315" y="66" on="1"/>
        <pt x="303" y="75" on="0"/>
        <pt x="273" y="82" on="0"/>
        <pt x="264" y="90" on="1"/>
        <pt x="252" y="106" on="0"/>
        <pt x="221" y="144" on="0"/>
        <pt x="207" y="160" on="1"/>
        <pt x="191" y="185" on="0"/>
        <pt x="173" y="239" on="0"/>
        <pt x="158" y="256" on="1"/>
        <pt x="152" y="262" on="0"/>
        <pt x="131" y="273" on="0"/>
        <pt x="107" y="286" on="0"/>
        <pt x="84" y="301" on="0"/>
        <pt x="76" y="311" on="1"/>
        <pt x="72" y="314" on="0"/>
        <pt x="57" y="340" on="0"/>
        <pt x="42" y="368" on="0"/>
        <pt x="31" y="389" on="0"/>
        <pt x="31" y="387" on="1"/>
        <pt x="31" y="393" on="0"/>
        <pt x="40" y="412" on="0"/>
        <pt x="52" y="432" on="0"/>
        <pt x="61" y="452" on="0"/>
        <pt x="61" y="459" on="1"/>
        <pt x="61" y="476" on="0"/>
        <pt x="51" y="503" on="0"/>
        <pt x="49" y="520" on="1"/>
        <pt x="49" y="554" on="0"/>
        <pt x="55" y="663" on="0"/>
        <pt x="68" y="787" on="0"/>
        <pt x="87" y="912" on="0"/>
        <pt x="100" y="963" on="1"/>
        <pt x="111" y="1003" on="0"/>
        <pt x="139" y="1087" on="0"/>
        <pt x="139" y="1124" on="1"/>
        <pt x="139" y="1137" on="0"/>
        <pt x="135" y="1163" on="0"/>
        <pt x="135" y="1176" on="1"/>
        <pt x="135" y="1203" on="0"/>
        <pt x="167" y="1233" on="0"/>
        <pt x="213" y="1256" on="0"/>
        <pt x="265" y="1278" on="0"/>
        <pt x="285" y="1298" on="1"/>
        <pt x="290" y="1304" on="0"/>
        <pt x="296" y="1326" on="0"/>
        <pt x="300" y="1348" on="0"/>
        <pt x="304" y="1369" on="0"/>
        <pt x="309" y="1374" on="1"/>
        <pt x="312" y="1378" on="0"/>
        <pt x="323" y="1380" on="0"/>
        <pt x="338" y="1382" on="0"/>
        <pt x="357" y="1387" on="0"/>
        <pt x="367" y="1393" on="1"/>
        <pt x="377" y="1399" on="0"/>
        <pt x="388" y="1412" on="0"/>
        <pt x="398" y="1422" on="0"/>
        <pt x="412" y="1428" on="0"/>
        <pt x="424" y="1427" on="1"/>
        <pt x="435" y="1427" on="0"/>
        <pt x="458" y="1425" on="0"/>
        <pt x="467" y="1425" on="1"/>
        <pt x="482" y="1425" on="0"/>
        <pt x="515" y="1427" on="0"/>
        <pt x="532" y="1427" on="1"/>
        <pt x="560" y="1427" on="0"/>
        <pt x="596" y="1415" on="0"/>
        <pt x="624" y="1400" on="0"/>
        <pt x="650" y="1384" on="0"/>
        <pt x="670" y="1380" on="1"/>
        <pt x="697" y="1375" on="0"/>
        <pt x="752" y="1374" on="0"/>
        <pt x="804" y="1373" on="0"/>
        <pt x="855" y="1366" on="0"/>
        <pt x="879" y="1356" on="1"/>
        <pt x="893" y="1350" on="0"/>
        <pt x="924" y="1319" on="0"/>
        <pt x="942" y="1305" on="1"/>
        <pt x="959" y="1292" on="0"/>
        <pt x="998" y="1273" on="0"/>
        <pt x="1006" y="1262" on="1"/>
        <pt x="1012" y="1251" on="0"/>
        <pt x="1021" y="1207" on="0"/>
        <pt x="1030" y="1192" on="1"/>
        <pt x="1039" y="1176" on="0"/>
        <pt x="1066" y="1141" on="0"/>
        <pt x="1092" y="1102" on="0"/>
        <pt x="1110" y="1057" on="0"/>
      </contour>
    </TTGlyph>
    <TTGlyph name="Cacute" xMin="31" yMin="-31" xMax="1112" yMax="1868">
      <component glyphName="C" x="0" y="0" flags="0x204"/>
      <component glyphName="acute" x="518" y="254" flags="0x4"/>
    </TTGlyph>
    <TTGlyph name="Ccaron" xMin="31" yMin="-31" xMax="1112" yMax="1893">
      <component glyphName="C" x="0" y="0" flags="0x204"/>
      <component glyphName="caron" x="324" y="291" flags="0x4"/>
    </TTGlyph>
    <TTGlyph name="Ccedilla" xMin="31" yMin="-506" xMax="1112" yMax="1428">
      <contour>
        <pt x="827" y="-330" on="1"/>
        <pt x="827" y="-338" on="0"/>
        <pt x="818" y="-369" on="0"/>
        <pt x="804" y="-399" on="0"/>
        <pt x="785" y="-422" on="0"/>
        <pt x="776" y="-422" on="1"/>
        <pt x="762" y="-422" on="1"/>
        <pt x="753" y="-422" on="0"/>
        <pt x="742" y="-428" on="0"/>
        <pt x="732" y="-436" on="0"/>
        <pt x="722" y="-444" on="0"/>
        <pt x="715" y="-446" on="1"/>
        <pt x="684" y="-456" on="0"/>
        <pt x="613" y="-461" on="0"/>
        <pt x="575" y="-467" on="1"/>
        <pt x="554" y="-472" on="0"/>
        <pt x="515" y="-492" on="0"/>
        <pt x="494" y="-492" on="1"/>
        <pt x="471" y="-492" on="1"/>
        <pt x="456" y="-492" on="0"/>
        <pt x="431" y="-506" on="0"/>
        <pt x="420" y="-506" on="1"/>
        <pt x="397" y="-506" on="0"/>
        <pt x="359" y="-478" on="0"/>
        <pt x="331" y="-435" on="0"/>
        <pt x="315" y="-382" on="0"/>
        <pt x="315" y="-356" on="1"/>
        <pt x="315" y="-323" on="0"/>
        <pt x="345" y="-287" on="0"/>
        <pt x="392" y="-269" on="0"/>
        <pt x="453" y="-263" on="0"/>
        <pt x="514" y="-258" on="0"/>
        <pt x="570" y="-249" on="0"/>
        <pt x="590" y="-236" on="1"/>
        <pt x="578" y="-227" on="0"/>
        <pt x="553" y="-220" on="0"/>
        <pt x="529" y="-219" on="0"/>
        <pt x="507" y="-218" on="0"/>
        <pt x="498" y="-213" on="1"/>
        <pt x="490" y="-210" on="0"/>
        <pt x="466" y="-188" on="0"/>
        <pt x="444" y="-161" on="0"/>
        <pt x="428" y="-136" on="0"/>
        <pt x="428" y="-129" on="1"/>
        <pt x="428" y="-118" on="0"/>
        <pt x="436" y="-79" on="0"/>
        <pt x="442" y="-63" on="1"/>
        <pt x="449" y="-51" on="0"/>
        <pt x="471" y="-30" on="0"/>
        <pt x="477" y="-16" on="1"/>
        <pt x="473" y="-16" on="1"/>
        <pt x="461" y="-15" on="0"/>
        <pt x="430" y="-12" on="0"/>
        <pt x="400" y="-9" on="0"/>
        <pt x="377" y="-6" on="0"/>
        <pt x="373" y="-4" on="1"/>
        <pt x="366" y="-1" on="0"/>
        <pt x="354" y="15" on="0"/>
        <pt x="341" y="36" on="0"/>
        <pt x="326" y="57" on="0"/>
        <pt x="315" y="66" on="1"/>
        <pt x="303" y="75" on="0"/>
        <pt x="273" y="82" on="0"/>
        <pt x="264" y="90" on="1"/>
        <pt x="252" y="106" on="0"/>
        <pt x="221" y="144" on="0"/>
        <pt x="207" y="160" on="1"/>
        <pt x="191" y="185" on="0"/>
        <pt x="173" y="239" on="0"/>
        <pt x="158" y="256" on="1"/>
        <pt x="152" y="262" on="0"/>
        <pt x="131" y="273" on="0"/>
        <pt x="107" y="286" on="0"/>
        <pt x="84" y="301" on="0"/>
        <pt x="76" y="311" on="1"/>
        <pt x="72" y="314" on="0"/>
        <pt x="57" y="340" on="0"/>
        <pt x="42" y="368" on="0"/>
        <pt x="31" y="389" on="0"/>
        <pt x="31" y="387" on="1"/>
        <pt x="31" y="393" on="0"/>
        <pt x="40" y="412" on="0"/>
        <pt x="52" y="432" on="0"/>
        <pt x="61" y="452" on="0"/>
        <pt x="61" y="459" on="1"/>
        <pt x="61" y="476" on="0"/>
        <pt x="51" y="503" on="0"/>
        <pt x="49" y="520" on="1"/>
        <pt x="49" y="554" on="0"/>
        <pt x="55" y="663" on="0"/>
        <pt x="68" y="787" on="0"/>
        <pt x="87" y="912" on="0"/>
        <pt x="100" y="963" on="1"/>
        <pt x="111" y="1003" on="0"/>
        <pt x="139" y="1087" on="0"/>
        <pt x="139" y="1124" on="1"/>
        <pt x="139" y="1137" on="0"/>
        <pt x="135" y="1163" on="0"/>
        <pt x="135" y="1176" on="1"/>
        <pt x="135" y="1203" on="0"/>
        <pt x="167" y="1233" on="0"/>
        <pt x="213" y="1256" on="0"/>
        <pt x="265" y="1278" on="0"/>
        <pt x="285" y="1298" on="1"/>
        <pt x="290" y="1304" on="0"/>
        <pt x="296" y="1326" on="0"/>
        <pt x="300" y="1348" on="0"/>
        <pt x="304" y="1369" on="0"/>
        <pt x="309" y="1374" on="1"/>
        <pt x="312" y="1378" on="0"/>
        <pt x="323" y="1380" on="0"/>
        <pt x="338" y="1382" on="0"/>
        <pt x="357" y="1387" on="0"/>
        <pt x="367" y="1393" on="1"/>
        <pt x="377" y="1399" on="0"/>
        <pt x="388" y="1412" on="0"/>
        <pt x="398" y="1422" on="0"/>
        <pt x="412" y="1428" on="0"/>
        <pt x="424" y="1427" on="1"/>
        <pt x="435" y="1427" on="0"/>
        <pt x="458" y="1425" on="0"/>
        <pt x="467" y="1425" on="1"/>
        <pt x="482" y="1425" on="0"/>
        <pt x="515" y="1427" on="0"/>
        <pt x="532" y="1427" on="1"/>
        <pt x="560" y="1427" on="0"/>
        <pt x="596" y="1415" on="0"/>
        <pt x="624" y="1400" on="0"/>
        <pt x="650" y="1384" on="0"/>
        <pt x="670" y="1380" on="1"/>
        <pt x="697" y="1375" on="0"/>
        <pt x="752" y="1374" on="0"/>
        <pt x="804" y="1373" on="0"/>
        <pt x="855" y="1366" on="0"/>
        <pt x="879" y="1356" on="1"/>
        <pt x="893" y="1350" on="0"/>
        <pt x="924" y="1319" on="0"/>
        <pt x="942" y="1305" on="1"/>
        <pt x="959" y="1292" on="0"/>
        <pt x="998" y="1273" on="0"/>
        <pt x="1006" y="1262" on="1"/>
        <pt x="1012" y="1251" on="0"/>
        <pt x="1021" y="1207" on="0"/>
        <pt x="1030" y="1192" on="1"/>
        <pt x="1039" y="1176" on="0"/>
        <pt x="1066" y="1141" on="0"/>
        <pt x="1092" y="1102" on="0"/>
        <pt x="1110" y="1057" on="0"/>
        <pt x="1112" y="1032" on="1"/>
        <pt x="1112" y="1026" on="1"/>
        <pt x="1112" y="1011" on="0"/>
        <pt x="1104" y="946" on="0"/>
        <pt x="1086" y="873" on="0"/>
        <pt x="1060" y="805" on="0"/>
        <pt x="1042" y="786" on="1"/>
        <pt x="1025" y="769" on="0"/>
        <pt x="968" y="757" on="0"/>
        <pt x="942" y="748" on="1"/>
        <pt x="921" y="740" on="0"/>
        <pt x="874" y="714" on="0"/>
        <pt x="827" y="690" on="0"/>
        <pt x="780" y="672" on="0"/>
        <pt x="758" y="672" on="1"/>
        <pt x="743" y="672" on="0"/>
        <pt x="706" y="687" on="0"/>
        <pt x="674" y="721" on="0"/>
        <pt x="653" y="775" on="0"/>
        <pt x="653" y="815" on="1"/>
        <pt x="653" y="840" on="0"/>
        <pt x="657" y="894" on="0"/>
        <pt x="657" y="920" on="1"/>
        <pt x="657" y="948" on="0"/>
        <pt x="648" y="1019" on="0"/>
        <pt x="632" y="1081" on="0"/>
        <pt x="612" y="1124" on="0"/>
        <pt x="600" y="1124" on="1"/>
        <pt x="591" y="1124" on="0"/>
        <pt x="568" y="1116" on="0"/>
        <pt x="553" y="1116" on="1"/>
        <pt x="535" y="1116" on="0"/>
        <pt x="516" y="1124" on="0"/>
        <pt x="504" y="1133" on="0"/>
        <pt x="494" y="1141" on="0"/>
        <pt x="485" y="1141" on="1"/>
        <pt x="461" y="1141" on="0"/>
        <pt x="436" y="1120" on="0"/>
        <pt x="424" y="1084" on="0"/>
        <pt x="417" y="1038" on="0"/>
        <pt x="410" y="1014" on="1"/>
        <pt x="405" y="997" on="0"/>
        <pt x="379" y="955" on="0"/>
        <pt x="373" y="932" on="1"/>
        <pt x="365" y="909" on="0"/>
        <pt x="355" y="854" on="0"/>
        <pt x="346" y="825" on="1"/>
        <pt x="338" y="800" on="0"/>
        <pt x="317" y="724" on="0"/>
        <pt x="297" y="640" on="0"/>
        <pt x="283" y="556" on="0"/>
        <pt x="283" y="524" on="1"/>
        <pt x="283" y="478" on="0"/>
        <pt x="343" y="391" on="0"/>
        <pt x="391" y="362" on="1"/>
        <pt x="405" y="354" on="0"/>
        <pt x="456" y="343" on="0"/>
        <pt x="479" y="332" on="1"/>
        <pt x="501" y="321" on="0"/>
        <pt x="533" y="300" on="0"/>
        <pt x="569" y="283" on="0"/>
        <pt x="618" y="272" on="0"/>
        <pt x="657" y="272" on="1"/>
        <pt x="693" y="272" on="0"/>
        <pt x="768" y="287" on="0"/>
        <pt x="836" y="311" on="0"/>
        <pt x="892" y="341" on="0"/>
        <pt x="909" y="356" on="1"/>
        <pt x="915" y="361" on="0"/>
        <pt x="942" y="394" on="0"/>
        <pt x="978" y="430" on="0"/>
        <pt x="1022" y="459" on="0"/>
        <pt x="1047" y="459" on="1"/>
        <pt x="1052" y="459" on="0"/>
        <pt x="1073" y="454" on="0"/>
        <pt x="1094" y="439" on="0"/>
        <pt x="1110" y="411" on="0"/>
        <pt x="1110" y="389" on="1"/>
        <pt x="1110" y="360" on="0"/>
        <pt x="1094" y="298" on="0"/>
        <pt x="1094" y="270" on="1"/>
        <pt x="1094" y="258" on="0"/>
        <pt x="1096" y="222" on="0"/>
        <pt x="1096" y="205" on="1"/>
        <pt x="1096" y="170" on="0"/>
        <pt x="1053" y="98" on="0"/>
        <pt x="999" y="59" on="1"/>
        <pt x="982" y="47" on="0"/>
        <pt x="932" y="28" on="0"/>
        <pt x="909" y="14" on="1"/>
        <pt x="885" y="-1" on="0"/>
        <pt x="831" y="-31" on="0"/>
        <pt x="815" y="-31" on="1"/>
        <pt x="800" y="-31" on="0"/>
        <pt x="768" y="-23" on="0"/>
        <pt x="748" y="-23" on="1"/>
        <pt x="716" y="-23" on="0"/>
        <pt x="655" y="-27" on="0"/>
        <pt x="623" y="-27" on="1"/>
        <pt x="612" y="-27" on="1"/>
        <pt x="604" y="-37" on="0"/>
        <pt x="585" y="-55" on="0"/>
        <pt x="569" y="-75" on="0"/>
        <pt x="557" y="-99" on="0"/>
        <pt x="557" y="-115" on="1"/>
        <pt x="557" y="-121" on="0"/>
        <pt x="569" y="-127" on="0"/>
        <pt x="575" y="-127" on="1"/>
        <pt x="591" y="-127" on="0"/>
        <pt x="644" y="-119" on="0"/>
        <pt x="672" y="-119" on="1"/>
        <pt x="741" y="-119" on="0"/>
        <pt x="814" y="-170" on="0"/>
        <pt x="817" y="-240" on="1"/>
        <pt x="817" y="-251" on="0"/>
        <pt x="811" y="-267" on="0"/>
        <pt x="811" y="-276" on="1"/>
        <pt x="811" y="-290" on="0"/>
        <pt x="827" y="-319" on="0"/>
      </contour>
    </TTGlyph>
    <TTGlyph name="Ccircumflex" xMin="31" yMin="-31" xMax="1112" yMax="1884">
      <component glyphName="C" x="0" y="0" flags="0x204"/>
      <component glyphName="circumflex" x="328" y="268" flags="0x4"/>
    </TTGlyph>
    <TTGlyph name="Cdotaccent" xMin="31" yMin="-31" xMax="1112" yMax="1753">
      <component glyphName="C" x="0" y="0" flags="0x204"/>
      <component glyphName="dotaccent" x="455" y="258" flags="0x4"/>
    </TTGlyph>
    <TTGlyph name="D" xMin="4" yMin="-61" xMax="1298" yMax="1419">
      <contour>
        <pt x="1298" y="578" on="1"/>
        <pt x="1298" y="569" on="1"/>
        <pt x="1298" y="554" on="0"/>
        <pt x="1292" y="519" on="0"/>
        <pt x="1292" y="502" on="1"/>
        <pt x="1292" y="480" on="0"/>
        <pt x="1294" y="446" on="0"/>
        <pt x="1294" y="430" on="1"/>
        <pt x="1294" y="412" on="0"/>
        <pt x="1286" y="353" on="0"/>
        <pt x="1271" y="290" on="0"/>
        <pt x="1249" y="233" on="0"/>
        <pt x="1235" y="217" on="1"/>
        <pt x="1230" y="210" on="0"/>
        <pt x="1198" y="193" on="0"/>
        <pt x="1159" y="175" on="0"/>
        <pt x="1121" y="156" on="0"/>
        <pt x="1110" y="147" on="1"/>
        <pt x="1098" y="138" on="0"/>
        <pt x="1068" y="107" on="0"/>
        <pt x="1035" y="74" on="0"/>
        <pt x="1003" y="44" on="0"/>
        <pt x="989" y="35" on="1"/>
        <pt x="978" y="26" on="0"/>
        <pt x="943" y="13" on="0"/>
        <pt x="926" y="2" on="1"/>
        <pt x="914" y="-6" on="0"/>
        <pt x="899" y="-23" on="0"/>
        <pt x="885" y="-37" on="0"/>
        <pt x="870" y="-45" on="0"/>
        <pt x="858" y="-45" on="1"/>
        <pt x="839" y="-45" on="0"/>
        <pt x="789" y="-40" on="0"/>
        <pt x="733" y="-34" on="0"/>
        <pt x="675" y="-29" on="0"/>
        <pt x="647" y="-29" on="1"/>
        <pt x="625" y="-29" on="0"/>
        <pt x="584" y="-39" on="0"/>
        <pt x="547" y="-51" on="0"/>
        <pt x="515" y="-61" on="0"/>
        <pt x="502" y="-61" on="1"/>
        <pt x="471" y="-61" on="0"/>
        <pt x="394" y="-37" on="0"/>
        <pt x="356" y="-29" on="1"/>
        <pt x="340" y="-26" on="0"/>
        <pt x="300" y="-21" on="0"/>
        <pt x="259" y="-16" on="0"/>
        <pt x="220" y="-9" on="0"/>
        <pt x="205" y="-4" on="1"/>
        <pt x="196" y="-1" on="0"/>
        <pt x="182" y="11" on="0"/>
        <pt x="165" y="26" on="0"/>
        <pt x="144" y="41" on="0"/>
        <pt x="129" y="47" on="1"/>
        <pt x="96" y="59" on="0"/>
        <pt x="49" y="70" on="0"/>
        <pt x="18" y="91" on="0"/>
        <pt x="4" y="136" on="0"/>
        <pt x="4" y="184" on="1"/>
        <pt x="4" y="232" on="0"/>
        <pt x="22" y="291" on="0"/>
        <pt x="41" y="291" on="1"/>
        <pt x="50" y="291" on="0"/>
        <pt x="70" y="284" on="0"/>
        <pt x="90" y="275" on="0"/>
        <pt x="107" y="268" on="0"/>
        <pt x="113" y="268" on="1"/>
        <pt x="129" y="268" on="0"/>
        <pt x="150" y="300" on="0"/>
        <pt x="162" y="351" on="0"/>
        <pt x="166" y="414" on="0"/>
        <pt x="166" y="446" on="1"/>
        <pt x="166" y="505" on="0"/>
        <pt x="160" y="616" on="0"/>
        <pt x="160" y="647" on="1"/>
        <pt x="160" y="659" on="0"/>
        <pt x="164" y="680" on="0"/>
        <pt x="170" y="700" on="0"/>
        <pt x="174" y="724" on="0"/>
        <pt x="174" y="739" on="1"/>
        <pt x="174" y="781" on="0"/>
        <pt x="166" y="884" on="0"/>
        <pt x="166" y="932" on="1"/>
        <pt x="166" y="944" on="0"/>
        <pt x="169" y="982" on="0"/>
        <pt x="173" y="1022" on="0"/>
        <pt x="176" y="1059" on="0"/>
        <pt x="176" y="1071" on="1"/>
        <pt x="176" y="1082" on="0"/>
        <pt x="155" y="1091" on="0"/>
        <pt x="123" y="1096" on="0"/>
        <pt x="86" y="1101" on="0"/>
        <pt x="54" y="1117" on="0"/>
        <pt x="33" y="1147" on="0"/>
        <pt x="33" y="1174" on="1"/>
        <pt x="33" y="1197" on="0"/>
        <pt x="68" y="1238" on="0"/>
        <pt x="124" y="1274" on="0"/>
        <pt x="192" y="1305" on="0"/>
        <pt x="258" y="1330" on="0"/>
        <pt x="316" y="1349" on="0"/>
        <pt x="332" y="1356" on="1"/>
        <pt x="366" y="1370" on="0"/>
        <pt x="425" y="1401" on="0"/>
        <pt x="442" y="1401" on="1"/>
        <pt x="459" y="1401" on="0"/>
        <pt x="486" y="1386" on="0"/>
        <pt x="502" y="1386" on="1"/>
        <pt x="514" y="1387" on="0"/>
        <pt x="538" y="1398" on="0"/>
        <pt x="564" y="1410" on="0"/>
        <pt x="592" y="1419" on="0"/>
        <pt x="608" y="1419" on="1"/>
        <pt x="631" y="1419" on="0"/>
        <pt x="664" y="1407" on="0"/>
        <pt x="691" y="1389" on="0"/>
        <pt x="717" y="1369" on="0"/>
        <pt x="735" y="1362" on="1"/>
        <pt x="754" y="1353" on="0"/>
        <pt x="794" y="1350" on="0"/>
        <pt x="811" y="1343" on="1"/>
        <pt x="853" y="1326" on="0"/>
        <pt x="920" y="1289" on="0"/>
        <pt x="977" y="1245" on="0"/>
        <pt x="1027" y="1192" on="0"/>
        <pt x="1053" y="1159" on="1"/>
        <pt x="1071" y="1136" on="0"/>
        <pt x="1121" y="1097" on="0"/>
        <pt x="1135" y="1077" on="1"/>
        <pt x="1145" y="1062" on="0"/>
        <pt x="1169" y="1014" on="0"/>
        <pt x="1192" y="960" on="0"/>
        <pt x="1214" y="905" on="0"/>
        <pt x="1223" y="881" on="1"/>
        <pt x="1233" y="853" on="0"/>
        <pt x="1258" y="782" on="0"/>
        <pt x="1281" y="702" on="0"/>
        <pt x="1296" y="618" on="0"/>
      </contour>
      <contour>
        <pt x="868" y="559" on="1"/>
        <pt x="877" y="596" on="0"/>
        <pt x="877" y="629" on="1"/>
        <pt x="877" y="656" on="0"/>
        <pt x="868" y="706" on="0"/>
        <pt x="855" y="753" on="0"/>
        <pt x="842" y="800" on="0"/>
        <pt x="838" y="825" on="1"/>
        <pt x="833" y="851" on="0"/>
        <pt x="828" y="901" on="0"/>
        <pt x="821" y="947" on="0"/>
        <pt x="809" y="989" on="0"/>
        <pt x="799" y="1008" on="1"/>
        <pt x="793" y="1019" on="0"/>
        <pt x="771" y="1040" on="0"/>
        <pt x="762" y="1053" on="1"/>
        <pt x="751" y="1065" on="0"/>
        <pt x="738" y="1094" on="0"/>
        <pt x="729" y="1102" on="1"/>
        <pt x="721" y="1110" on="0"/>
        <pt x="679" y="1125" on="0"/>
        <pt x="659" y="1141" on="1"/>
        <pt x="641" y="1155" on="0"/>
        <pt x="619" y="1184" on="0"/>
        <pt x="597" y="1208" on="0"/>
        <pt x="570" y="1223" on="0"/>
        <pt x="549" y="1223" on="1"/>
        <pt x="534" y="1223" on="0"/>
        <pt x="503" y="1217" on="0"/>
        <pt x="478" y="1209" on="0"/>
        <pt x="463" y="1200" on="0"/>
        <pt x="463" y="1196" on="1"/>
        <pt x="463" y="1188" on="0"/>
        <pt x="465" y="1160" on="0"/>
        <pt x="468" y="1132" on="0"/>
        <pt x="471" y="1107" on="0"/>
        <pt x="471" y="1102" on="1"/>
        <pt x="468" y="1045" on="0"/>
        <pt x="459" y="910" on="0"/>
        <pt x="459" y="848" on="1"/>
        <pt x="459" y="810" on="0"/>
        <pt x="468" y="747" on="0"/>
        <pt x="480" y="687" on="0"/>
        <pt x="493" y="625" on="0"/>
        <pt x="496" y="590" on="1"/>
        <pt x="501" y="536" on="0"/>
        <pt x="520" y="439" on="0"/>
        <pt x="520" y="403" on="1"/>
        <pt x="520" y="376" on="0"/>
        <pt x="514" y="313" on="0"/>
        <pt x="514" y="281" on="1"/>
        <pt x="514" y="251" on="0"/>
        <pt x="520" y="223" on="1"/>
        <pt x="536" y="225" on="0"/>
        <pt x="566" y="225" on="0"/>
        <pt x="580" y="225" on="1"/>
        <pt x="612" y="225" on="1"/>
        <pt x="637" y="225" on="0"/>
        <pt x="684" y="229" on="0"/>
        <pt x="727" y="249" on="0"/>
        <pt x="767" y="290" on="0"/>
        <pt x="786" y="326" on="1"/>
        <pt x="790" y="333" on="0"/>
        <pt x="799" y="358" on="0"/>
        <pt x="808" y="390" on="0"/>
        <pt x="819" y="426" on="0"/>
        <pt x="825" y="444" on="1"/>
        <pt x="835" y="473" on="0"/>
        <pt x="862" y="533" on="0"/>
      </contour>
    </TTGlyph>
    <TTGlyph name="Dcaron" xMin="4" yMin="-61" xMax="1298" yMax="1903">
      <component glyphName="D" x="0" y="0" flags="0x204"/>
      <component glyphName="caron" x="377" y="301" flags="0x4"/>
    </TTGlyph>
    <TTGlyph name="Dcroat" xMin="-27" yMin="-61" xMax="1475" yMax="1419">
      <component glyphName="Eth" x="0" y="0" flags="0x204"/>
    </TTGlyph>
    <TTGlyph name="E" xMin="8" yMin="-57" xMax="1153" yMax="1370">
      <contour>
        <pt x="1141" y="262" on="1"/>
        <pt x="1138" y="253" on="0"/>
        <pt x="1124" y="239" on="0"/>
        <pt x="1122" y="229" on="1"/>
        <pt x="1118" y="216" on="0"/>
        <pt x="1116" y="189" on="0"/>
        <pt x="1111" y="163" on="0"/>
        <pt x="1101" y="139" on="0"/>
        <pt x="1090" y="129" on="1"/>
        <pt x="1078" y="118" on="0"/>
        <pt x="1034" y="104" on="0"/>
        <pt x="983" y="92" on="0"/>
        <pt x="932" y="80" on="0"/>
        <pt x="913" y="72" on="1"/>
        <pt x="898" y="65" on="0"/>
        <pt x="870" y="40" on="0"/>
        <pt x="840" y="13" on="0"/>
        <pt x="807" y="-11" on="0"/>
        <pt x="786" y="-16" on="1"/>
        <pt x="771" y="-21" on="0"/>
        <pt x="725" y="-26" on="0"/>
        <pt x="705" y="-29" on="1"/>
        <pt x="685" y="-33" on="0"/>
        <pt x="630" y="-42" on="0"/>
        <pt x="567" y="-51" on="0"/>
        <pt x="500" y="-57" on="0"/>
        <pt x="469" y="-57" on="1"/>
        <pt x="437" y="-57" on="0"/>
        <pt x="400" y="-48" on="0"/>
        <pt x="374" y="-34" on="0"/>
        <pt x="350" y="-17" on="0"/>
        <pt x="332" y="-10" on="1"/>
        <pt x="304" y="-1" on="0"/>
        <pt x="246" y="5" on="0"/>
        <pt x="188" y="17" on="0"/>
        <pt x="130" y="43" on="0"/>
        <pt x="102" y="72" on="1"/>
        <pt x="99" y="75" on="0"/>
        <pt x="93" y="90" on="0"/>
        <pt x="87" y="108" on="0"/>
        <pt x="81" y="124" on="0"/>
        <pt x="78" y="129" on="1"/>
        <pt x="68" y="143" on="0"/>
        <pt x="43" y="162" on="0"/>
        <pt x="22" y="181" on="0"/>
        <pt x="8" y="205" on="0"/>
        <pt x="8" y="223" on="1"/>
        <pt x="8" y="236" on="0"/>
        <pt x="26" y="265" on="0"/>
        <pt x="52" y="289" on="0"/>
        <pt x="82" y="305" on="0"/>
        <pt x="94" y="305" on="1"/>
        <pt x="109" y="305" on="1"/>
        <pt x="122" y="305" on="0"/>
        <pt x="139" y="319" on="0"/>
        <pt x="149" y="339" on="0"/>
        <pt x="154" y="363" on="0"/>
        <pt x="154" y="373" on="1"/>
        <pt x="154" y="394" on="0"/>
        <pt x="147" y="448" on="0"/>
        <pt x="147" y="483" on="1"/>
        <pt x="147" y="500" on="0"/>
        <pt x="150" y="535" on="0"/>
        <pt x="150" y="551" on="1"/>
        <pt x="150" y="576" on="0"/>
        <pt x="137" y="610" on="0"/>
        <pt x="135" y="629" on="1"/>
        <pt x="130" y="675" on="0"/>
        <pt x="125" y="785" on="0"/>
        <pt x="125" y="844" on="1"/>
        <pt x="125" y="871" on="0"/>
        <pt x="129" y="929" on="0"/>
        <pt x="133" y="985" on="0"/>
        <pt x="137" y="1036" on="0"/>
        <pt x="137" y="1055" on="1"/>
        <pt x="137" y="1067" on="0"/>
        <pt x="106" y="1081" on="0"/>
        <pt x="70" y="1103" on="0"/>
        <pt x="39" y="1142" on="0"/>
        <pt x="39" y="1180" on="1"/>
        <pt x="39" y="1220" on="0"/>
        <pt x="96" y="1288" on="0"/>
        <pt x="178" y="1339" on="0"/>
        <pt x="270" y="1368" on="0"/>
        <pt x="305" y="1368" on="1"/>
        <pt x="365" y="1368" on="0"/>
        <pt x="495" y="1348" on="0"/>
        <pt x="561" y="1348" on="1"/>
        <pt x="574" y="1348" on="0"/>
        <pt x="608" y="1355" on="0"/>
        <pt x="651" y="1363" on="0"/>
        <pt x="703" y="1370" on="0"/>
        <pt x="735" y="1370" on="1"/>
        <pt x="755" y="1370" on="0"/>
        <pt x="779" y="1360" on="0"/>
        <pt x="800" y="1345" on="0"/>
        <pt x="821" y="1326" on="0"/>
        <pt x="838" y="1317" on="1"/>
        <pt x="849" y="1311" on="0"/>
        <pt x="881" y="1305" on="0"/>
        <pt x="893" y="1298" on="1"/>
        <pt x="907" y="1292" on="0"/>
        <pt x="929" y="1277" on="0"/>
        <pt x="938" y="1274" on="1"/>
        <pt x="972" y="1262" on="0"/>
        <pt x="1027" y="1254" on="0"/>
        <pt x="1065" y="1237" on="0"/>
        <pt x="1085" y="1200" on="0"/>
        <pt x="1085" y="1161" on="1"/>
        <pt x="1085" y="1106" on="0"/>
        <pt x="1060" y="1048" on="0"/>
        <pt x="1010" y="1021" on="0"/>
        <pt x="936" y="1013" on="0"/>
        <pt x="887" y="1008" on="1"/>
        <pt x="843" y="1003" on="0"/>
        <pt x="758" y="997" on="0"/>
        <pt x="709" y="997" on="1"/>
        <pt x="650" y="997" on="0"/>
        <pt x="506" y="1012" on="0"/>
        <pt x="434" y="1012" on="1"/>
        <pt x="415" y="1012" on="0"/>
        <pt x="391" y="1010" on="0"/>
        <pt x="378" y="998" on="0"/>
        <pt x="373" y="972" on="0"/>
        <pt x="373" y="948" on="1"/>
        <pt x="373" y="931" on="0"/>
        <pt x="376" y="895" on="0"/>
        <pt x="380" y="863" on="0"/>
        <pt x="385" y="841" on="0"/>
        <pt x="387" y="838" on="1"/>
        <pt x="396" y="828" on="0"/>
        <pt x="448" y="817" on="0"/>
        <pt x="510" y="812" on="0"/>
        <pt x="571" y="811" on="0"/>
        <pt x="590" y="811" on="1"/>
        <pt x="613" y="811" on="0"/>
        <pt x="650" y="821" on="0"/>
        <pt x="683" y="834" on="0"/>
        <pt x="712" y="844" on="0"/>
        <pt x="727" y="844" on="1"/>
        <pt x="743" y="844" on="0"/>
        <pt x="760" y="838" on="0"/>
        <pt x="770" y="829" on="0"/>
        <pt x="775" y="820" on="0"/>
        <pt x="780" y="817" on="1"/>
        <pt x="792" y="809" on="0"/>
        <pt x="806" y="797" on="0"/>
        <pt x="814" y="783" on="0"/>
        <pt x="817" y="762" on="0"/>
        <pt x="817" y="745" on="1"/>
        <pt x="817" y="688" on="0"/>
        <pt x="801" y="626" on="0"/>
        <pt x="752" y="595" on="0"/>
        <pt x="663" y="586" on="0"/>
        <pt x="590" y="584" on="1"/>
        <pt x="563" y="583" on="0"/>
        <pt x="529" y="580" on="0"/>
        <pt x="511" y="571" on="0"/>
        <pt x="504" y="555" on="0"/>
        <pt x="504" y="541" on="1"/>
        <pt x="504" y="494" on="0"/>
        <pt x="503" y="431" on="0"/>
        <pt x="519" y="392" on="0"/>
        <pt x="561" y="375" on="0"/>
        <pt x="604" y="375" on="1"/>
        <pt x="637" y="375" on="0"/>
        <pt x="707" y="381" on="0"/>
        <pt x="777" y="390" on="0"/>
        <pt x="844" y="402" on="0"/>
        <pt x="874" y="408" on="1"/>
        <pt x="899" y="413" on="0"/>
        <pt x="941" y="429" on="0"/>
        <pt x="980" y="444" on="0"/>
        <pt x="1020" y="455" on="0"/>
        <pt x="1042" y="455" on="1"/>
        <pt x="1096" y="455" on="0"/>
        <pt x="1153" y="393" on="0"/>
        <pt x="1153" y="334" on="1"/>
        <pt x="1153" y="317" on="0"/>
        <pt x="1147" y="279" on="0"/>
      </contour>
    </TTGlyph>
    <TTGlyph name="Eacute" xMin="8" yMin="-57" xMax="1153" yMax="1796">
      <component glyphName="E" x="0" y="0" flags="0x204"/>
      <component glyphName="acute" x="463" y="182" flags="0x4"/>
    </TTGlyph>
    <TTGlyph name="Ebreve" xMin="8" yMin="-57" xMax="1153" yMax="1819">
      <component glyphName="E" x="0" y="0" flags="0x204"/>
      <component glyphName="breve" x="293" y="211" flags="0x4"/>
    </TTGlyph>
    <TTGlyph name="Ecaron" xMin="8" yMin="-57" xMax="1153" yMax="1831">
      <component glyphName="E" x="0" y="0" flags="0x204"/>
      <component glyphName="caron" x="287" y="229" flags="0x4"/>
    </TTGlyph>
    <TTGlyph name="Ecircumflex" xMin="8" yMin="-57" xMax="1153" yMax="1849">
      <component glyphName="E" x="0" y="0" flags="0x204"/>
      <component glyphName="circumflex" x="299" y="233" flags="0x4"/>
    </TTGlyph>
    <TTGlyph name="Edieresis" xMin="8" yMin="-57" xMax="1153" yMax="1681">
      <component glyphName="E" x="0" y="0" flags="0x204"/>
      <component glyphName="dieresis" x="266" y="176" flags="0x4"/>
    </TTGlyph>
    <TTGlyph name="Edotaccent" xMin="8" yMin="-57" xMax="1153" yMax="1671">
      <component glyphName="E" x="0" y="0" flags="0x204"/>
      <component glyphName="dotaccent" x="424" y="176" flags="0x4"/>
    </TTGlyph>
    <TTGlyph name="Egrave" xMin="8" yMin="-57" xMax="1153" yMax="1800">
      <component glyphName="E" x="0" y="0" flags="0x204"/>
      <component glyphName="grave" x="180" y="186" flags="0x4"/>
    </TTGlyph>
    <TTGlyph name="Emacron" xMin="8" yMin="-57" xMax="1153" yMax="1680">
      <component glyphName="E" x="0" y="0" flags="0x204"/>
      <component glyphName="macron" x="319" y="201" flags="0x4"/>
    </TTGlyph>
    <TTGlyph name="Eng" xMin="74" yMin="-571" xMax="1108" yMax="1524">
      <contour>
        <pt x="1106" y="514" on="1"/>
        <pt x="1106" y="506" on="0"/>
        <pt x="1108" y="491" on="0"/>
        <pt x="1108" y="483" on="1"/>
        <pt x="1108" y="440" on="0"/>
        <pt x="1094" y="347" on="0"/>
        <pt x="1094" y="299" on="1"/>
        <pt x="1094" y="282" on="0"/>
        <pt x="1096" y="243" on="0"/>
        <pt x="1096" y="223" on="1"/>
        <pt x="1096" y="197" on="0"/>
        <pt x="1088" y="145" on="0"/>
        <pt x="1077" y="125" on="1"/>
        <pt x="1075" y="111" on="0"/>
        <pt x="1071" y="82" on="0"/>
        <pt x="1071" y="68" on="1"/>
        <pt x="1071" y="49" on="0"/>
        <pt x="1077" y="15" on="0"/>
        <pt x="1077" y="0" on="1"/>
        <pt x="1077" y="-19" on="0"/>
        <pt x="1064" y="-52" on="0"/>
        <pt x="1059" y="-72" on="1"/>
        <pt x="1055" y="-93" on="0"/>
        <pt x="1053" y="-139" on="0"/>
        <pt x="1051" y="-185" on="0"/>
        <pt x="1048" y="-227" on="0"/>
        <pt x="1044" y="-244" on="1"/>
        <pt x="1041" y="-256" on="0"/>
        <pt x="1044" y="-284" on="0"/>
        <pt x="1046" y="-314" on="0"/>
        <pt x="1044" y="-343" on="0"/>
        <pt x="1036" y="-356" on="1"/>
        <pt x="1030" y="-367" on="0"/>
        <pt x="1023" y="-393" on="0"/>
        <pt x="1017" y="-420" on="0"/>
        <pt x="1011" y="-443" on="0"/>
        <pt x="1006" y="-451" on="1"/>
        <pt x="997" y="-463" on="0"/>
        <pt x="965" y="-482" on="0"/>
        <pt x="925" y="-498" on="0"/>
        <pt x="884" y="-510" on="0"/>
        <pt x="866" y="-514" on="1"/>
        <pt x="829" y="-524" on="0"/>
        <pt x="767" y="-544" on="0"/>
        <pt x="708" y="-561" on="0"/>
        <pt x="646" y="-571" on="0"/>
        <pt x="610" y="-571" on="1"/>
        <pt x="571" y="-571" on="0"/>
        <pt x="491" y="-562" on="0"/>
        <pt x="417" y="-545" on="0"/>
        <pt x="352" y="-522" on="0"/>
        <pt x="328" y="-508" on="1"/>
        <pt x="317" y="-502" on="0"/>
        <pt x="287" y="-496" on="0"/>
        <pt x="279" y="-489" on="1"/>
        <pt x="260" y="-475" on="0"/>
        <pt x="206" y="-460" on="0"/>
        <pt x="152" y="-444" on="0"/>
        <pt x="108" y="-419" on="0"/>
        <pt x="100" y="-393" on="1"/>
        <pt x="91" y="-364" on="0"/>
        <pt x="74" y="-296" on="0"/>
        <pt x="74" y="-270" on="1"/>
        <pt x="74" y="-253" on="0"/>
        <pt x="88" y="-234" on="0"/>
        <pt x="108" y="-219" on="0"/>
        <pt x="131" y="-203" on="0"/>
        <pt x="139" y="-190" on="1"/>
        <pt x="148" y="-177" on="0"/>
        <pt x="156" y="-146" on="0"/>
        <pt x="165" y="-117" on="0"/>
        <pt x="177" y="-91" on="0"/>
        <pt x="190" y="-82" on="1"/>
        <pt x="201" y="-74" on="0"/>
        <pt x="227" y="-69" on="0"/>
        <pt x="254" y="-67" on="0"/>
        <pt x="283" y="-66" on="0"/>
        <pt x="297" y="-63" on="1"/>
        <pt x="319" y="-58" on="0"/>
        <pt x="346" y="-45" on="0"/>
        <pt x="360" y="-45" on="1"/>
        <pt x="388" y="-45" on="0"/>
        <pt x="432" y="-66" on="0"/>
        <pt x="455" y="-76" on="1"/>
        <pt x="483" y="-88" on="0"/>
        <pt x="526" y="-113" on="0"/>
        <pt x="561" y="-144" on="0"/>
        <pt x="591" y="-186" on="0"/>
        <pt x="606" y="-215" on="1"/>
        <pt x="618" y="-238" on="0"/>
        <pt x="628" y="-266" on="0"/>
        <pt x="631" y="-294" on="0"/>
        <pt x="631" y="-330" on="0"/>
        <pt x="633" y="-360" on="1"/>
        <pt x="633" y="-376" on="0"/>
        <pt x="644" y="-392" on="0"/>
        <pt x="662" y="-398" on="0"/>
        <pt x="683" y="-397" on="0"/>
        <pt x="694" y="-397" on="1"/>
        <pt x="713" y="-397" on="0"/>
        <pt x="741" y="-371" on="0"/>
        <pt x="761" y="-331" on="0"/>
        <pt x="776" y="-282" on="0"/>
        <pt x="790" y="-235" on="0"/>
        <pt x="805" y="-196" on="0"/>
        <pt x="815" y="-186" on="1"/>
        <pt x="821" y="-180" on="0"/>
        <pt x="821" y="-160" on="1"/>
        <pt x="821" y="-129" on="0"/>
        <pt x="813" y="-78" on="0"/>
        <pt x="813" y="-53" on="1"/>
        <pt x="813" y="-32" on="0"/>
        <pt x="795" y="10" on="0"/>
        <pt x="768" y="53" on="0"/>
        <pt x="739" y="96" on="0"/>
        <pt x="727" y="119" on="1"/>
        <pt x="716" y="123" on="0"/>
        <pt x="707" y="136" on="0"/>
        <pt x="701" y="154" on="0"/>
        <pt x="696" y="178" on="0"/>
        <pt x="690" y="193" on="1"/>
        <pt x="685" y="201" on="0"/>
        <pt x="665" y="217" on="0"/>
        <pt x="657" y="229" on="1"/>
        <pt x="649" y="242" on="0"/>
        <pt x="640" y="264" on="0"/>
        <pt x="631" y="283" on="0"/>
        <pt x="618" y="301" on="0"/>
        <pt x="606" y="311" on="1"/>
        <pt x="594" y="320" on="0"/>
        <pt x="579" y="332" on="0"/>
        <pt x="567" y="344" on="0"/>
        <pt x="554" y="360" on="0"/>
        <pt x="545" y="375" on="1"/>
        <pt x="529" y="396" on="0"/>
        <pt x="503" y="446" on="0"/>
        <pt x="487" y="471" on="1"/>
        <pt x="470" y="496" on="0"/>
        <pt x="424" y="533" on="0"/>
        <pt x="412" y="553" on="1"/>
        <pt x="402" y="568" on="0"/>
        <pt x="385" y="605" on="0"/>
        <pt x="370" y="646" on="0"/>
        <pt x="356" y="687" on="0"/>
        <pt x="348" y="705" on="1"/>
        <pt x="351" y="626" on="0"/>
        <pt x="349" y="466" on="0"/>
        <pt x="354" y="387" on="1"/>
        <pt x="356" y="353" on="0"/>
        <pt x="367" y="296" on="0"/>
        <pt x="367" y="262" on="1"/>
        <pt x="367" y="233" on="0"/>
        <pt x="347" y="156" on="0"/>
        <pt x="342" y="111" on="1"/>
        <pt x="338" y="77" on="0"/>
        <pt x="335" y="29" on="0"/>
        <pt x="319" y="-2" on="0"/>
        <pt x="283" y="-16" on="0"/>
        <pt x="246" y="-16" on="1"/>
        <pt x="235" y="-16" on="0"/>
        <pt x="207" y="-13" on="0"/>
        <pt x="180" y="-7" on="0"/>
        <pt x="157" y="-1" on="0"/>
        <pt x="152" y="2" on="1"/>
        <pt x="147" y="5" on="0"/>
        <pt x="135" y="36" on="0"/>
        <pt x="127" y="47" on="1"/>
        <pt x="118" y="57" on="0"/>
        <pt x="104" y="73" on="0"/>
        <pt x="94" y="93" on="0"/>
        <pt x="88" y="122" on="0"/>
        <pt x="88" y="145" on="1"/>
        <pt x="88" y="195" on="0"/>
        <pt x="100" y="302" on="0"/>
        <pt x="100" y="350" on="1"/>
        <pt x="100" y="370" on="0"/>
        <pt x="86" y="430" on="0"/>
        <pt x="86" y="461" on="1"/>
        <pt x="86" y="501" on="0"/>
        <pt x="88" y="578" on="0"/>
        <pt x="88" y="616" on="1"/>
        <pt x="88" y="685" on="0"/>
        <pt x="74" y="818" on="0"/>
        <pt x="74" y="883" on="1"/>
        <pt x="74" y="908" on="0"/>
        <pt x="85" y="950" on="0"/>
        <pt x="98" y="993" on="0"/>
        <pt x="109" y="1043" on="0"/>
        <pt x="109" y="1077" on="1"/>
        <pt x="109" y="1090" on="0"/>
        <pt x="106" y="1116" on="0"/>
        <pt x="106" y="1128" on="1"/>
        <pt x="106" y="1193" on="0"/>
        <pt x="181" y="1257" on="0"/>
        <pt x="244" y="1257" on="1"/>
        <pt x="272" y="1257" on="0"/>
        <pt x="342" y="1245" on="0"/>
        <pt x="407" y="1227" on="0"/>
        <pt x="458" y="1204" on="0"/>
        <pt x="467" y="1192" on="1"/>
        <pt x="476" y="1181" on="0"/>
        <pt x="483" y="1139" on="0"/>
        <pt x="494" y="1122" on="1"/>
        <pt x="506" y="1102" on="0"/>
        <pt x="543" y="1071" on="0"/>
        <pt x="551" y="1059" on="1"/>
        <pt x="556" y="1051" on="0"/>
        <pt x="560" y="1020" on="0"/>
        <pt x="569" y="1001" on="1"/>
        <pt x="576" y="987" on="0"/>
        <pt x="607" y="955" on="0"/>
        <pt x="621" y="938" on="1"/>
        <pt x="633" y="923" on="0"/>
        <pt x="653" y="887" on="0"/>
        <pt x="664" y="874" on="1"/>
        <pt x="691" y="844" on="0"/>
        <pt x="750" y="796" on="0"/>
        <pt x="772" y="768" on="1"/>
        <pt x="789" y="745" on="0"/>
        <pt x="815" y="695" on="0"/>
        <pt x="836" y="653" on="0"/>
        <pt x="852" y="625" on="0"/>
        <pt x="860" y="625" on="1"/>
        <pt x="868" y="625" on="0"/>
        <pt x="872" y="660" on="0"/>
        <pt x="872" y="686" on="1"/>
        <pt x="872" y="705" on="0"/>
        <pt x="870" y="749" on="0"/>
        <pt x="868" y="790" on="0"/>
        <pt x="866" y="823" on="0"/>
        <pt x="866" y="831" on="1"/>
        <pt x="866" y="847" on="0"/>
        <pt x="879" y="883" on="0"/>
        <pt x="879" y="909" on="1"/>
        <pt x="879" y="950" on="0"/>
        <pt x="870" y="1038" on="0"/>
        <pt x="870" y="1083" on="1"/>
        <pt x="870" y="1114" on="0"/>
        <pt x="881" y="1170" on="0"/>
        <pt x="894" y="1221" on="0"/>
        <pt x="905" y="1270" on="0"/>
        <pt x="905" y="1294" on="1"/>
        <pt x="905" y="1319" on="0"/>
        <pt x="898" y="1359" on="0"/>
        <pt x="890" y="1394" on="0"/>
        <pt x="883" y="1425" on="0"/>
        <pt x="883" y="1440" on="1"/>
        <pt x="883" y="1456" on="0"/>
        <pt x="895" y="1486" on="0"/>
        <pt x="916" y="1510" on="0"/>
        <pt x="947" y="1524" on="0"/>
        <pt x="967" y="1524" on="1"/>
        <pt x="971" y="1524" on="0"/>
        <pt x="1008" y="1519" on="0"/>
        <pt x="1049" y="1494" on="0"/>
        <pt x="1081" y="1442" on="0"/>
        <pt x="1081" y="1395" on="1"/>
        <pt x="1081" y="1375" on="0"/>
        <pt x="1075" y="1333" on="0"/>
        <pt x="1075" y="1307" on="1"/>
        <pt x="1075" y="1259" on="0"/>
        <pt x="1082" y="1166" on="0"/>
        <pt x="1091" y="1079" on="0"/>
        <pt x="1098" y="998" on="0"/>
        <pt x="1098" y="963" on="1"/>
        <pt x="1098" y="903" on="0"/>
        <pt x="1085" y="790" on="0"/>
        <pt x="1085" y="750" on="1"/>
        <pt x="1085" y="691" on="0"/>
        <pt x="1101" y="567" on="0"/>
      </contour>
    </TTGlyph>
    <TTGlyph name="Eogonek" xMin="8" yMin="-344" xMax="1153" yMax="1370">
      <contour>
        <pt x="1071" y="-217" on="1"/>
        <pt x="1067" y="-234" on="0"/>
        <pt x="1035" y="-268" on="0"/>
        <pt x="995" y="-298" on="0"/>
        <pt x="957" y="-320" on="0"/>
        <pt x="948" y="-324" on="1"/>
        <pt x="940" y="-326" on="0"/>
        <pt x="914" y="-325" on="0"/>
        <pt x="903" y="-328" on="1"/>
        <pt x="889" y="-336" on="0"/>
        <pt x="877" y="-344" on="0"/>
        <pt x="864" y="-344" on="1"/>
        <pt x="852" y="-344" on="0"/>
        <pt x="827" y="-338" on="0"/>
        <pt x="815" y="-338" on="1"/>
        <pt x="793" y="-338" on="0"/>
        <pt x="775" y="-342" on="0"/>
        <pt x="766" y="-342" on="1"/>
        <pt x="755" y="-342" on="0"/>
        <pt x="709" y="-330" on="0"/>
        <pt x="658" y="-309" on="0"/>
        <pt x="612" y="-280" on="0"/>
        <pt x="600" y="-262" on="1"/>
        <pt x="594" y="-251" on="0"/>
        <pt x="590" y="-217" on="0"/>
        <pt x="590" y="-197" on="1"/>
        <pt x="590" y="-158" on="0"/>
        <pt x="599" y="-108" on="0"/>
        <pt x="616" y="-75" on="0"/>
        <pt x="638" y="-52" on="0"/>
        <pt x="651" y="-39" on="1"/>
        <pt x="611" y="-45" on="0"/>
        <pt x="515" y="-57" on="0"/>
        <pt x="469" y="-57" on="1"/>
        <pt x="437" y="-57" on="0"/>
        <pt x="400" y="-48" on="0"/>
        <pt x="374" y="-34" on="0"/>
        <pt x="350" y="-17" on="0"/>
        <pt x="332" y="-10" on="1"/>
        <pt x="304" y="-1" on="0"/>
        <pt x="246" y="5" on="0"/>
        <pt x="188" y="17" on="0"/>
        <pt x="130" y="43" on="0"/>
        <pt x="102" y="72" on="1"/>
        <pt x="99" y="75" on="0"/>
        <pt x="93" y="90" on="0"/>
        <pt x="87" y="108" on="0"/>
        <pt x="81" y="124" on="0"/>
        <pt x="78" y="129" on="1"/>
        <pt x="68" y="143" on="0"/>
        <pt x="43" y="162" on="0"/>
        <pt x="22" y="181" on="0"/>
        <pt x="8" y="205" on="0"/>
        <pt x="8" y="223" on="1"/>
        <pt x="8" y="236" on="0"/>
        <pt x="26" y="265" on="0"/>
        <pt x="52" y="289" on="0"/>
        <pt x="82" y="305" on="0"/>
        <pt x="94" y="305" on="1"/>
        <pt x="109" y="305" on="1"/>
        <pt x="122" y="305" on="0"/>
        <pt x="139" y="319" on="0"/>
        <pt x="149" y="339" on="0"/>
        <pt x="154" y="363" on="0"/>
        <pt x="154" y="373" on="1"/>
        <pt x="154" y="394" on="0"/>
        <pt x="147" y="448" on="0"/>
        <pt x="147" y="483" on="1"/>
        <pt x="147" y="500" on="0"/>
        <pt x="150" y="535" on="0"/>
        <pt x="150" y="551" on="1"/>
        <pt x="150" y="576" on="0"/>
        <pt x="137" y="610" on="0"/>
        <pt x="135" y="629" on="1"/>
        <pt x="130" y="675" on="0"/>
        <pt x="125" y="785" on="0"/>
        <pt x="125" y="844" on="1"/>
        <pt x="125" y="871" on="0"/>
        <pt x="129" y="929" on="0"/>
        <pt x="133" y="985" on="0"/>
        <pt x="137" y="1036" on="0"/>
        <pt x="137" y="1055" on="1"/>
        <pt x="137" y="1067" on="0"/>
        <pt x="106" y="1081" on="0"/>
        <pt x="70" y="1103" on="0"/>
        <pt x="39" y="1142" on="0"/>
        <pt x="39" y="1180" on="1"/>
        <pt x="39" y="1220" on="0"/>
        <pt x="96" y="1288" on="0"/>
        <pt x="178" y="1339" on="0"/>
        <pt x="270" y="1368" on="0"/>
        <pt x="305" y="1368" on="1"/>
        <pt x="365" y="1368" on="0"/>
        <pt x="495" y="1348" on="0"/>
        <pt x="561" y="1348" on="1"/>
        <pt x="574" y="1348" on="0"/>
        <pt x="608" y="1355" on="0"/>
        <pt x="651" y="1363" on="0"/>
        <pt x="703" y="1370" on="0"/>
        <pt x="735" y="1370" on="1"/>
        <pt x="755" y="1370" on="0"/>
        <pt x="779" y="1360" on="0"/>
        <pt x="800" y="1345" on="0"/>
        <pt x="821" y="1326" on="0"/>
        <pt x="838" y="1317" on="1"/>
        <pt x="849" y="1311" on="0"/>
        <pt x="881" y="1305" on="0"/>
        <pt x="893" y="1298" on="1"/>
        <pt x="907" y="1292" on="0"/>
        <pt x="929" y="1277" on="0"/>
        <pt x="938" y="1274" on="1"/>
        <pt x="972" y="1262" on="0"/>
        <pt x="1027" y="1254" on="0"/>
        <pt x="1065" y="1237" on="0"/>
        <pt x="1085" y="1200" on="0"/>
        <pt x="1085" y="1161" on="1"/>
        <pt x="1085" y="1106" on="0"/>
        <pt x="1060" y="1048" on="0"/>
        <pt x="1010" y="1021" on="0"/>
        <pt x="936" y="1013" on="0"/>
        <pt x="887" y="1008" on="1"/>
        <pt x="843" y="1003" on="0"/>
        <pt x="758" y="997" on="0"/>
        <pt x="709" y="997" on="1"/>
        <pt x="650" y="997" on="0"/>
        <pt x="506" y="1012" on="0"/>
        <pt x="434" y="1012" on="1"/>
        <pt x="415" y="1012" on="0"/>
        <pt x="391" y="1010" on="0"/>
        <pt x="378" y="998" on="0"/>
        <pt x="373" y="972" on="0"/>
        <pt x="373" y="948" on="1"/>
        <pt x="373" y="931" on="0"/>
        <pt x="376" y="895" on="0"/>
        <pt x="380" y="863" on="0"/>
        <pt x="385" y="841" on="0"/>
        <pt x="387" y="838" on="1"/>
        <pt x="396" y="828" on="0"/>
        <pt x="448" y="817" on="0"/>
        <pt x="510" y="812" on="0"/>
        <pt x="571" y="811" on="0"/>
        <pt x="590" y="811" on="1"/>
        <pt x="613" y="811" on="0"/>
        <pt x="650" y="821" on="0"/>
        <pt x="683" y="834" on="0"/>
        <pt x="712" y="844" on="0"/>
        <pt x="727" y="844" on="1"/>
        <pt x="743" y="844" on="0"/>
        <pt x="760" y="838" on="0"/>
        <pt x="770" y="829" on="0"/>
        <pt x="775" y="820" on="0"/>
        <pt x="780" y="817" on="1"/>
        <pt x="792" y="809" on="0"/>
        <pt x="806" y="797" on="0"/>
        <pt x="814" y="783" on="0"/>
        <pt x="817" y="762" on="0"/>
        <pt x="817" y="745" on="1"/>
        <pt x="817" y="688" on="0"/>
        <pt x="801" y="626" on="0"/>
        <pt x="752" y="595" on="0"/>
        <pt x="663" y="586" on="0"/>
        <pt x="590" y="584" on="1"/>
        <pt x="563" y="583" on="0"/>
        <pt x="529" y="580" on="0"/>
        <pt x="511" y="571" on="0"/>
        <pt x="504" y="555" on="0"/>
        <pt x="504" y="541" on="1"/>
        <pt x="504" y="494" on="0"/>
        <pt x="503" y="431" on="0"/>
        <pt x="519" y="392" on="0"/>
        <pt x="561" y="375" on="0"/>
        <pt x="604" y="375" on="1"/>
        <pt x="637" y="375" on="0"/>
        <pt x="707" y="381" on="0"/>
        <pt x="777" y="390" on="0"/>
        <pt x="844" y="402" on="0"/>
        <pt x="874" y="408" on="1"/>
        <pt x="899" y="413" on="0"/>
        <pt x="941" y="429" on="0"/>
        <pt x="980" y="444" on="0"/>
        <pt x="1020" y="455" on="0"/>
        <pt x="1042" y="455" on="1"/>
        <pt x="1096" y="455" on="0"/>
        <pt x="1153" y="393" on="0"/>
        <pt x="1153" y="334" on="1"/>
        <pt x="1153" y="317" on="0"/>
        <pt x="1147" y="279" on="0"/>
        <pt x="1141" y="262" on="1"/>
        <pt x="1138" y="253" on="0"/>
        <pt x="1124" y="239" on="0"/>
        <pt x="1122" y="229" on="1"/>
        <pt x="1118" y="216" on="0"/>
        <pt x="1116" y="189" on="0"/>
        <pt x="1111" y="163" on="0"/>
        <pt x="1101" y="139" on="0"/>
        <pt x="1090" y="129" on="1"/>
        <pt x="1078" y="118" on="0"/>
        <pt x="1034" y="104" on="0"/>
        <pt x="983" y="92" on="0"/>
        <pt x="932" y="80" on="0"/>
        <pt x="913" y="72" on="1"/>
        <pt x="901" y="65" on="0"/>
        <pt x="879" y="48" on="0"/>
        <pt x="866" y="37" on="1"/>
        <pt x="861" y="21" on="0"/>
        <pt x="830" y="4" on="0"/>
        <pt x="817" y="-14" on="1"/>
        <pt x="817" y="-15" on="0"/>
        <pt x="806" y="-39" on="0"/>
        <pt x="793" y="-71" on="0"/>
        <pt x="782" y="-102" on="0"/>
        <pt x="782" y="-109" on="1"/>
        <pt x="782" y="-113" on="0"/>
        <pt x="791" y="-113" on="1"/>
        <pt x="828" y="-113" on="0"/>
        <pt x="883" y="-92" on="0"/>
        <pt x="930" y="-68" on="0"/>
        <pt x="974" y="-47" on="0"/>
        <pt x="1001" y="-47" on="1"/>
        <pt x="1018" y="-47" on="0"/>
        <pt x="1045" y="-71" on="0"/>
        <pt x="1063" y="-113" on="0"/>
        <pt x="1073" y="-167" on="0"/>
        <pt x="1073" y="-197" on="1"/>
        <pt x="1073" y="-202" on="0"/>
        <pt x="1071" y="-212" on="0"/>
      </contour>
    </TTGlyph>
    <TTGlyph name="Eth" xMin="-27" yMin="-61" xMax="1475" yMax="1419">
      <contour>
        <pt x="1475" y="578" on="1"/>
        <pt x="1475" y="569" on="1"/>
        <pt x="1475" y="554" on="0"/>
        <pt x="1468" y="519" on="0"/>
        <pt x="1468" y="502" on="1"/>
        <pt x="1468" y="480" on="0"/>
        <pt x="1470" y="446" on="0"/>
        <pt x="1470" y="430" on="1"/>
        <pt x="1470" y="412" on="0"/>
        <pt x="1462" y="353" on="0"/>
        <pt x="1447" y="290" on="0"/>
        <pt x="1425" y="233" on="0"/>
        <pt x="1411" y="217" on="1"/>
        <pt x="1406" y="210" on="0"/>
        <pt x="1374" y="193" on="0"/>
        <pt x="1335" y="175" on="0"/>
        <pt x="1297" y="156" on="0"/>
        <pt x="1286" y="147" on="1"/>
        <pt x="1274" y="138" on="0"/>
        <pt x="1244" y="107" on="0"/>
        <pt x="1211" y="74" on="0"/>
        <pt x="1179" y="44" on="0"/>
        <pt x="1165" y="35" on="1"/>
        <pt x="1154" y="26" on="0"/>
        <pt x="1119" y="13" on="0"/>
        <pt x="1102" y="2" on="1"/>
        <pt x="1090" y="-6" on="0"/>
        <pt x="1075" y="-23" on="0"/>
        <pt x="1061" y="-37" on="0"/>
        <pt x="1046" y="-45" on="0"/>
        <pt x="1034" y="-45" on="1"/>
        <pt x="1015" y="-45" on="0"/>
        <pt x="965" y="-40" on="0"/>
        <pt x="909" y="-34" on="0"/>
        <pt x="851" y="-29" on="0"/>
        <pt x="823" y="-29" on="1"/>
        <pt x="801" y="-29" on="0"/>
        <pt x="760" y="-39" on="0"/>
        <pt x="723" y="-51" on="0"/>
        <pt x="691" y="-61" on="0"/>
        <pt x="678" y="-61" on="1"/>
        <pt x="647" y="-61" on="0"/>
        <pt x="570" y="-37" on="0"/>
        <pt x="532" y="-29" on="1"/>
        <pt x="516" y="-26" on="0"/>
        <pt x="476" y="-21" on="0"/>
        <pt x="435" y="-16" on="0"/>
        <pt x="396" y="-9" on="0"/>
        <pt x="381" y="-4" on="1"/>
        <pt x="372" y="-1" on="0"/>
        <pt x="358" y="11" on="0"/>
        <pt x="341" y="26" on="0"/>
        <pt x="320" y="41" on="0"/>
        <pt x="305" y="47" on="1"/>
        <pt x="272" y="59" on="0"/>
        <pt x="225" y="70" on="0"/>
        <pt x="194" y="91" on="0"/>
        <pt x="180" y="136" on="0"/>
        <pt x="180" y="184" on="1"/>
        <pt x="180" y="232" on="0"/>
        <pt x="199" y="291" on="0"/>
        <pt x="217" y="291" on="1"/>
        <pt x="226" y="291" on="0"/>
        <pt x="246" y="284" on="0"/>
        <pt x="266" y="275" on="0"/>
        <pt x="283" y="268" on="0"/>
        <pt x="289" y="268" on="1"/>
        <pt x="305" y="268" on="0"/>
        <pt x="326" y="300" on="0"/>
        <pt x="338" y="351" on="0"/>
        <pt x="342" y="414" on="0"/>
        <pt x="342" y="446" on="1"/>
        <pt x="342" y="466" on="0"/>
        <pt x="342" y="510" on="0"/>
        <pt x="340" y="530" on="1"/>
        <pt x="289" y="521" on="0"/>
        <pt x="190" y="508" on="0"/>
        <pt x="143" y="508" on="1"/>
        <pt x="111" y="508" on="0"/>
        <pt x="50" y="523" on="0"/>
        <pt x="2" y="551" on="0"/>
        <pt x="-27" y="591" on="0"/>
        <pt x="-27" y="616" on="1"/>
        <pt x="-27" y="642" on="0"/>
        <pt x="-9" y="691" on="0"/>
        <pt x="-4" y="719" on="1"/>
        <pt x="-2" y="734" on="0"/>
        <pt x="0" y="772" on="0"/>
        <pt x="3" y="810" on="0"/>
        <pt x="11" y="843" on="0"/>
        <pt x="20" y="852" on="1"/>
        <pt x="35" y="867" on="0"/>
        <pt x="103" y="879" on="0"/>
        <pt x="177" y="882" on="0"/>
        <pt x="242" y="879" on="0"/>
        <pt x="254" y="879" on="1"/>
        <pt x="274" y="879" on="0"/>
        <pt x="319" y="879" on="0"/>
        <pt x="342" y="877" on="1"/>
        <pt x="342" y="932" on="1"/>
        <pt x="342" y="944" on="0"/>
        <pt x="345" y="982" on="0"/>
        <pt x="349" y="1022" on="0"/>
        <pt x="352" y="1059" on="0"/>
        <pt x="352" y="1071" on="1"/>
        <pt x="352" y="1082" on="0"/>
        <pt x="331" y="1091" on="0"/>
        <pt x="299" y="1096" on="0"/>
        <pt x="262" y="1101" on="0"/>
        <pt x="230" y="1117" on="0"/>
        <pt x="209" y="1147" on="0"/>
        <pt x="209" y="1174" on="1"/>
        <pt x="209" y="1197" on="0"/>
        <pt x="244" y="1238" on="0"/>
        <pt x="300" y="1274" on="0"/>
        <pt x="368" y="1305" on="0"/>
        <pt x="434" y="1330" on="0"/>
        <pt x="492" y="1349" on="0"/>
        <pt x="508" y="1356" on="1"/>
        <pt x="542" y="1370" on="0"/>
        <pt x="601" y="1401" on="0"/>
        <pt x="618" y="1401" on="1"/>
        <pt x="635" y="1401" on="0"/>
        <pt x="662" y="1386" on="0"/>
        <pt x="678" y="1386" on="1"/>
        <pt x="690" y="1387" on="0"/>
        <pt x="714" y="1398" on="0"/>
        <pt x="740" y="1410" on="0"/>
        <pt x="768" y="1419" on="0"/>
        <pt x="784" y="1419" on="1"/>
        <pt x="807" y="1419" on="0"/>
        <pt x="840" y="1407" on="0"/>
        <pt x="867" y="1389" on="0"/>
        <pt x="893" y="1369" on="0"/>
        <pt x="911" y="1362" on="1"/>
        <pt x="930" y="1353" on="0"/>
        <pt x="970" y="1350" on="0"/>
        <pt x="987" y="1343" on="1"/>
        <pt x="1029" y="1326" on="0"/>
        <pt x="1096" y="1289" on="0"/>
        <pt x="1153" y="1245" on="0"/>
        <pt x="1203" y="1192" on="0"/>
        <pt x="1229" y="1159" on="1"/>
        <pt x="1247" y="1136" on="0"/>
        <pt x="1297" y="1097" on="0"/>
        <pt x="1311" y="1077" on="1"/>
        <pt x="1321" y="1062" on="0"/>
        <pt x="1345" y="1014" on="0"/>
        <pt x="1368" y="960" on="0"/>
        <pt x="1390" y="905" on="0"/>
        <pt x="1399" y="881" on="1"/>
        <pt x="1409" y="853" on="0"/>
        <pt x="1434" y="782" on="0"/>
        <pt x="1457" y="702" on="0"/>
        <pt x="1473" y="618" on="0"/>
      </contour>
      <contour>
        <pt x="901" y="707" on="1"/>
        <pt x="901" y="692" on="0"/>
        <pt x="900" y="656" on="0"/>
        <pt x="892" y="626" on="0"/>
        <pt x="874" y="606" on="0"/>
        <pt x="856" y="606" on="1"/>
        <pt x="842" y="606" on="0"/>
        <pt x="806" y="612" on="0"/>
        <pt x="767" y="619" on="0"/>
        <pt x="731" y="625" on="0"/>
        <pt x="717" y="625" on="1"/>
        <pt x="704" y="623" on="0"/>
        <pt x="682" y="617" on="0"/>
        <pt x="670" y="612" on="1"/>
        <pt x="670" y="607" on="0"/>
        <pt x="670" y="596" on="0"/>
        <pt x="672" y="590" on="1"/>
        <pt x="677" y="536" on="0"/>
        <pt x="696" y="439" on="0"/>
        <pt x="696" y="403" on="1"/>
        <pt x="696" y="376" on="0"/>
        <pt x="690" y="313" on="0"/>
        <pt x="690" y="281" on="1"/>
        <pt x="690" y="251" on="0"/>
        <pt x="696" y="223" on="1"/>
        <pt x="712" y="225" on="0"/>
        <pt x="742" y="225" on="0"/>
        <pt x="756" y="225" on="1"/>
        <pt x="788" y="225" on="1"/>
        <pt x="813" y="225" on="0"/>
        <pt x="860" y="229" on="0"/>
        <pt x="903" y="249" on="0"/>
        <pt x="943" y="290" on="0"/>
        <pt x="963" y="326" on="1"/>
        <pt x="967" y="333" on="0"/>
        <pt x="975" y="358" on="0"/>
        <pt x="984" y="390" on="0"/>
        <pt x="995" y="426" on="0"/>
        <pt x="1001" y="444" on="1"/>
        <pt x="1011" y="473" on="0"/>
        <pt x="1038" y="533" on="0"/>
        <pt x="1044" y="559" on="1"/>
        <pt x="1049" y="578" on="0"/>
        <pt x="1053" y="612" on="0"/>
        <pt x="1053" y="629" on="1"/>
        <pt x="1053" y="656" on="0"/>
        <pt x="1044" y="706" on="0"/>
        <pt x="1031" y="753" on="0"/>
        <pt x="1018" y="800" on="0"/>
        <pt x="1014" y="825" on="1"/>
        <pt x="1009" y="851" on="0"/>
        <pt x="1004" y="901" on="0"/>
        <pt x="997" y="947" on="0"/>
        <pt x="986" y="989" on="0"/>
        <pt x="975" y="1008" on="1"/>
        <pt x="969" y="1019" on="0"/>
        <pt x="947" y="1040" on="0"/>
        <pt x="938" y="1053" on="1"/>
        <pt x="927" y="1065" on="0"/>
        <pt x="915" y="1094" on="0"/>
        <pt x="905" y="1102" on="1"/>
        <pt x="897" y="1110" on="0"/>
        <pt x="856" y="1125" on="0"/>
        <pt x="836" y="1141" on="1"/>
        <pt x="818" y="1155" on="0"/>
        <pt x="795" y="1184" on="0"/>
        <pt x="773" y="1208" on="0"/>
        <pt x="746" y="1223" on="0"/>
        <pt x="725" y="1223" on="1"/>
        <pt x="710" y="1223" on="0"/>
        <pt x="679" y="1217" on="0"/>
        <pt x="654" y="1209" on="0"/>
        <pt x="639" y="1200" on="0"/>
        <pt x="639" y="1196" on="1"/>
        <pt x="639" y="1188" on="0"/>
        <pt x="641" y="1160" on="0"/>
        <pt x="644" y="1132" on="0"/>
        <pt x="647" y="1107" on="0"/>
        <pt x="647" y="1102" on="1"/>
        <pt x="644" y="1046" on="0"/>
        <pt x="635" y="918" on="0"/>
        <pt x="635" y="858" on="1"/>
        <pt x="659" y="858" on="1"/>
        <pt x="684" y="858" on="0"/>
        <pt x="721" y="877" on="0"/>
        <pt x="741" y="877" on="1"/>
        <pt x="799" y="877" on="0"/>
        <pt x="861" y="859" on="0"/>
        <pt x="891" y="818" on="0"/>
        <pt x="899" y="753" on="0"/>
      </contour>
    </TTGlyph>
    <TTGlyph name="Euro" xMin="41" yMin="61" xMax="1430" yMax="1339">
      <contour>
        <pt x="811" y="874" on="1"/>
        <pt x="813" y="871" on="0"/>
        <pt x="815" y="850" on="0"/>
        <pt x="815" y="836" on="1"/>
        <pt x="815" y="789" on="0"/>
        <pt x="791" y="745" on="0"/>
        <pt x="750" y="745" on="1"/>
        <pt x="727" y="745" on="0"/>
        <pt x="672" y="756" on="0"/>
        <pt x="649" y="756" on="1"/>
        <pt x="624" y="756" on="0"/>
        <pt x="577" y="743" on="0"/>
        <pt x="561" y="743" on="1"/>
        <pt x="543" y="743" on="1"/>
        <pt x="546" y="703" on="0"/>
        <pt x="555" y="657" on="1"/>
        <pt x="580" y="655" on="0"/>
        <pt x="629" y="648" on="0"/>
        <pt x="668" y="638" on="0"/>
        <pt x="694" y="626" on="0"/>
        <pt x="698" y="618" on="1"/>
        <pt x="701" y="610" on="0"/>
        <pt x="705" y="595" on="0"/>
        <pt x="705" y="586" on="1"/>
        <pt x="705" y="557" on="0"/>
        <pt x="693" y="523" on="0"/>
        <pt x="671" y="505" on="0"/>
        <pt x="636" y="497" on="0"/>
        <pt x="614" y="496" on="1"/>
        <pt x="637" y="451" on="0"/>
        <pt x="686" y="386" on="0"/>
        <pt x="709" y="377" on="1"/>
        <pt x="717" y="374" on="0"/>
        <pt x="755" y="376" on="0"/>
        <pt x="772" y="371" on="1"/>
        <pt x="786" y="366" on="0"/>
        <pt x="806" y="353" on="0"/>
        <pt x="817" y="350" on="1"/>
        <pt x="840" y="345" on="0"/>
        <pt x="896" y="347" on="0"/>
        <pt x="924" y="344" on="1"/>
        <pt x="948" y="341" on="0"/>
        <pt x="999" y="336" on="0"/>
        <pt x="1024" y="336" on="1"/>
        <pt x="1064" y="336" on="0"/>
        <pt x="1131" y="357" on="0"/>
        <pt x="1151" y="389" on="1"/>
        <pt x="1154" y="394" on="0"/>
        <pt x="1157" y="414" on="0"/>
        <pt x="1163" y="420" on="1"/>
        <pt x="1171" y="428" on="0"/>
        <pt x="1192" y="440" on="0"/>
        <pt x="1212" y="451" on="0"/>
        <pt x="1229" y="460" on="0"/>
        <pt x="1233" y="465" on="1"/>
        <pt x="1240" y="474" on="0"/>
        <pt x="1250" y="498" on="0"/>
        <pt x="1261" y="520" on="0"/>
        <pt x="1277" y="535" on="0"/>
        <pt x="1290" y="535" on="1"/>
        <pt x="1316" y="535" on="0"/>
        <pt x="1348" y="510" on="0"/>
        <pt x="1366" y="476" on="0"/>
        <pt x="1375" y="438" on="0"/>
        <pt x="1378" y="426" on="1"/>
        <pt x="1379" y="421" on="0"/>
        <pt x="1392" y="391" on="0"/>
        <pt x="1406" y="356" on="0"/>
        <pt x="1417" y="325" on="0"/>
        <pt x="1417" y="319" on="1"/>
        <pt x="1415" y="305" on="0"/>
        <pt x="1399" y="285" on="0"/>
        <pt x="1376" y="264" on="0"/>
        <pt x="1348" y="238" on="0"/>
        <pt x="1335" y="219" on="1"/>
        <pt x="1325" y="204" on="0"/>
        <pt x="1312" y="175" on="0"/>
        <pt x="1302" y="148" on="0"/>
        <pt x="1291" y="125" on="0"/>
        <pt x="1284" y="117" on="1"/>
        <pt x="1272" y="103" on="0"/>
        <pt x="1234" y="82" on="0"/>
        <pt x="1186" y="68" on="0"/>
        <pt x="1130" y="61" on="0"/>
        <pt x="1102" y="61" on="1"/>
        <pt x="1082" y="61" on="0"/>
        <pt x="1050" y="68" on="0"/>
        <pt x="1021" y="76" on="0"/>
        <pt x="995" y="84" on="0"/>
        <pt x="981" y="86" on="1"/>
        <pt x="964" y="86" on="0"/>
        <pt x="935" y="74" on="0"/>
        <pt x="918" y="72" on="1"/>
        <pt x="907" y="72" on="0"/>
        <pt x="885" y="80" on="0"/>
        <pt x="872" y="80" on="1"/>
        <pt x="857" y="80" on="0"/>
        <pt x="813" y="76" on="0"/>
        <pt x="762" y="70" on="0"/>
        <pt x="709" y="66" on="0"/>
        <pt x="684" y="66" on="1"/>
        <pt x="655" y="66" on="0"/>
        <pt x="617" y="78" on="0"/>
        <pt x="584" y="100" on="0"/>
        <pt x="553" y="131" on="0"/>
        <pt x="532" y="150" on="1"/>
        <pt x="497" y="180" on="0"/>
        <pt x="426" y="246" on="0"/>
        <pt x="369" y="314" on="0"/>
        <pt x="332" y="378" on="0"/>
        <pt x="332" y="406" on="1"/>
        <pt x="332" y="451" on="1"/>
        <pt x="332" y="456" on="0"/>
        <pt x="332" y="462" on="0"/>
        <pt x="330" y="467" on="1"/>
        <pt x="324" y="467" on="1"/>
        <pt x="264" y="467" on="1"/>
        <pt x="238" y="467" on="0"/>
        <pt x="179" y="463" on="0"/>
        <pt x="150" y="463" on="1"/>
        <pt x="122" y="463" on="0"/>
        <pt x="81" y="474" on="0"/>
        <pt x="54" y="503" on="0"/>
        <pt x="41" y="553" on="0"/>
        <pt x="41" y="592" on="1"/>
        <pt x="41" y="602" on="0"/>
        <pt x="44" y="624" on="0"/>
        <pt x="51" y="643" on="0"/>
        <pt x="61" y="655" on="0"/>
        <pt x="68" y="655" on="1"/>
        <pt x="80" y="655" on="1"/>
        <pt x="92" y="655" on="0"/>
        <pt x="123" y="664" on="0"/>
        <pt x="141" y="664" on="1"/>
        <pt x="172" y="664" on="0"/>
        <pt x="245" y="652" on="0"/>
        <pt x="281" y="647" on="1"/>
        <pt x="273" y="669" on="0"/>
        <pt x="262" y="701" on="0"/>
        <pt x="262" y="721" on="1"/>
        <pt x="262" y="723" on="1"/>
        <pt x="260" y="723" on="1"/>
        <pt x="206" y="728" on="0"/>
        <pt x="152" y="796" on="0"/>
        <pt x="152" y="874" on="1"/>
        <pt x="152" y="888" on="0"/>
        <pt x="189" y="908" on="0"/>
        <pt x="248" y="921" on="0"/>
        <pt x="321" y="927" on="0"/>
        <pt x="356" y="928" on="1"/>
        <pt x="387" y="983" on="0"/>
        <pt x="443" y="1095" on="0"/>
        <pt x="481" y="1155" on="1"/>
        <pt x="491" y="1169" on="0"/>
        <pt x="517" y="1193" on="0"/>
        <pt x="526" y="1210" on="1"/>
        <pt x="536" y="1229" on="0"/>
        <pt x="546" y="1266" on="0"/>
        <pt x="557" y="1274" on="1"/>
        <pt x="572" y="1289" on="0"/>
        <pt x="622" y="1313" on="0"/>
        <pt x="676" y="1330" on="0"/>
        <pt x="729" y="1339" on="0"/>
        <pt x="748" y="1339" on="1"/>
        <pt x="780" y="1339" on="0"/>
        <pt x="860" y="1325" on="0"/>
        <pt x="905" y="1319" on="1"/>
        <pt x="936" y="1314" on="0"/>
        <pt x="1003" y="1313" on="0"/>
        <pt x="1032" y="1307" on="1"/>
        <pt x="1063" y="1299" on="0"/>
        <pt x="1126" y="1270" on="0"/>
        <pt x="1157" y="1262" on="1"/>
        <pt x="1198" y="1252" on="0"/>
        <pt x="1248" y="1235" on="0"/>
        <pt x="1280" y="1208" on="0"/>
        <pt x="1303" y="1164" on="0"/>
        <pt x="1317" y="1128" on="1"/>
        <pt x="1334" y="1085" on="0"/>
        <pt x="1371" y="997" on="0"/>
        <pt x="1393" y="952" on="1"/>
        <pt x="1404" y="928" on="0"/>
        <pt x="1430" y="868" on="0"/>
        <pt x="1430" y="836" on="1"/>
        <pt x="1430" y="825" on="0"/>
        <pt x="1426" y="806" on="0"/>
        <pt x="1423" y="795" on="1"/>
        <pt x="1418" y="780" on="0"/>
        <pt x="1391" y="755" on="0"/>
        <pt x="1355" y="736" on="0"/>
        <pt x="1312" y="725" on="0"/>
        <pt x="1290" y="725" on="1"/>
        <pt x="1269" y="725" on="0"/>
        <pt x="1200" y="737" on="0"/>
        <pt x="1165" y="737" on="1"/>
        <pt x="1127" y="737" on="0"/>
        <pt x="1048" y="731" on="0"/>
        <pt x="1016" y="731" on="1"/>
        <pt x="985" y="731" on="0"/>
        <pt x="951" y="747" on="0"/>
        <pt x="932" y="775" on="0"/>
        <pt x="920" y="815" on="0"/>
        <pt x="911" y="838" on="1"/>
        <pt x="899" y="870" on="0"/>
        <pt x="881" y="913" on="0"/>
        <pt x="867" y="952" on="0"/>
        <pt x="855" y="995" on="0"/>
        <pt x="848" y="1028" on="1"/>
        <pt x="845" y="1043" on="0"/>
        <pt x="840" y="1070" on="0"/>
        <pt x="833" y="1091" on="0"/>
        <pt x="821" y="1104" on="0"/>
        <pt x="811" y="1104" on="1"/>
        <pt x="802" y="1104" on="0"/>
        <pt x="778" y="1094" on="0"/>
        <pt x="760" y="1092" on="1"/>
        <pt x="709" y="1088" on="0"/>
        <pt x="655" y="1082" on="0"/>
        <pt x="623" y="1052" on="0"/>
        <pt x="600" y="986" on="0"/>
        <pt x="582" y="922" on="1"/>
        <pt x="597" y="925" on="0"/>
        <pt x="629" y="932" on="0"/>
        <pt x="643" y="932" on="1"/>
        <pt x="661" y="932" on="0"/>
        <pt x="714" y="924" on="0"/>
        <pt x="765" y="909" on="0"/>
        <pt x="805" y="887" on="0"/>
      </contour>
    </TTGlyph>
    <TTGlyph name="F" xMin="0" yMin="-104" xMax="1143" yMax="1386">
      <contour>
        <pt x="1141" y="1122" on="1"/>
        <pt x="1132" y="1094" on="0"/>
        <pt x="1063" y="1060" on="0"/>
        <pt x="968" y="1041" on="0"/>
        <pt x="859" y="1034" on="0"/>
        <pt x="761" y="1032" on="0"/>
        <pt x="686" y="1033" on="0"/>
        <pt x="672" y="1032" on="1"/>
        <pt x="653" y="1030" on="0"/>
        <pt x="619" y="1019" on="0"/>
        <pt x="583" y="1009" on="0"/>
        <pt x="542" y="1001" on="0"/>
        <pt x="516" y="1001" on="1"/>
        <pt x="502" y="1001" on="1"/>
        <pt x="514" y="940" on="0"/>
        <pt x="527" y="811" on="0"/>
        <pt x="532" y="741" on="1"/>
        <pt x="557" y="751" on="0"/>
        <pt x="602" y="758" on="0"/>
        <pt x="647" y="759" on="0"/>
        <pt x="695" y="759" on="0"/>
        <pt x="723" y="762" on="1"/>
        <pt x="754" y="765" on="0"/>
        <pt x="817" y="784" on="0"/>
        <pt x="846" y="784" on="1"/>
        <pt x="869" y="784" on="0"/>
        <pt x="906" y="757" on="0"/>
        <pt x="932" y="715" on="0"/>
        <pt x="946" y="665" on="0"/>
        <pt x="946" y="643" on="1"/>
        <pt x="946" y="626" on="0"/>
        <pt x="919" y="587" on="0"/>
        <pt x="874" y="554" on="0"/>
        <pt x="817" y="532" on="0"/>
        <pt x="786" y="532" on="1"/>
        <pt x="774" y="532" on="0"/>
        <pt x="754" y="542" on="0"/>
        <pt x="735" y="555" on="0"/>
        <pt x="716" y="565" on="0"/>
        <pt x="705" y="565" on="1"/>
        <pt x="699" y="565" on="0"/>
        <pt x="676" y="559" on="0"/>
        <pt x="654" y="553" on="0"/>
        <pt x="638" y="547" on="0"/>
        <pt x="637" y="547" on="1"/>
        <pt x="620" y="547" on="0"/>
        <pt x="588" y="555" on="0"/>
        <pt x="575" y="555" on="1"/>
        <pt x="563" y="555" on="0"/>
        <pt x="553" y="533" on="0"/>
        <pt x="553" y="516" on="1"/>
        <pt x="553" y="484" on="0"/>
        <pt x="565" y="443" on="0"/>
        <pt x="582" y="410" on="0"/>
        <pt x="601" y="378" on="0"/>
        <pt x="608" y="356" on="1"/>
        <pt x="614" y="335" on="0"/>
        <pt x="626" y="276" on="0"/>
        <pt x="635" y="212" on="0"/>
        <pt x="641" y="148" on="0"/>
        <pt x="641" y="121" on="1"/>
        <pt x="641" y="109" on="0"/>
        <pt x="637" y="62" on="0"/>
        <pt x="628" y="12" on="0"/>
        <pt x="613" y="-33" on="0"/>
        <pt x="602" y="-43" on="1"/>
        <pt x="597" y="-48" on="0"/>
        <pt x="571" y="-56" on="0"/>
        <pt x="540" y="-64" on="0"/>
        <pt x="510" y="-71" on="0"/>
        <pt x="502" y="-74" on="1"/>
        <pt x="480" y="-80" on="0"/>
        <pt x="426" y="-104" on="0"/>
        <pt x="406" y="-104" on="1"/>
        <pt x="390" y="-104" on="0"/>
        <pt x="342" y="-83" on="0"/>
        <pt x="317" y="-80" on="1"/>
        <pt x="269" y="-76" on="0"/>
        <pt x="215" y="-57" on="0"/>
        <pt x="186" y="-22" on="0"/>
        <pt x="173" y="35" on="0"/>
        <pt x="166" y="78" on="1"/>
        <pt x="164" y="90" on="0"/>
        <pt x="154" y="104" on="0"/>
        <pt x="154" y="111" on="1"/>
        <pt x="154" y="122" on="0"/>
        <pt x="161" y="148" on="0"/>
        <pt x="170" y="177" on="0"/>
        <pt x="178" y="208" on="0"/>
        <pt x="178" y="225" on="1"/>
        <pt x="178" y="242" on="0"/>
        <pt x="172" y="276" on="0"/>
        <pt x="172" y="293" on="1"/>
        <pt x="174" y="311" on="0"/>
        <pt x="186" y="348" on="0"/>
        <pt x="186" y="367" on="1"/>
        <pt x="186" y="410" on="0"/>
        <pt x="172" y="483" on="0"/>
        <pt x="172" y="502" on="1"/>
        <pt x="175" y="520" on="0"/>
        <pt x="190" y="548" on="0"/>
        <pt x="205" y="580" on="0"/>
        <pt x="217" y="621" on="0"/>
        <pt x="217" y="651" on="1"/>
        <pt x="217" y="686" on="0"/>
        <pt x="211" y="767" on="0"/>
        <pt x="211" y="805" on="1"/>
        <pt x="211" y="827" on="0"/>
        <pt x="215" y="878" on="0"/>
        <pt x="215" y="901" on="1"/>
        <pt x="215" y="934" on="0"/>
        <pt x="190" y="960" on="0"/>
        <pt x="156" y="968" on="0"/>
        <pt x="121" y="966" on="0"/>
        <pt x="111" y="971" on="1"/>
        <pt x="99" y="975" on="0"/>
        <pt x="71" y="996" on="0"/>
        <pt x="47" y="1023" on="0"/>
        <pt x="31" y="1053" on="0"/>
        <pt x="31" y="1067" on="1"/>
        <pt x="31" y="1076" on="0"/>
        <pt x="33" y="1099" on="0"/>
        <pt x="33" y="1108" on="1"/>
        <pt x="33" y="1124" on="0"/>
        <pt x="23" y="1157" on="0"/>
        <pt x="10" y="1195" on="0"/>
        <pt x="0" y="1240" on="0"/>
        <pt x="0" y="1268" on="1"/>
        <pt x="0" y="1303" on="0"/>
        <pt x="43" y="1335" on="0"/>
        <pt x="108" y="1350" on="0"/>
        <pt x="181" y="1360" on="0"/>
        <pt x="211" y="1374" on="1"/>
        <pt x="238" y="1386" on="0"/>
        <pt x="270" y="1386" on="1"/>
        <pt x="307" y="1386" on="0"/>
        <pt x="384" y="1361" on="0"/>
        <pt x="456" y="1330" on="0"/>
        <pt x="521" y="1301" on="0"/>
        <pt x="547" y="1298" on="1"/>
        <pt x="553" y="1296" on="0"/>
        <pt x="567" y="1296" on="0"/>
        <pt x="575" y="1296" on="1"/>
        <pt x="601" y="1296" on="0"/>
        <pt x="661" y="1305" on="0"/>
        <pt x="721" y="1316" on="0"/>
        <pt x="776" y="1325" on="0"/>
        <pt x="797" y="1325" on="1"/>
        <pt x="809" y="1325" on="0"/>
        <pt x="840" y="1323" on="0"/>
        <pt x="854" y="1323" on="1"/>
        <pt x="882" y="1323" on="0"/>
        <pt x="936" y="1332" on="0"/>
        <pt x="986" y="1343" on="0"/>
        <pt x="1030" y="1352" on="0"/>
        <pt x="1049" y="1352" on="1"/>
        <pt x="1078" y="1352" on="0"/>
        <pt x="1096" y="1337" on="1"/>
        <pt x="1102" y="1331" on="0"/>
        <pt x="1118" y="1285" on="0"/>
        <pt x="1133" y="1226" on="0"/>
        <pt x="1143" y="1164" on="0"/>
        <pt x="1143" y="1143" on="1"/>
        <pt x="1143" y="1137" on="0"/>
        <pt x="1143" y="1125" on="0"/>
      </contour>
    </TTGlyph>
    <TTGlyph name="G" xMin="35" yMin="-141" xMax="1270" yMax="1450">
      <contour>
        <pt x="1257" y="477" on="1"/>
        <pt x="1252" y="471" on="0"/>
        <pt x="1227" y="462" on="0"/>
        <pt x="1198" y="454" on="0"/>
        <pt x="1171" y="447" on="0"/>
        <pt x="1163" y="444" on="1"/>
        <pt x="1141" y="437" on="0"/>
        <pt x="1106" y="427" on="0"/>
        <pt x="1082" y="414" on="0"/>
        <pt x="1069" y="397" on="0"/>
        <pt x="1069" y="383" on="1"/>
        <pt x="1069" y="370" on="0"/>
        <pt x="1075" y="339" on="0"/>
        <pt x="1081" y="309" on="0"/>
        <pt x="1087" y="281" on="0"/>
        <pt x="1087" y="270" on="1"/>
        <pt x="1087" y="259" on="0"/>
        <pt x="1085" y="241" on="0"/>
        <pt x="1085" y="233" on="1"/>
        <pt x="1085" y="219" on="0"/>
        <pt x="1095" y="200" on="0"/>
        <pt x="1109" y="181" on="0"/>
        <pt x="1125" y="161" on="0"/>
        <pt x="1130" y="147" on="1"/>
        <pt x="1135" y="136" on="0"/>
        <pt x="1147" y="91" on="0"/>
        <pt x="1158" y="37" on="0"/>
        <pt x="1165" y="-19" on="0"/>
        <pt x="1165" y="-43" on="1"/>
        <pt x="1165" y="-78" on="0"/>
        <pt x="1138" y="-117" on="0"/>
        <pt x="1097" y="-136" on="0"/>
        <pt x="1050" y="-141" on="0"/>
        <pt x="1030" y="-141" on="1"/>
        <pt x="998" y="-141" on="0"/>
        <pt x="940" y="-106" on="0"/>
        <pt x="896" y="-46" on="0"/>
        <pt x="870" y="33" on="0"/>
        <pt x="870" y="78" on="1"/>
        <pt x="870" y="86" on="0"/>
        <pt x="870" y="106" on="0"/>
        <pt x="872" y="117" on="1"/>
        <pt x="851" y="115" on="0"/>
        <pt x="834" y="93" on="0"/>
        <pt x="826" y="62" on="0"/>
        <pt x="819" y="28" on="0"/>
        <pt x="809" y="14" on="1"/>
        <pt x="796" y="-4" on="0"/>
        <pt x="733" y="-43" on="0"/>
        <pt x="657" y="-74" on="0"/>
        <pt x="579" y="-94" on="0"/>
        <pt x="551" y="-94" on="1"/>
        <pt x="521" y="-94" on="0"/>
        <pt x="488" y="-72" on="0"/>
        <pt x="461" y="-47" on="0"/>
        <pt x="428" y="-25" on="0"/>
        <pt x="399" y="-25" on="1"/>
        <pt x="373" y="-25" on="1"/>
        <pt x="331" y="-25" on="0"/>
        <pt x="266" y="-3" on="0"/>
        <pt x="209" y="30" on="0"/>
        <pt x="156" y="68" on="0"/>
        <pt x="125" y="84" on="1"/>
        <pt x="108" y="93" on="0"/>
        <pt x="76" y="117" on="0"/>
        <pt x="50" y="154" on="0"/>
        <pt x="35" y="208" on="0"/>
        <pt x="35" y="248" on="1"/>
        <pt x="35" y="266" on="0"/>
        <pt x="41" y="295" on="0"/>
        <pt x="49" y="323" on="0"/>
        <pt x="55" y="351" on="0"/>
        <pt x="55" y="367" on="1"/>
        <pt x="55" y="378" on="0"/>
        <pt x="53" y="396" on="0"/>
        <pt x="53" y="406" on="1"/>
        <pt x="53" y="424" on="0"/>
        <pt x="66" y="455" on="0"/>
        <pt x="81" y="486" on="0"/>
        <pt x="94" y="518" on="0"/>
        <pt x="94" y="537" on="1"/>
        <pt x="94" y="558" on="0"/>
        <pt x="86" y="597" on="0"/>
        <pt x="76" y="638" on="0"/>
        <pt x="68" y="681" on="0"/>
        <pt x="68" y="705" on="1"/>
        <pt x="68" y="723" on="0"/>
        <pt x="74" y="783" on="0"/>
        <pt x="82" y="811" on="1"/>
        <pt x="84" y="820" on="0"/>
        <pt x="98" y="836" on="0"/>
        <pt x="100" y="844" on="1"/>
        <pt x="103" y="859" on="0"/>
        <pt x="106" y="886" on="0"/>
        <pt x="109" y="912" on="0"/>
        <pt x="113" y="937" on="0"/>
        <pt x="119" y="950" on="1"/>
        <pt x="131" y="981" on="0"/>
        <pt x="168" y="1036" on="0"/>
        <pt x="176" y="1065" on="1"/>
        <pt x="184" y="1091" on="0"/>
        <pt x="188" y="1147" on="0"/>
        <pt x="195" y="1171" on="1"/>
        <pt x="199" y="1186" on="0"/>
        <pt x="213" y="1231" on="0"/>
        <pt x="232" y="1279" on="0"/>
        <pt x="256" y="1323" on="0"/>
        <pt x="270" y="1337" on="1"/>
        <pt x="284" y="1351" on="0"/>
        <pt x="312" y="1365" on="0"/>
        <pt x="346" y="1373" on="0"/>
        <pt x="388" y="1379" on="0"/>
        <pt x="416" y="1386" on="1"/>
        <pt x="442" y="1392" on="0"/>
        <pt x="510" y="1414" on="0"/>
        <pt x="580" y="1435" on="0"/>
        <pt x="646" y="1450" on="0"/>
        <pt x="670" y="1450" on="1"/>
        <pt x="705" y="1450" on="0"/>
        <pt x="771" y="1419" on="0"/>
        <pt x="832" y="1380" on="0"/>
        <pt x="888" y="1343" on="0"/>
        <pt x="915" y="1337" on="1"/>
        <pt x="940" y="1331" on="0"/>
        <pt x="987" y="1328" on="0"/>
        <pt x="1030" y="1324" on="0"/>
        <pt x="1067" y="1313" on="0"/>
        <pt x="1081" y="1298" on="1"/>
        <pt x="1093" y="1286" on="0"/>
        <pt x="1107" y="1244" on="0"/>
        <pt x="1117" y="1193" on="0"/>
        <pt x="1125" y="1136" on="0"/>
        <pt x="1130" y="1110" on="1"/>
        <pt x="1140" y="1067" on="0"/>
        <pt x="1161" y="996" on="0"/>
        <pt x="1163" y="971" on="1"/>
        <pt x="1163" y="964" on="0"/>
        <pt x="1163" y="925" on="0"/>
        <pt x="1160" y="880" on="0"/>
        <pt x="1155" y="840" on="0"/>
        <pt x="1151" y="831" on="1"/>
        <pt x="1143" y="818" on="0"/>
        <pt x="1122" y="809" on="0"/>
        <pt x="1093" y="806" on="0"/>
        <pt x="1058" y="804" on="0"/>
        <pt x="1036" y="799" on="1"/>
        <pt x="1018" y="793" on="0"/>
        <pt x="990" y="777" on="0"/>
        <pt x="965" y="762" on="0"/>
        <pt x="942" y="749" on="0"/>
        <pt x="928" y="748" on="1"/>
        <pt x="922" y="748" on="0"/>
        <pt x="885" y="759" on="0"/>
        <pt x="866" y="762" on="1"/>
        <pt x="842" y="763" on="0"/>
        <pt x="796" y="766" on="0"/>
        <pt x="758" y="775" on="0"/>
        <pt x="735" y="795" on="0"/>
        <pt x="735" y="813" on="1"/>
        <pt x="735" y="827" on="0"/>
        <pt x="741" y="867" on="0"/>
        <pt x="741" y="893" on="1"/>
        <pt x="741" y="922" on="0"/>
        <pt x="721" y="969" on="0"/>
        <pt x="721" y="989" on="1"/>
        <pt x="721" y="1011" on="0"/>
        <pt x="721" y="1055" on="0"/>
        <pt x="707" y="1090" on="0"/>
        <pt x="672" y="1112" on="0"/>
        <pt x="637" y="1112" on="1"/>
        <pt x="618" y="1112" on="0"/>
        <pt x="572" y="1108" on="0"/>
        <pt x="530" y="1102" on="0"/>
        <pt x="497" y="1094" on="0"/>
        <pt x="492" y="1090" on="1"/>
        <pt x="481" y="1080" on="0"/>
        <pt x="475" y="1011" on="0"/>
        <pt x="467" y="963" on="1"/>
        <pt x="462" y="934" on="0"/>
        <pt x="441" y="876" on="0"/>
        <pt x="436" y="850" on="1"/>
        <pt x="431" y="830" on="0"/>
        <pt x="433" y="793" on="0"/>
        <pt x="428" y="774" on="1"/>
        <pt x="426" y="762" on="0"/>
        <pt x="418" y="729" on="0"/>
        <pt x="410" y="691" on="0"/>
        <pt x="403" y="652" on="0"/>
        <pt x="403" y="635" on="1"/>
        <pt x="403" y="618" on="0"/>
        <pt x="416" y="591" on="0"/>
        <pt x="416" y="571" on="1"/>
        <pt x="416" y="542" on="0"/>
        <pt x="397" y="476" on="0"/>
        <pt x="397" y="444" on="1"/>
        <pt x="397" y="430" on="0"/>
        <pt x="410" y="413" on="0"/>
        <pt x="410" y="397" on="1"/>
        <pt x="410" y="388" on="0"/>
        <pt x="406" y="370" on="0"/>
        <pt x="406" y="360" on="1"/>
        <pt x="406" y="343" on="0"/>
        <pt x="433" y="299" on="0"/>
        <pt x="468" y="258" on="0"/>
        <pt x="503" y="227" on="0"/>
        <pt x="512" y="223" on="1"/>
        <pt x="526" y="215" on="0"/>
        <pt x="569" y="200" on="0"/>
        <pt x="611" y="190" on="0"/>
        <pt x="644" y="184" on="0"/>
        <pt x="647" y="184" on="1"/>
        <pt x="689" y="184" on="0"/>
        <pt x="749" y="219" on="0"/>
        <pt x="792" y="274" on="0"/>
        <pt x="822" y="345" on="0"/>
        <pt x="834" y="381" on="1"/>
        <pt x="781" y="370" on="0"/>
        <pt x="703" y="342" on="0"/>
        <pt x="668" y="342" on="1"/>
        <pt x="644" y="342" on="0"/>
        <pt x="625" y="350" on="1"/>
        <pt x="612" y="354" on="0"/>
        <pt x="583" y="393" on="0"/>
        <pt x="559" y="444" on="0"/>
        <pt x="543" y="499" on="0"/>
        <pt x="543" y="520" on="1"/>
        <pt x="543" y="542" on="0"/>
        <pt x="564" y="588" on="0"/>
        <pt x="595" y="626" on="0"/>
        <pt x="630" y="649" on="0"/>
        <pt x="643" y="649" on="1"/>
        <pt x="674" y="649" on="0"/>
        <pt x="748" y="631" on="0"/>
        <pt x="795" y="631" on="1"/>
        <pt x="850" y="631" on="0"/>
        <pt x="965" y="641" on="0"/>
        <pt x="1018" y="641" on="1"/>
        <pt x="1032" y="641" on="0"/>
        <pt x="1058" y="635" on="0"/>
        <pt x="1073" y="635" on="1"/>
        <pt x="1102" y="637" on="0"/>
        <pt x="1160" y="653" on="0"/>
        <pt x="1188" y="653" on="1"/>
        <pt x="1226" y="653" on="0"/>
        <pt x="1270" y="586" on="0"/>
        <pt x="1270" y="526" on="1"/>
        <pt x="1270" y="511" on="0"/>
        <pt x="1264" y="485" on="0"/>
      </contour>
    </TTGlyph>
    <TTGlyph name="Gbreve" xMin="35" yMin="-141" xMax="1270" yMax="1891">
      <component glyphName="G" x="0" y="0" flags="0x204"/>
      <component glyphName="breve" x="373" y="283" flags="0x4"/>
    </TTGlyph>
    <TTGlyph name="Gcircumflex" xMin="35" yMin="-141" xMax="1270" yMax="1903">
      <component glyphName="G" x="0" y="0" flags="0x204"/>
      <component glyphName="circumflex" x="375" y="287" flags="0x4"/>
    </TTGlyph>
    <TTGlyph name="Gcommaaccent" xMin="35" yMin="-544" xMax="1270" yMax="1450">
      <component glyphName="G" x="0" y="0" flags="0x204"/>
      <component glyphName="uni0326" x="367" y="-38" flags="0x4"/>
    </TTGlyph>
    <TTGlyph name="Gdotaccent" xMin="35" yMin="-141" xMax="1270" yMax="1767">
      <component glyphName="G" x="0" y="0" flags="0x204"/>
      <component glyphName="dotaccent" x="514" y="272" flags="0x4"/>
    </TTGlyph>
    <TTGlyph name="H" xMin="78" yMin="-16" xMax="1196" yMax="1423">
      <contour>
        <pt x="1184" y="356" on="1"/>
        <pt x="1184" y="346" on="1"/>
        <pt x="1184" y="332" on="0"/>
        <pt x="1178" y="301" on="0"/>
        <pt x="1178" y="287" on="1"/>
        <pt x="1180" y="249" on="0"/>
        <pt x="1196" y="168" on="0"/>
        <pt x="1196" y="131" on="1"/>
        <pt x="1196" y="106" on="0"/>
        <pt x="1182" y="64" on="0"/>
        <pt x="1165" y="47" on="1"/>
        <pt x="1153" y="35" on="0"/>
        <pt x="1105" y="27" on="0"/>
        <pt x="1077" y="14" on="1"/>
        <pt x="1057" y="5" on="0"/>
        <pt x="1027" y="-16" on="0"/>
        <pt x="1012" y="-16" on="1"/>
        <pt x="993" y="-16" on="0"/>
        <pt x="938" y="1" on="0"/>
        <pt x="878" y="26" on="0"/>
        <pt x="820" y="54" on="0"/>
        <pt x="799" y="66" on="1"/>
        <pt x="772" y="80" on="0"/>
        <pt x="743" y="116" on="0"/>
        <pt x="731" y="167" on="0"/>
        <pt x="729" y="238" on="0"/>
        <pt x="729" y="289" on="1"/>
        <pt x="729" y="329" on="0"/>
        <pt x="731" y="431" on="0"/>
        <pt x="731" y="477" on="1"/>
        <pt x="731" y="512" on="0"/>
        <pt x="732" y="591" on="0"/>
        <pt x="717" y="623" on="1"/>
        <pt x="709" y="631" on="0"/>
        <pt x="663" y="635" on="0"/>
        <pt x="635" y="635" on="1"/>
        <pt x="612" y="635" on="0"/>
        <pt x="565" y="633" on="0"/>
        <pt x="545" y="633" on="1"/>
        <pt x="517" y="633" on="0"/>
        <pt x="476" y="653" on="0"/>
        <pt x="455" y="653" on="1"/>
        <pt x="445" y="653" on="0"/>
        <pt x="420" y="639" on="0"/>
        <pt x="420" y="616" on="1"/>
        <pt x="420" y="605" on="0"/>
        <pt x="424" y="578" on="0"/>
        <pt x="428" y="554" on="0"/>
        <pt x="432" y="535" on="0"/>
        <pt x="432" y="532" on="1"/>
        <pt x="432" y="495" on="0"/>
        <pt x="426" y="425" on="0"/>
        <pt x="426" y="399" on="1"/>
        <pt x="426" y="377" on="0"/>
        <pt x="434" y="319" on="0"/>
        <pt x="443" y="255" on="0"/>
        <pt x="451" y="187" on="0"/>
        <pt x="451" y="156" on="1"/>
        <pt x="451" y="104" on="0"/>
        <pt x="426" y="39" on="0"/>
        <pt x="371" y="2" on="0"/>
        <pt x="283" y="-12" on="0"/>
        <pt x="221" y="-12" on="1"/>
        <pt x="192" y="-12" on="0"/>
        <pt x="142" y="20" on="0"/>
        <pt x="104" y="61" on="0"/>
        <pt x="82" y="99" on="0"/>
        <pt x="82" y="106" on="1"/>
        <pt x="82" y="118" on="0"/>
        <pt x="88" y="143" on="0"/>
        <pt x="96" y="170" on="0"/>
        <pt x="102" y="197" on="0"/>
        <pt x="102" y="209" on="1"/>
        <pt x="102" y="226" on="0"/>
        <pt x="94" y="261" on="0"/>
        <pt x="85" y="295" on="0"/>
        <pt x="78" y="329" on="0"/>
        <pt x="78" y="344" on="1"/>
        <pt x="78" y="370" on="0"/>
        <pt x="90" y="429" on="0"/>
        <pt x="90" y="455" on="1"/>
        <pt x="90" y="493" on="0"/>
        <pt x="86" y="575" on="0"/>
        <pt x="86" y="618" on="1"/>
        <pt x="86" y="640" on="0"/>
        <pt x="87" y="682" on="0"/>
        <pt x="90" y="705" on="1"/>
        <pt x="92" y="716" on="0"/>
        <pt x="102" y="728" on="0"/>
        <pt x="102" y="739" on="1"/>
        <pt x="102" y="758" on="0"/>
        <pt x="90" y="792" on="0"/>
        <pt x="90" y="811" on="1"/>
        <pt x="90" y="845" on="0"/>
        <pt x="98" y="931" on="0"/>
        <pt x="109" y="1022" on="0"/>
        <pt x="117" y="1113" on="0"/>
        <pt x="117" y="1153" on="1"/>
        <pt x="117" y="1178" on="0"/>
        <pt x="104" y="1230" on="0"/>
        <pt x="104" y="1253" on="1"/>
        <pt x="104" y="1264" on="0"/>
        <pt x="120" y="1301" on="0"/>
        <pt x="151" y="1337" on="0"/>
        <pt x="196" y="1364" on="0"/>
        <pt x="225" y="1364" on="1"/>
        <pt x="257" y="1364" on="0"/>
        <pt x="302" y="1349" on="0"/>
        <pt x="331" y="1325" on="0"/>
        <pt x="344" y="1297" on="0"/>
        <pt x="344" y="1284" on="1"/>
        <pt x="344" y="1261" on="0"/>
        <pt x="338" y="1215" on="0"/>
        <pt x="338" y="1204" on="1"/>
        <pt x="340" y="1190" on="0"/>
        <pt x="353" y="1161" on="0"/>
        <pt x="356" y="1141" on="1"/>
        <pt x="362" y="1105" on="0"/>
        <pt x="367" y="1018" on="0"/>
        <pt x="370" y="943" on="0"/>
        <pt x="372" y="890" on="0"/>
        <pt x="375" y="887" on="1"/>
        <pt x="382" y="880" on="0"/>
        <pt x="430" y="873" on="0"/>
        <pt x="490" y="870" on="0"/>
        <pt x="554" y="869" on="0"/>
        <pt x="578" y="868" on="1"/>
        <pt x="595" y="866" on="0"/>
        <pt x="637" y="860" on="0"/>
        <pt x="657" y="860" on="1"/>
        <pt x="688" y="860" on="0"/>
        <pt x="707" y="892" on="0"/>
        <pt x="707" y="918" on="1"/>
        <pt x="707" y="944" on="0"/>
        <pt x="698" y="998" on="0"/>
        <pt x="698" y="1014" on="1"/>
        <pt x="698" y="1029" on="0"/>
        <pt x="711" y="1053" on="0"/>
        <pt x="711" y="1065" on="1"/>
        <pt x="711" y="1116" on="0"/>
        <pt x="698" y="1221" on="0"/>
        <pt x="698" y="1266" on="1"/>
        <pt x="698" y="1284" on="0"/>
        <pt x="709" y="1337" on="0"/>
        <pt x="737" y="1387" on="0"/>
        <pt x="785" y="1423" on="0"/>
        <pt x="823" y="1423" on="1"/>
        <pt x="849" y="1423" on="0"/>
        <pt x="918" y="1406" on="0"/>
        <pt x="982" y="1380" on="0"/>
        <pt x="1034" y="1347" on="0"/>
        <pt x="1044" y="1331" on="1"/>
        <pt x="1053" y="1317" on="0"/>
        <pt x="1060" y="1278" on="0"/>
        <pt x="1063" y="1233" on="0"/>
        <pt x="1063" y="1186" on="0"/>
        <pt x="1065" y="1165" on="1"/>
        <pt x="1067" y="1135" on="0"/>
        <pt x="1073" y="1061" on="0"/>
        <pt x="1082" y="981" on="0"/>
        <pt x="1096" y="899" on="0"/>
        <pt x="1108" y="862" on="1"/>
        <pt x="1112" y="847" on="0"/>
        <pt x="1126" y="822" on="0"/>
        <pt x="1139" y="799" on="0"/>
        <pt x="1148" y="778" on="0"/>
        <pt x="1147" y="768" on="1"/>
        <pt x="1147" y="754" on="0"/>
        <pt x="1141" y="728" on="0"/>
        <pt x="1141" y="711" on="1"/>
        <pt x="1141" y="672" on="0"/>
        <pt x="1159" y="582" on="0"/>
        <pt x="1159" y="537" on="1"/>
        <pt x="1159" y="521" on="0"/>
        <pt x="1157" y="491" on="0"/>
        <pt x="1157" y="477" on="1"/>
        <pt x="1157" y="462" on="0"/>
        <pt x="1165" y="431" on="0"/>
        <pt x="1175" y="401" on="0"/>
        <pt x="1183" y="371" on="0"/>
      </contour>
    </TTGlyph>
    <TTGlyph name="Hbar" xMin="7" yMin="-16" xMax="1221" yMax="1423">
      <contour>
        <pt x="1184" y="356" on="1"/>
        <pt x="1184" y="346" on="1"/>
        <pt x="1184" y="332" on="0"/>
        <pt x="1178" y="301" on="0"/>
        <pt x="1178" y="287" on="1"/>
        <pt x="1180" y="249" on="0"/>
        <pt x="1196" y="168" on="0"/>
        <pt x="1196" y="131" on="1"/>
        <pt x="1196" y="106" on="0"/>
        <pt x="1182" y="64" on="0"/>
        <pt x="1165" y="47" on="1"/>
        <pt x="1153" y="35" on="0"/>
        <pt x="1105" y="27" on="0"/>
        <pt x="1077" y="14" on="1"/>
        <pt x="1057" y="5" on="0"/>
        <pt x="1027" y="-16" on="0"/>
        <pt x="1012" y="-16" on="1"/>
        <pt x="993" y="-16" on="0"/>
        <pt x="938" y="1" on="0"/>
        <pt x="878" y="26" on="0"/>
        <pt x="820" y="54" on="0"/>
        <pt x="799" y="66" on="1"/>
        <pt x="772" y="80" on="0"/>
        <pt x="743" y="116" on="0"/>
        <pt x="731" y="167" on="0"/>
        <pt x="729" y="238" on="0"/>
        <pt x="729" y="289" on="1"/>
        <pt x="729" y="329" on="0"/>
        <pt x="731" y="431" on="0"/>
        <pt x="731" y="477" on="1"/>
        <pt x="731" y="512" on="0"/>
        <pt x="732" y="591" on="0"/>
        <pt x="717" y="623" on="1"/>
        <pt x="709" y="631" on="0"/>
        <pt x="663" y="635" on="0"/>
        <pt x="635" y="635" on="1"/>
        <pt x="612" y="635" on="0"/>
        <pt x="565" y="633" on="0"/>
        <pt x="545" y="633" on="1"/>
        <pt x="517" y="633" on="0"/>
        <pt x="476" y="653" on="0"/>
        <pt x="455" y="653" on="1"/>
        <pt x="445" y="653" on="0"/>
        <pt x="420" y="639" on="0"/>
        <pt x="420" y="616" on="1"/>
        <pt x="420" y="605" on="0"/>
        <pt x="424" y="578" on="0"/>
        <pt x="428" y="554" on="0"/>
        <pt x="432" y="535" on="0"/>
        <pt x="432" y="532" on="1"/>
        <pt x="432" y="495" on="0"/>
        <pt x="426" y="425" on="0"/>
        <pt x="426" y="399" on="1"/>
        <pt x="426" y="377" on="0"/>
        <pt x="434" y="319" on="0"/>
        <pt x="443" y="255" on="0"/>
        <pt x="451" y="187" on="0"/>
        <pt x="451" y="156" on="1"/>
        <pt x="451" y="104" on="0"/>
        <pt x="426" y="39" on="0"/>
        <pt x="371" y="2" on="0"/>
        <pt x="283" y="-12" on="0"/>
        <pt x="221" y="-12" on="1"/>
        <pt x="192" y="-12" on="0"/>
        <pt x="142" y="20" on="0"/>
        <pt x="104" y="61" on="0"/>
        <pt x="82" y="99" on="0"/>
        <pt x="82" y="106" on="1"/>
        <pt x="82" y="118" on="0"/>
        <pt x="88" y="143" on="0"/>
        <pt x="96" y="170" on="0"/>
        <pt x="102" y="197" on="0"/>
        <pt x="102" y="209" on="1"/>
        <pt x="102" y="226" on="0"/>
        <pt x="94" y="261" on="0"/>
        <pt x="85" y="295" on="0"/>
        <pt x="78" y="329" on="0"/>
        <pt x="78" y="344" on="1"/>
        <pt x="78" y="370" on="0"/>
        <pt x="90" y="429" on="0"/>
        <pt x="90" y="455" on="1"/>
        <pt x="90" y="493" on="0"/>
        <pt x="86" y="575" on="0"/>
        <pt x="86" y="618" on="1"/>
        <pt x="86" y="640" on="0"/>
        <pt x="87" y="682" on="0"/>
        <pt x="90" y="705" on="1"/>
        <pt x="92" y="716" on="0"/>
        <pt x="102" y="728" on="0"/>
        <pt x="102" y="739" on="1"/>
        <pt x="102" y="758" on="0"/>
        <pt x="90" y="792" on="0"/>
        <pt x="90" y="811" on="1"/>
        <pt x="90" y="846" on="0"/>
        <pt x="98" y="935" on="0"/>
        <pt x="104" y="983" on="1"/>
        <pt x="69" y="985" on="0"/>
        <pt x="26" y="998" on="0"/>
        <pt x="7" y="1021" on="0"/>
        <pt x="8" y="1057" on="0"/>
        <pt x="16" y="1083" on="1"/>
        <pt x="19" y="1090" on="0"/>
        <pt x="20" y="1109" on="0"/>
        <pt x="23" y="1127" on="0"/>
        <pt x="32" y="1142" on="0"/>
        <pt x="41" y="1147" on="1"/>
        <pt x="52" y="1152" on="0"/>
        <pt x="92" y="1157" on="0"/>
        <pt x="117" y="1159" on="1"/>
        <pt x="115" y="1182" on="0"/>
        <pt x="104" y="1232" on="0"/>
        <pt x="104" y="1253" on="1"/>
        <pt x="104" y="1264" on="0"/>
        <pt x="120" y="1301" on="0"/>
        <pt x="151" y="1337" on="0"/>
        <pt x="196" y="1364" on="0"/>
        <pt x="225" y="1364" on="1"/>
        <pt x="257" y="1364" on="0"/>
        <pt x="302" y="1349" on="0"/>
        <pt x="331" y="1325" on="0"/>
        <pt x="344" y="1297" on="0"/>
        <pt x="344" y="1284" on="1"/>
        <pt x="344" y="1261" on="0"/>
        <pt x="338" y="1215" on="0"/>
        <pt x="338" y="1204" on="1"/>
        <pt x="338" y="1193" on="0"/>
        <pt x="347" y="1172" on="0"/>
        <pt x="352" y="1159" on="1"/>
        <pt x="427" y="1157" on="0"/>
        <pt x="601" y="1153" on="0"/>
        <pt x="707" y="1151" on="1"/>
        <pt x="703" y="1182" on="0"/>
        <pt x="698" y="1240" on="0"/>
        <pt x="698" y="1266" on="1"/>
        <pt x="698" y="1284" on="0"/>
        <pt x="709" y="1337" on="0"/>
        <pt x="737" y="1387" on="0"/>
        <pt x="785" y="1423" on="0"/>
        <pt x="823" y="1423" on="1"/>
        <pt x="849" y="1423" on="0"/>
        <pt x="918" y="1406" on="0"/>
        <pt x="982" y="1380" on="0"/>
        <pt x="1034" y="1347" on="0"/>
        <pt x="1044" y="1331" on="1"/>
        <pt x="1053" y="1317" on="0"/>
        <pt x="1060" y="1278" on="0"/>
        <pt x="1063" y="1233" on="0"/>
        <pt x="1063" y="1186" on="0"/>
        <pt x="1065" y="1165" on="1"/>
        <pt x="1065" y="1159" on="1"/>
        <pt x="1121" y="1158" on="0"/>
        <pt x="1182" y="1149" on="0"/>
        <pt x="1211" y="1129" on="0"/>
        <pt x="1218" y="1099" on="0"/>
        <pt x="1221" y="1077" on="1"/>
        <pt x="1221" y="1070" on="0"/>
        <pt x="1220" y="1054" on="0"/>
        <pt x="1212" y="1040" on="0"/>
        <pt x="1194" y="1030" on="0"/>
        <pt x="1176" y="1030" on="1"/>
        <pt x="1156" y="1030" on="0"/>
        <pt x="1101" y="1034" on="0"/>
        <pt x="1075" y="1036" on="1"/>
        <pt x="1080" y="993" on="0"/>
        <pt x="1094" y="902" on="0"/>
        <pt x="1108" y="862" on="1"/>
        <pt x="1112" y="847" on="0"/>
        <pt x="1126" y="822" on="0"/>
        <pt x="1139" y="799" on="0"/>
        <pt x="1148" y="778" on="0"/>
        <pt x="1147" y="768" on="1"/>
        <pt x="1147" y="754" on="0"/>
        <pt x="1141" y="728" on="0"/>
        <pt x="1141" y="711" on="1"/>
        <pt x="1141" y="672" on="0"/>
        <pt x="1159" y="582" on="0"/>
        <pt x="1159" y="537" on="1"/>
        <pt x="1159" y="521" on="0"/>
        <pt x="1157" y="491" on="0"/>
        <pt x="1157" y="477" on="1"/>
        <pt x="1157" y="462" on="0"/>
        <pt x="1165" y="431" on="0"/>
        <pt x="1175" y="401" on="0"/>
        <pt x="1183" y="371" on="0"/>
      </contour>
      <contour>
        <pt x="367" y="993" on="1"/>
        <pt x="369" y="951" on="0"/>
        <pt x="372" y="890" on="0"/>
        <pt x="375" y="887" on="1"/>
        <pt x="382" y="880" on="0"/>
        <pt x="430" y="873" on="0"/>
        <pt x="490" y="870" on="0"/>
        <pt x="554" y="869" on="0"/>
        <pt x="578" y="868" on="1"/>
        <pt x="595" y="866" on="0"/>
        <pt x="637" y="860" on="0"/>
        <pt x="657" y="860" on="1"/>
        <pt x="688" y="860" on="0"/>
        <pt x="707" y="892" on="0"/>
        <pt x="707" y="918" on="1"/>
        <pt x="707" y="944" on="0"/>
        <pt x="698" y="998" on="0"/>
        <pt x="698" y="1014" on="1"/>
        <pt x="698" y="1020" on="1"/>
      </contour>
    </TTGlyph>
    <TTGlyph name="Hcircumflex" xMin="78" yMin="-16" xMax="1196" yMax="1864">
      <component glyphName="H" x="0" y="0" flags="0x204"/>
      <component glyphName="circumflex" x="315" y="248" flags="0x4"/>
    </TTGlyph>
    <TTGlyph name="I" xMin="61" yMin="-31" xMax="514" yMax="1325">
      <contour>
        <pt x="512" y="1014" on="1"/>
        <pt x="510" y="995" on="0"/>
        <pt x="500" y="963" on="0"/>
        <pt x="500" y="940" on="1"/>
        <pt x="500" y="911" on="0"/>
        <pt x="504" y="851" on="0"/>
        <pt x="504" y="825" on="1"/>
        <pt x="504" y="798" on="0"/>
        <pt x="493" y="764" on="0"/>
        <pt x="476" y="739" on="0"/>
        <pt x="456" y="717" on="0"/>
        <pt x="439" y="687" on="0"/>
        <pt x="428" y="641" on="0"/>
        <pt x="428" y="606" on="1"/>
        <pt x="428" y="535" on="0"/>
        <pt x="436" y="384" on="0"/>
        <pt x="436" y="299" on="1"/>
        <pt x="436" y="271" on="0"/>
        <pt x="431" y="221" on="0"/>
        <pt x="423" y="172" on="0"/>
        <pt x="412" y="123" on="0"/>
        <pt x="406" y="96" on="1"/>
        <pt x="399" y="65" on="0"/>
        <pt x="387" y="18" on="0"/>
        <pt x="360" y="-14" on="0"/>
        <pt x="309" y="-31" on="0"/>
        <pt x="264" y="-31" on="1"/>
        <pt x="231" y="-31" on="0"/>
        <pt x="201" y="-2" on="0"/>
        <pt x="186" y="45" on="0"/>
        <pt x="176" y="104" on="0"/>
        <pt x="164" y="135" on="1"/>
        <pt x="156" y="153" on="0"/>
        <pt x="138" y="174" on="0"/>
        <pt x="123" y="197" on="0"/>
        <pt x="113" y="232" on="0"/>
        <pt x="113" y="264" on="1"/>
        <pt x="113" y="290" on="0"/>
        <pt x="118" y="350" on="0"/>
        <pt x="124" y="413" on="0"/>
        <pt x="129" y="478" on="0"/>
        <pt x="129" y="510" on="1"/>
        <pt x="129" y="538" on="0"/>
        <pt x="121" y="580" on="0"/>
        <pt x="112" y="618" on="0"/>
        <pt x="104" y="659" on="0"/>
        <pt x="104" y="688" on="1"/>
        <pt x="104" y="716" on="0"/>
        <pt x="111" y="750" on="0"/>
        <pt x="120" y="776" on="0"/>
        <pt x="127" y="800" on="0"/>
        <pt x="127" y="817" on="1"/>
        <pt x="127" y="835" on="0"/>
        <pt x="106" y="868" on="0"/>
        <pt x="81" y="898" on="0"/>
        <pt x="61" y="927" on="0"/>
        <pt x="63" y="940" on="1"/>
        <pt x="63" y="948" on="0"/>
        <pt x="69" y="970" on="0"/>
        <pt x="76" y="995" on="0"/>
        <pt x="82" y="1020" on="0"/>
        <pt x="82" y="1032" on="1"/>
        <pt x="82" y="1073" on="0"/>
        <pt x="61" y="1149" on="0"/>
        <pt x="61" y="1184" on="1"/>
        <pt x="61" y="1189" on="0"/>
        <pt x="61" y="1199" on="0"/>
        <pt x="63" y="1204" on="1"/>
        <pt x="65" y="1216" on="0"/>
        <pt x="87" y="1255" on="0"/>
        <pt x="115" y="1292" on="0"/>
        <pt x="143" y="1319" on="0"/>
        <pt x="150" y="1319" on="1"/>
        <pt x="156" y="1319" on="0"/>
        <pt x="167" y="1317" on="0"/>
        <pt x="172" y="1317" on="1"/>
        <pt x="192" y="1317" on="0"/>
        <pt x="255" y="1325" on="0"/>
        <pt x="289" y="1325" on="1"/>
        <pt x="314" y="1325" on="0"/>
        <pt x="364" y="1322" on="0"/>
        <pt x="407" y="1316" on="0"/>
        <pt x="440" y="1306" on="0"/>
        <pt x="449" y="1298" on="1"/>
        <pt x="452" y="1296" on="0"/>
        <pt x="469" y="1262" on="0"/>
        <pt x="489" y="1221" on="0"/>
        <pt x="504" y="1184" on="0"/>
        <pt x="506" y="1178" on="1"/>
        <pt x="509" y="1161" on="0"/>
        <pt x="514" y="1099" on="0"/>
        <pt x="514" y="1065" on="1"/>
        <pt x="514" y="1053" on="0"/>
        <pt x="512" y="1026" on="0"/>
      </contour>
    </TTGlyph>
    <TTGlyph name="IJ" xMin="61" yMin="-86" xMax="1708" yMax="1354">
      <component glyphName="I" x="0" y="0" flags="0x4"/>
      <component glyphName="J" x="551" y="0" flags="0x4"/>
    </TTGlyph>
    <TTGlyph name="Iacute" xMin="61" yMin="-31" xMax="656" yMax="1751">
      <component glyphName="I" x="0" y="0" flags="0x204"/>
      <component glyphName="acute" x="240" y="137" flags="0x4"/>
    </TTGlyph>
    <TTGlyph name="Ibreve" xMin="31" yMin="-31" xMax="533" yMax="1784">
      <component glyphName="I" x="0" y="0" flags="0x204"/>
      <component glyphName="breve" x="29" y="176" flags="0x4"/>
    </TTGlyph>
    <TTGlyph name="Icircumflex" xMin="41" yMin="-31" xMax="537" yMax="1772">
      <component glyphName="I" x="0" y="0" flags="0x204"/>
      <component glyphName="circumflex" x="41" y="156" flags="0x4"/>
    </TTGlyph>
    <TTGlyph name="Idieresis" xMin="-17" yMin="-31" xMax="595" yMax="1657">
      <component glyphName="I" x="0" y="0" flags="0x204"/>
      <component glyphName="dieresis" x="-17" y="152" flags="0x4"/>
    </TTGlyph>
    <TTGlyph name="Idotaccent" xMin="61" yMin="-31" xMax="514" yMax="1657">
      <component glyphName="I" x="0" y="0" flags="0x204"/>
      <component glyphName="dotaccent" x="147" y="162" flags="0x4"/>
    </TTGlyph>
    <TTGlyph name="Igrave" xMin="-73" yMin="-31" xMax="514" yMax="1753">
      <component glyphName="I" x="0" y="0" flags="0x204"/>
      <component glyphName="grave" x="-73" y="139" flags="0x4"/>
    </TTGlyph>
    <TTGlyph name="Imacron" xMin="61" yMin="-31" xMax="514" yMax="1633">
      <component glyphName="I" x="0" y="0" flags="0x204"/>
      <component glyphName="macron" x="61" y="154" flags="0x4"/>
    </TTGlyph>
    <TTGlyph name="Iogonek" xMin="61" yMin="-387" xMax="561" yMax="1325">
      <contour>
        <pt x="559" y="-260" on="1"/>
        <pt x="555" y="-277" on="0"/>
        <pt x="523" y="-311" on="0"/>
        <pt x="483" y="-341" on="0"/>
        <pt x="445" y="-363" on="0"/>
        <pt x="436" y="-367" on="1"/>
        <pt x="428" y="-369" on="0"/>
        <pt x="402" y="-368" on="0"/>
        <pt x="391" y="-371" on="1"/>
        <pt x="377" y="-379" on="0"/>
        <pt x="365" y="-387" on="0"/>
        <pt x="352" y="-387" on="1"/>
        <pt x="340" y="-387" on="0"/>
        <pt x="315" y="-381" on="0"/>
        <pt x="303" y="-381" on="1"/>
        <pt x="281" y="-381" on="0"/>
        <pt x="263" y="-385" on="0"/>
        <pt x="254" y="-385" on="1"/>
        <pt x="243" y="-385" on="0"/>
        <pt x="197" y="-373" on="0"/>
        <pt x="146" y="-352" on="0"/>
        <pt x="100" y="-323" on="0"/>
        <pt x="88" y="-305" on="1"/>
        <pt x="82" y="-294" on="0"/>
        <pt x="78" y="-260" on="0"/>
        <pt x="78" y="-240" on="1"/>
        <pt x="78" y="-196" on="0"/>
        <pt x="90" y="-145" on="0"/>
        <pt x="110" y="-111" on="0"/>
        <pt x="138" y="-86" on="0"/>
        <pt x="154" y="-68" on="1"/>
        <pt x="166" y="-54" on="0"/>
        <pt x="188" y="-15" on="0"/>
        <pt x="201" y="2" on="1"/>
        <pt x="188" y="27" on="0"/>
        <pt x="178" y="98" on="0"/>
        <pt x="164" y="135" on="1"/>
        <pt x="156" y="153" on="0"/>
        <pt x="138" y="174" on="0"/>
        <pt x="123" y="197" on="0"/>
        <pt x="113" y="232" on="0"/>
        <pt x="113" y="264" on="1"/>
        <pt x="113" y="290" on="0"/>
        <pt x="118" y="350" on="0"/>
        <pt x="124" y="413" on="0"/>
        <pt x="129" y="478" on="0"/>
        <pt x="129" y="510" on="1"/>
        <pt x="129" y="538" on="0"/>
        <pt x="121" y="580" on="0"/>
        <pt x="112" y="618" on="0"/>
        <pt x="104" y="659" on="0"/>
        <pt x="104" y="688" on="1"/>
        <pt x="104" y="716" on="0"/>
        <pt x="111" y="750" on="0"/>
        <pt x="120" y="776" on="0"/>
        <pt x="127" y="800" on="0"/>
        <pt x="127" y="817" on="1"/>
        <pt x="127" y="835" on="0"/>
        <pt x="106" y="868" on="0"/>
        <pt x="81" y="898" on="0"/>
        <pt x="61" y="927" on="0"/>
        <pt x="63" y="940" on="1"/>
        <pt x="63" y="948" on="0"/>
        <pt x="69" y="970" on="0"/>
        <pt x="76" y="995" on="0"/>
        <pt x="82" y="1020" on="0"/>
        <pt x="82" y="1032" on="1"/>
        <pt x="82" y="1073" on="0"/>
        <pt x="61" y="1149" on="0"/>
        <pt x="61" y="1184" on="1"/>
        <pt x="61" y="1189" on="0"/>
        <pt x="61" y="1199" on="0"/>
        <pt x="63" y="1204" on="1"/>
        <pt x="65" y="1216" on="0"/>
        <pt x="87" y="1255" on="0"/>
        <pt x="115" y="1292" on="0"/>
        <pt x="143" y="1319" on="0"/>
        <pt x="150" y="1319" on="1"/>
        <pt x="156" y="1319" on="0"/>
        <pt x="167" y="1317" on="0"/>
        <pt x="172" y="1317" on="1"/>
        <pt x="192" y="1317" on="0"/>
        <pt x="255" y="1325" on="0"/>
        <pt x="289" y="1325" on="1"/>
        <pt x="314" y="1325" on="0"/>
        <pt x="364" y="1322" on="0"/>
        <pt x="407" y="1316" on="0"/>
        <pt x="440" y="1306" on="0"/>
        <pt x="449" y="1298" on="1"/>
        <pt x="452" y="1296" on="0"/>
        <pt x="469" y="1262" on="0"/>
        <pt x="489" y="1221" on="0"/>
        <pt x="504" y="1184" on="0"/>
        <pt x="506" y="1178" on="1"/>
        <pt x="509" y="1161" on="0"/>
        <pt x="514" y="1099" on="0"/>
        <pt x="514" y="1065" on="1"/>
        <pt x="514" y="1053" on="0"/>
        <pt x="512" y="1026" on="0"/>
        <pt x="512" y="1014" on="1"/>
        <pt x="510" y="995" on="0"/>
        <pt x="500" y="963" on="0"/>
        <pt x="500" y="940" on="1"/>
        <pt x="500" y="911" on="0"/>
        <pt x="504" y="851" on="0"/>
        <pt x="504" y="825" on="1"/>
        <pt x="504" y="798" on="0"/>
        <pt x="493" y="764" on="0"/>
        <pt x="476" y="739" on="0"/>
        <pt x="456" y="717" on="0"/>
        <pt x="439" y="687" on="0"/>
        <pt x="428" y="641" on="0"/>
        <pt x="428" y="606" on="1"/>
        <pt x="428" y="535" on="0"/>
        <pt x="436" y="384" on="0"/>
        <pt x="436" y="299" on="1"/>
        <pt x="436" y="271" on="0"/>
        <pt x="431" y="221" on="0"/>
        <pt x="423" y="172" on="0"/>
        <pt x="412" y="123" on="0"/>
        <pt x="406" y="96" on="1"/>
        <pt x="401" y="75" on="0"/>
        <pt x="393" y="40" on="0"/>
        <pt x="381" y="12" on="0"/>
        <pt x="363" y="-9" on="0"/>
        <pt x="348" y="-16" on="1"/>
        <pt x="340" y="-26" on="0"/>
        <pt x="314" y="-42" on="0"/>
        <pt x="305" y="-57" on="1"/>
        <pt x="305" y="-58" on="0"/>
        <pt x="294" y="-82" on="0"/>
        <pt x="281" y="-114" on="0"/>
        <pt x="270" y="-145" on="0"/>
        <pt x="270" y="-152" on="1"/>
        <pt x="270" y="-156" on="0"/>
        <pt x="279" y="-156" on="1"/>
        <pt x="316" y="-156" on="0"/>
        <pt x="371" y="-135" on="0"/>
        <pt x="418" y="-111" on="0"/>
        <pt x="462" y="-90" on="0"/>
        <pt x="489" y="-90" on="1"/>
        <pt x="506" y="-90" on="0"/>
        <pt x="533" y="-114" on="0"/>
        <pt x="551" y="-156" on="0"/>
        <pt x="561" y="-210" on="0"/>
        <pt x="561" y="-240" on="1"/>
        <pt x="561" y="-245" on="0"/>
        <pt x="559" y="-255" on="0"/>
      </contour>
    </TTGlyph>
    <TTGlyph name="Itilde" xMin="0" yMin="-31" xMax="559" yMax="1769">
      <component glyphName="I" x="0" y="0" flags="0x204"/>
      <component glyphName="tilde" x="0" y="180" flags="0x4"/>
    </TTGlyph>
    <TTGlyph name="J" xMin="-12" yMin="-86" xMax="1157" yMax="1354">
      <contour>
        <pt x="1141" y="881" on="1"/>
        <pt x="1138" y="822" on="0"/>
        <pt x="1138" y="704" on="0"/>
        <pt x="1135" y="647" on="1"/>
        <pt x="1133" y="624" on="0"/>
        <pt x="1122" y="576" on="0"/>
        <pt x="1122" y="553" on="1"/>
        <pt x="1122" y="534" on="0"/>
        <pt x="1128" y="501" on="0"/>
        <pt x="1128" y="485" on="1"/>
        <pt x="1128" y="467" on="0"/>
        <pt x="1115" y="434" on="0"/>
        <pt x="1110" y="414" on="1"/>
        <pt x="1106" y="393" on="0"/>
        <pt x="1104" y="347" on="0"/>
        <pt x="1102" y="301" on="0"/>
        <pt x="1100" y="259" on="0"/>
        <pt x="1096" y="242" on="1"/>
        <pt x="1093" y="230" on="0"/>
        <pt x="1072" y="201" on="0"/>
        <pt x="1046" y="171" on="0"/>
        <pt x="1021" y="142" on="0"/>
        <pt x="1014" y="129" on="1"/>
        <pt x="1008" y="118" on="0"/>
        <pt x="1000" y="92" on="0"/>
        <pt x="994" y="66" on="0"/>
        <pt x="988" y="42" on="0"/>
        <pt x="983" y="35" on="1"/>
        <pt x="975" y="23" on="0"/>
        <pt x="942" y="3" on="0"/>
        <pt x="903" y="-12" on="0"/>
        <pt x="862" y="-24" on="0"/>
        <pt x="844" y="-29" on="1"/>
        <pt x="807" y="-39" on="0"/>
        <pt x="745" y="-59" on="0"/>
        <pt x="685" y="-76" on="0"/>
        <pt x="624" y="-86" on="0"/>
        <pt x="588" y="-86" on="1"/>
        <pt x="549" y="-86" on="0"/>
        <pt x="469" y="-76" on="0"/>
        <pt x="395" y="-60" on="0"/>
        <pt x="330" y="-37" on="0"/>
        <pt x="305" y="-23" on="1"/>
        <pt x="294" y="-16" on="0"/>
        <pt x="264" y="-10" on="0"/>
        <pt x="256" y="-4" on="1"/>
        <pt x="245" y="4" on="0"/>
        <pt x="220" y="35" on="0"/>
        <pt x="205" y="47" on="1"/>
        <pt x="171" y="72" on="0"/>
        <pt x="107" y="123" on="0"/>
        <pt x="84" y="166" on="1"/>
        <pt x="76" y="181" on="0"/>
        <pt x="74" y="223" on="0"/>
        <pt x="66" y="242" on="1"/>
        <pt x="59" y="259" on="0"/>
        <pt x="38" y="288" on="0"/>
        <pt x="35" y="299" on="1"/>
        <pt x="31" y="314" on="0"/>
        <pt x="27" y="350" on="0"/>
        <pt x="23" y="389" on="0"/>
        <pt x="18" y="428" on="0"/>
        <pt x="14" y="444" on="1"/>
        <pt x="8" y="473" on="0"/>
        <pt x="-12" y="541" on="0"/>
        <pt x="-12" y="567" on="1"/>
        <pt x="-12" y="584" on="0"/>
        <pt x="2" y="603" on="0"/>
        <pt x="22" y="618" on="0"/>
        <pt x="45" y="634" on="0"/>
        <pt x="53" y="647" on="1"/>
        <pt x="62" y="661" on="0"/>
        <pt x="70" y="691" on="0"/>
        <pt x="79" y="721" on="0"/>
        <pt x="91" y="747" on="0"/>
        <pt x="104" y="756" on="1"/>
        <pt x="115" y="763" on="0"/>
        <pt x="141" y="769" on="0"/>
        <pt x="168" y="770" on="0"/>
        <pt x="197" y="771" on="0"/>
        <pt x="211" y="774" on="1"/>
        <pt x="233" y="779" on="0"/>
        <pt x="260" y="793" on="0"/>
        <pt x="274" y="793" on="1"/>
        <pt x="302" y="793" on="0"/>
        <pt x="346" y="771" on="0"/>
        <pt x="369" y="762" on="1"/>
        <pt x="397" y="750" on="0"/>
        <pt x="440" y="725" on="0"/>
        <pt x="475" y="693" on="0"/>
        <pt x="505" y="652" on="0"/>
        <pt x="520" y="623" on="1"/>
        <pt x="532" y="600" on="0"/>
        <pt x="542" y="571" on="0"/>
        <pt x="545" y="544" on="0"/>
        <pt x="545" y="508" on="0"/>
        <pt x="547" y="477" on="1"/>
        <pt x="547" y="452" on="0"/>
        <pt x="559" y="403" on="0"/>
        <pt x="559" y="377" on="1"/>
        <pt x="559" y="354" on="0"/>
        <pt x="557" y="305" on="0"/>
        <pt x="557" y="281" on="1"/>
        <pt x="557" y="245" on="0"/>
        <pt x="565" y="176" on="0"/>
        <pt x="589" y="122" on="0"/>
        <pt x="634" y="88" on="0"/>
        <pt x="672" y="88" on="1"/>
        <pt x="691" y="88" on="0"/>
        <pt x="719" y="114" on="0"/>
        <pt x="739" y="154" on="0"/>
        <pt x="754" y="203" on="0"/>
        <pt x="768" y="250" on="0"/>
        <pt x="783" y="289" on="0"/>
        <pt x="793" y="299" on="1"/>
        <pt x="799" y="305" on="0"/>
        <pt x="799" y="326" on="1"/>
        <pt x="799" y="357" on="0"/>
        <pt x="791" y="407" on="0"/>
        <pt x="791" y="432" on="1"/>
        <pt x="791" y="491" on="0"/>
        <pt x="807" y="612" on="0"/>
        <pt x="807" y="674" on="1"/>
        <pt x="807" y="705" on="0"/>
        <pt x="797" y="756" on="0"/>
        <pt x="786" y="805" on="0"/>
        <pt x="776" y="860" on="0"/>
        <pt x="776" y="895" on="1"/>
        <pt x="776" y="963" on="1"/>
        <pt x="776" y="981" on="0"/>
        <pt x="766" y="1038" on="0"/>
        <pt x="755" y="1108" on="0"/>
        <pt x="745" y="1188" on="0"/>
        <pt x="745" y="1227" on="1"/>
        <pt x="745" y="1266" on="0"/>
        <pt x="764" y="1310" on="0"/>
        <pt x="794" y="1332" on="0"/>
        <pt x="832" y="1340" on="0"/>
        <pt x="850" y="1343" on="1"/>
        <pt x="872" y="1347" on="0"/>
        <pt x="921" y="1354" on="0"/>
        <pt x="944" y="1354" on="1"/>
        <pt x="967" y="1354" on="0"/>
        <pt x="994" y="1343" on="0"/>
        <pt x="1015" y="1326" on="0"/>
        <pt x="1036" y="1304" on="0"/>
        <pt x="1053" y="1292" on="1"/>
        <pt x="1076" y="1277" on="0"/>
        <pt x="1119" y="1266" on="0"/>
        <pt x="1128" y="1255" on="1"/>
        <pt x="1144" y="1234" on="0"/>
        <pt x="1157" y="1160" on="0"/>
        <pt x="1157" y="1116" on="1"/>
        <pt x="1157" y="1054" on="0"/>
        <pt x="1144" y="927" on="0"/>
      </contour>
    </TTGlyph>
    <TTGlyph name="Jcircumflex" xMin="-12" yMin="-86" xMax="1184" yMax="1829">
      <component glyphName="J" x="0" y="0" flags="0x204"/>
      <component glyphName="circumflex" x="688" y="213" flags="0x4"/>
    </TTGlyph>
    <TTGlyph name="K" xMin="66" yMin="-68" xMax="1247" yMax="1432">
      <contour>
        <pt x="1245" y="1128" on="1"/>
        <pt x="1238" y="1091" on="0"/>
        <pt x="1175" y="1036" on="0"/>
        <pt x="1093" y="991" on="0"/>
        <pt x="1007" y="952" on="0"/>
        <pt x="979" y="932" on="1"/>
        <pt x="970" y="925" on="0"/>
        <pt x="941" y="906" on="0"/>
        <pt x="915" y="885" on="0"/>
        <pt x="896" y="863" on="0"/>
        <pt x="897" y="854" on="1"/>
        <pt x="897" y="839" on="0"/>
        <pt x="915" y="807" on="0"/>
        <pt x="939" y="776" on="0"/>
        <pt x="962" y="750" on="0"/>
        <pt x="967" y="741" on="1"/>
        <pt x="971" y="733" on="0"/>
        <pt x="976" y="712" on="0"/>
        <pt x="980" y="689" on="0"/>
        <pt x="986" y="665" on="0"/>
        <pt x="991" y="653" on="1"/>
        <pt x="1001" y="631" on="0"/>
        <pt x="1031" y="585" on="0"/>
        <pt x="1063" y="540" on="0"/>
        <pt x="1094" y="497" on="0"/>
        <pt x="1106" y="477" on="1"/>
        <pt x="1118" y="456" on="0"/>
        <pt x="1143" y="404" on="0"/>
        <pt x="1157" y="381" on="1"/>
        <pt x="1166" y="366" on="0"/>
        <pt x="1187" y="343" on="0"/>
        <pt x="1203" y="323" on="0"/>
        <pt x="1214" y="302" on="0"/>
        <pt x="1214" y="287" on="1"/>
        <pt x="1214" y="255" on="0"/>
        <pt x="1166" y="197" on="0"/>
        <pt x="1092" y="149" on="0"/>
        <pt x="1002" y="110" on="0"/>
        <pt x="961" y="96" on="1"/>
        <pt x="936" y="88" on="0"/>
        <pt x="899" y="72" on="0"/>
        <pt x="891" y="72" on="1"/>
        <pt x="849" y="74" on="0"/>
        <pt x="799" y="127" on="0"/>
        <pt x="765" y="202" on="0"/>
        <pt x="742" y="285" on="0"/>
        <pt x="727" y="317" on="1"/>
        <pt x="719" y="334" on="0"/>
        <pt x="687" y="374" on="0"/>
        <pt x="676" y="395" on="1"/>
        <pt x="667" y="410" on="0"/>
        <pt x="647" y="463" on="0"/>
        <pt x="626" y="523" on="0"/>
        <pt x="603" y="585" on="0"/>
        <pt x="580" y="634" on="0"/>
        <pt x="558" y="666" on="0"/>
        <pt x="547" y="666" on="1"/>
        <pt x="541" y="666" on="0"/>
        <pt x="524" y="656" on="0"/>
        <pt x="508" y="642" on="0"/>
        <pt x="495" y="630" on="0"/>
        <pt x="492" y="629" on="1"/>
        <pt x="480" y="620" on="0"/>
        <pt x="461" y="615" on="0"/>
        <pt x="448" y="607" on="0"/>
        <pt x="440" y="589" on="0"/>
        <pt x="440" y="569" on="1"/>
        <pt x="440" y="546" on="0"/>
        <pt x="461" y="488" on="0"/>
        <pt x="467" y="457" on="1"/>
        <pt x="473" y="423" on="0"/>
        <pt x="480" y="352" on="0"/>
        <pt x="485" y="326" on="1"/>
        <pt x="489" y="295" on="0"/>
        <pt x="501" y="228" on="0"/>
        <pt x="512" y="163" on="0"/>
        <pt x="520" y="102" on="0"/>
        <pt x="520" y="78" on="1"/>
        <pt x="520" y="73" on="0"/>
        <pt x="516" y="48" on="0"/>
        <pt x="507" y="17" on="0"/>
        <pt x="491" y="-14" on="0"/>
        <pt x="479" y="-23" on="1"/>
        <pt x="472" y="-28" on="0"/>
        <pt x="425" y="-44" on="0"/>
        <pt x="367" y="-58" on="0"/>
        <pt x="312" y="-68" on="0"/>
        <pt x="297" y="-68" on="1"/>
        <pt x="283" y="-68" on="0"/>
        <pt x="236" y="-63" on="0"/>
        <pt x="186" y="-55" on="0"/>
        <pt x="142" y="-43" on="0"/>
        <pt x="131" y="-35" on="1"/>
        <pt x="113" y="-23" on="0"/>
        <pt x="89" y="29" on="0"/>
        <pt x="73" y="87" on="0"/>
        <pt x="66" y="137" on="0"/>
        <pt x="66" y="147" on="1"/>
        <pt x="66" y="189" on="0"/>
        <pt x="77" y="278" on="0"/>
        <pt x="89" y="367" on="0"/>
        <pt x="100" y="454" on="0"/>
        <pt x="100" y="496" on="1"/>
        <pt x="100" y="517" on="0"/>
        <pt x="97" y="571" on="0"/>
        <pt x="94" y="596" on="1"/>
        <pt x="92" y="608" on="0"/>
        <pt x="82" y="635" on="0"/>
        <pt x="82" y="647" on="1"/>
        <pt x="82" y="671" on="0"/>
        <pt x="92" y="733" on="0"/>
        <pt x="103" y="800" on="0"/>
        <pt x="113" y="869" on="0"/>
        <pt x="113" y="901" on="1"/>
        <pt x="113" y="951" on="0"/>
        <pt x="100" y="1034" on="0"/>
        <pt x="100" y="1065" on="1"/>
        <pt x="100" y="1077" on="0"/>
        <pt x="113" y="1115" on="0"/>
        <pt x="113" y="1126" on="1"/>
        <pt x="113" y="1136" on="0"/>
        <pt x="111" y="1153" on="0"/>
        <pt x="111" y="1161" on="1"/>
        <pt x="111" y="1186" on="0"/>
        <pt x="133" y="1212" on="0"/>
        <pt x="158" y="1234" on="0"/>
        <pt x="180" y="1264" on="0"/>
        <pt x="180" y="1292" on="1"/>
        <pt x="180" y="1317" on="1"/>
        <pt x="180" y="1359" on="0"/>
        <pt x="206" y="1406" on="0"/>
        <pt x="255" y="1428" on="0"/>
        <pt x="327" y="1432" on="0"/>
        <pt x="373" y="1432" on="1"/>
        <pt x="391" y="1432" on="0"/>
        <pt x="413" y="1418" on="0"/>
        <pt x="427" y="1395" on="0"/>
        <pt x="432" y="1365" on="0"/>
        <pt x="432" y="1350" on="1"/>
        <pt x="432" y="1318" on="0"/>
        <pt x="418" y="1242" on="0"/>
        <pt x="416" y="1204" on="1"/>
        <pt x="413" y="1161" on="0"/>
        <pt x="405" y="1083" on="0"/>
        <pt x="398" y="1006" on="0"/>
        <pt x="393" y="929" on="0"/>
        <pt x="393" y="887" on="1"/>
        <pt x="393" y="868" on="0"/>
        <pt x="395" y="848" on="0"/>
        <pt x="401" y="848" on="1"/>
        <pt x="407" y="848" on="0"/>
        <pt x="432" y="862" on="0"/>
        <pt x="459" y="881" on="0"/>
        <pt x="481" y="898" on="0"/>
        <pt x="485" y="901" on="1"/>
        <pt x="539" y="940" on="0"/>
        <pt x="631" y="1001" on="0"/>
        <pt x="720" y="1055" on="0"/>
        <pt x="812" y="1106" on="0"/>
        <pt x="866" y="1135" on="1"/>
        <pt x="892" y="1149" on="0"/>
        <pt x="944" y="1186" on="0"/>
        <pt x="961" y="1192" on="1"/>
        <pt x="973" y="1195" on="0"/>
        <pt x="1010" y="1195" on="0"/>
        <pt x="1018" y="1198" on="1"/>
        <pt x="1029" y="1202" on="0"/>
        <pt x="1066" y="1227" on="0"/>
        <pt x="1109" y="1254" on="0"/>
        <pt x="1156" y="1276" on="0"/>
        <pt x="1176" y="1276" on="1"/>
        <pt x="1205" y="1276" on="0"/>
        <pt x="1247" y="1212" on="0"/>
        <pt x="1247" y="1161" on="1"/>
        <pt x="1247" y="1153" on="0"/>
        <pt x="1247" y="1136" on="0"/>
      </contour>
    </TTGlyph>
    <TTGlyph name="Kcommaaccent" xMin="66" yMin="-506" xMax="1247" yMax="1432">
      <component glyphName="K" x="0" y="0" flags="0x204"/>
      <component glyphName="uni0326" x="377" y="0" flags="0x4"/>
    </TTGlyph>
    <TTGlyph name="L" xMin="10" yMin="-74" xMax="979" yMax="1462">
      <contour>
        <pt x="975" y="236" on="1"/>
        <pt x="977" y="228" on="0"/>
        <pt x="979" y="211" on="0"/>
        <pt x="979" y="203" on="1"/>
        <pt x="979" y="139" on="0"/>
        <pt x="937" y="49" on="0"/>
        <pt x="862" y="-12" on="0"/>
        <pt x="761" y="-49" on="0"/>
        <pt x="643" y="-68" on="0"/>
        <pt x="514" y="-74" on="0"/>
        <pt x="449" y="-74" on="1"/>
        <pt x="411" y="-74" on="0"/>
        <pt x="340" y="-71" on="0"/>
        <pt x="309" y="-68" on="1"/>
        <pt x="271" y="-63" on="0"/>
        <pt x="212" y="-35" on="0"/>
        <pt x="184" y="-29" on="1"/>
        <pt x="161" y="-24" on="0"/>
        <pt x="101" y="-21" on="0"/>
        <pt x="47" y="-12" on="0"/>
        <pt x="10" y="10" on="0"/>
        <pt x="10" y="33" on="1"/>
        <pt x="10" y="42" on="0"/>
        <pt x="17" y="64" on="0"/>
        <pt x="25" y="78" on="1"/>
        <pt x="25" y="76" on="1"/>
        <pt x="26" y="76" on="0"/>
        <pt x="40" y="89" on="0"/>
        <pt x="54" y="105" on="0"/>
        <pt x="64" y="118" on="0"/>
        <pt x="63" y="117" on="1"/>
        <pt x="78" y="127" on="0"/>
        <pt x="105" y="128" on="0"/>
        <pt x="124" y="138" on="0"/>
        <pt x="135" y="168" on="0"/>
        <pt x="135" y="207" on="1"/>
        <pt x="135" y="241" on="0"/>
        <pt x="132" y="314" on="0"/>
        <pt x="129" y="377" on="0"/>
        <pt x="127" y="422" on="0"/>
        <pt x="127" y="428" on="1"/>
        <pt x="127" y="474" on="0"/>
        <pt x="129" y="575" on="0"/>
        <pt x="129" y="629" on="1"/>
        <pt x="129" y="678" on="0"/>
        <pt x="121" y="777" on="0"/>
        <pt x="112" y="873" on="0"/>
        <pt x="104" y="966" on="0"/>
        <pt x="104" y="1008" on="1"/>
        <pt x="104" y="1035" on="0"/>
        <pt x="113" y="1081" on="0"/>
        <pt x="124" y="1125" on="0"/>
        <pt x="133" y="1168" on="0"/>
        <pt x="133" y="1194" on="1"/>
        <pt x="133" y="1229" on="0"/>
        <pt x="123" y="1294" on="0"/>
        <pt x="123" y="1329" on="1"/>
        <pt x="123" y="1363" on="0"/>
        <pt x="128" y="1413" on="0"/>
        <pt x="146" y="1446" on="0"/>
        <pt x="178" y="1462" on="0"/>
        <pt x="205" y="1462" on="1"/>
        <pt x="239" y="1462" on="0"/>
        <pt x="289" y="1447" on="0"/>
        <pt x="331" y="1425" on="0"/>
        <pt x="369" y="1401" on="0"/>
        <pt x="393" y="1393" on="1"/>
        <pt x="424" y="1382" on="0"/>
        <pt x="466" y="1378" on="0"/>
        <pt x="497" y="1369" on="0"/>
        <pt x="519" y="1343" on="0"/>
        <pt x="530" y="1311" on="1"/>
        <pt x="533" y="1302" on="0"/>
        <pt x="540" y="1273" on="0"/>
        <pt x="546" y="1236" on="0"/>
        <pt x="549" y="1195" on="0"/>
        <pt x="549" y="1174" on="1"/>
        <pt x="549" y="1123" on="0"/>
        <pt x="539" y="1009" on="0"/>
        <pt x="539" y="958" on="1"/>
        <pt x="539" y="932" on="0"/>
        <pt x="545" y="881" on="0"/>
        <pt x="545" y="856" on="1"/>
        <pt x="542" y="784" on="0"/>
        <pt x="529" y="639" on="0"/>
        <pt x="516" y="491" on="0"/>
        <pt x="506" y="338" on="0"/>
        <pt x="506" y="258" on="1"/>
        <pt x="506" y="250" on="0"/>
        <pt x="504" y="235" on="0"/>
        <pt x="506" y="223" on="0"/>
        <pt x="516" y="215" on="0"/>
        <pt x="528" y="215" on="1"/>
        <pt x="574" y="215" on="0"/>
        <pt x="674" y="232" on="0"/>
        <pt x="765" y="253" on="0"/>
        <pt x="841" y="270" on="0"/>
        <pt x="862" y="270" on="1"/>
        <pt x="879" y="270" on="0"/>
        <pt x="916" y="267" on="0"/>
        <pt x="949" y="260" on="0"/>
        <pt x="972" y="246" on="0"/>
      </contour>
    </TTGlyph>
    <TTGlyph name="Lacute" xMin="10" yMin="-74" xMax="979" yMax="1882">
      <component glyphName="L" x="0" y="0" flags="0x204"/>
      <component glyphName="acute" x="291" y="268" flags="0x4"/>
    </TTGlyph>
    <TTGlyph name="Lcaron" xMin="10" yMin="-74" xMax="979" yMax="1702">
      <component glyphName="L" x="0" y="0" flags="0x204"/>
      <component glyphName="uni0315" x="471" y="47" flags="0x4"/>
    </TTGlyph>
    <TTGlyph name="Lcommaaccent" xMin="10" yMin="-544" xMax="979" yMax="1462">
      <component glyphName="L" x="0" y="0" flags="0x204"/>
      <component glyphName="uni0326" x="231" y="-38" flags="0x4"/>
    </TTGlyph>
    <TTGlyph name="Ldot" xMin="10" yMin="-74" xMax="1243" yMax="1462">
      <component glyphName="L" x="0" y="0" flags="0x4"/>
      <component glyphName="periodcentered" x="840" y="0" flags="0x4"/>
    </TTGlyph>
    <TTGlyph name="Lslash" xMin="-35" yMin="-74" xMax="1036" yMax="1462">
      <contour>
        <pt x="784" y="864" on="1"/>
        <pt x="787" y="853" on="0"/>
        <pt x="794" y="829" on="0"/>
        <pt x="793" y="804" on="0"/>
        <pt x="778" y="782" on="0"/>
        <pt x="760" y="774" on="1"/>
        <pt x="746" y="768" on="0"/>
        <pt x="708" y="756" on="0"/>
        <pt x="668" y="745" on="0"/>
        <pt x="630" y="733" on="0"/>
        <pt x="616" y="727" on="1"/>
        <pt x="592" y="715" on="1"/>
        <pt x="583" y="603" on="0"/>
        <pt x="563" y="379" on="0"/>
        <pt x="563" y="258" on="1"/>
        <pt x="563" y="250" on="0"/>
        <pt x="561" y="235" on="0"/>
        <pt x="563" y="223" on="0"/>
        <pt x="574" y="215" on="0"/>
        <pt x="586" y="215" on="1"/>
        <pt x="632" y="215" on="0"/>
        <pt x="732" y="232" on="0"/>
        <pt x="823" y="253" on="0"/>
        <pt x="898" y="270" on="0"/>
        <pt x="920" y="270" on="1"/>
        <pt x="937" y="270" on="0"/>
        <pt x="974" y="267" on="0"/>
        <pt x="1006" y="260" on="0"/>
        <pt x="1029" y="246" on="0"/>
        <pt x="1032" y="236" on="1"/>
        <pt x="1034" y="228" on="0"/>
        <pt x="1036" y="211" on="0"/>
        <pt x="1036" y="203" on="1"/>
        <pt x="1036" y="139" on="0"/>
        <pt x="994" y="49" on="0"/>
        <pt x="919" y="-12" on="0"/>
        <pt x="818" y="-49" on="0"/>
        <pt x="700" y="-68" on="0"/>
        <pt x="571" y="-74" on="0"/>
        <pt x="506" y="-74" on="1"/>
        <pt x="469" y="-74" on="0"/>
        <pt x="398" y="-71" on="0"/>
        <pt x="367" y="-68" on="1"/>
        <pt x="328" y="-63" on="0"/>
        <pt x="270" y="-35" on="0"/>
        <pt x="242" y="-29" on="1"/>
        <pt x="219" y="-24" on="0"/>
        <pt x="159" y="-21" on="0"/>
        <pt x="105" y="-12" on="0"/>
        <pt x="68" y="10" on="0"/>
        <pt x="68" y="33" on="1"/>
        <pt x="68" y="51" on="0"/>
        <pt x="82" y="78" on="1"/>
        <pt x="82" y="76" on="1"/>
        <pt x="83" y="76" on="0"/>
        <pt x="97" y="89" on="0"/>
        <pt x="111" y="105" on="0"/>
        <pt x="122" y="118" on="0"/>
        <pt x="121" y="117" on="1"/>
        <pt x="136" y="127" on="0"/>
        <pt x="163" y="128" on="0"/>
        <pt x="182" y="138" on="0"/>
        <pt x="193" y="168" on="0"/>
        <pt x="193" y="207" on="1"/>
        <pt x="193" y="241" on="0"/>
        <pt x="190" y="314" on="0"/>
        <pt x="187" y="377" on="0"/>
        <pt x="184" y="422" on="0"/>
        <pt x="184" y="428" on="1"/>
        <pt x="184" y="459" on="1"/>
        <pt x="175" y="453" on="0"/>
        <pt x="157" y="443" on="0"/>
        <pt x="147" y="440" on="1"/>
        <pt x="127" y="432" on="0"/>
        <pt x="74" y="422" on="0"/>
        <pt x="24" y="424" on="0"/>
        <pt x="-15" y="440" on="0"/>
        <pt x="-20" y="457" on="1"/>
        <pt x="-27" y="477" on="0"/>
        <pt x="-18" y="517" on="0"/>
        <pt x="-20" y="539" on="1"/>
        <pt x="-22" y="551" on="0"/>
        <pt x="-30" y="579" on="0"/>
        <pt x="-35" y="607" on="0"/>
        <pt x="-33" y="634" on="0"/>
        <pt x="-25" y="645" on="1"/>
        <pt x="-14" y="660" on="0"/>
        <pt x="51" y="696" on="0"/>
        <pt x="121" y="729" on="0"/>
        <pt x="176" y="752" on="0"/>
        <pt x="178" y="754" on="1"/>
        <pt x="180" y="754" on="1"/>
        <pt x="174" y="822" on="0"/>
        <pt x="162" y="949" on="0"/>
        <pt x="162" y="1008" on="1"/>
        <pt x="162" y="1035" on="0"/>
        <pt x="171" y="1081" on="0"/>
        <pt x="181" y="1125" on="0"/>
        <pt x="190" y="1168" on="0"/>
        <pt x="190" y="1194" on="1"/>
        <pt x="190" y="1229" on="0"/>
        <pt x="180" y="1294" on="0"/>
        <pt x="180" y="1329" on="1"/>
        <pt x="180" y="1363" on="0"/>
        <pt x="185" y="1413" on="0"/>
        <pt x="203" y="1446" on="0"/>
        <pt x="235" y="1462" on="0"/>
        <pt x="262" y="1462" on="1"/>
        <pt x="296" y="1462" on="0"/>
        <pt x="346" y="1447" on="0"/>
        <pt x="388" y="1425" on="0"/>
        <pt x="427" y="1401" on="0"/>
        <pt x="451" y="1393" on="1"/>
        <pt x="481" y="1382" on="0"/>
        <pt x="524" y="1378" on="0"/>
        <pt x="554" y="1369" on="0"/>
        <pt x="577" y="1343" on="0"/>
        <pt x="588" y="1311" on="1"/>
        <pt x="591" y="1302" on="0"/>
        <pt x="597" y="1273" on="0"/>
        <pt x="603" y="1236" on="0"/>
        <pt x="606" y="1195" on="0"/>
        <pt x="606" y="1174" on="1"/>
        <pt x="606" y="1123" on="0"/>
        <pt x="596" y="1009" on="0"/>
        <pt x="596" y="958" on="1"/>
        <pt x="596" y="924" on="1"/>
        <pt x="650" y="945" on="0"/>
        <pt x="712" y="955" on="0"/>
        <pt x="750" y="937" on="0"/>
        <pt x="771" y="895" on="0"/>
      </contour>
    </TTGlyph>
    <TTGlyph name="M" xMin="55" yMin="27" xMax="1450" yMax="1425">
      <contour>
        <pt x="1450" y="502" on="1"/>
        <pt x="1450" y="446" on="0"/>
        <pt x="1434" y="322" on="0"/>
        <pt x="1405" y="212" on="0"/>
        <pt x="1362" y="131" on="0"/>
        <pt x="1335" y="117" on="1"/>
        <pt x="1324" y="111" on="0"/>
        <pt x="1283" y="98" on="0"/>
        <pt x="1232" y="88" on="0"/>
        <pt x="1178" y="82" on="0"/>
        <pt x="1153" y="82" on="1"/>
        <pt x="1137" y="82" on="0"/>
        <pt x="1091" y="94" on="0"/>
        <pt x="1049" y="119" on="0"/>
        <pt x="1020" y="156" on="0"/>
        <pt x="1020" y="180" on="1"/>
        <pt x="1020" y="200" on="0"/>
        <pt x="1018" y="242" on="0"/>
        <pt x="1018" y="262" on="1"/>
        <pt x="1018" y="327" on="0"/>
        <pt x="1022" y="466" on="0"/>
        <pt x="1022" y="539" on="1"/>
        <pt x="1022" y="607" on="0"/>
        <pt x="1015" y="745" on="0"/>
        <pt x="1006" y="817" on="1"/>
        <pt x="983" y="802" on="0"/>
        <pt x="946" y="754" on="0"/>
        <pt x="913" y="699" on="0"/>
        <pt x="883" y="641" on="0"/>
        <pt x="866" y="616" on="1"/>
        <pt x="851" y="593" on="0"/>
        <pt x="809" y="561" on="0"/>
        <pt x="797" y="541" on="1"/>
        <pt x="785" y="521" on="0"/>
        <pt x="781" y="483" on="0"/>
        <pt x="765" y="454" on="0"/>
        <pt x="723" y="437" on="0"/>
        <pt x="674" y="438" on="1"/>
        <pt x="643" y="438" on="0"/>
        <pt x="608" y="460" on="0"/>
        <pt x="582" y="499" on="0"/>
        <pt x="558" y="549" on="0"/>
        <pt x="539" y="578" on="1"/>
        <pt x="528" y="593" on="0"/>
        <pt x="503" y="615" on="0"/>
        <pt x="494" y="629" on="1"/>
        <pt x="482" y="648" on="0"/>
        <pt x="456" y="696" on="0"/>
        <pt x="432" y="746" on="0"/>
        <pt x="409" y="796" on="0"/>
        <pt x="399" y="817" on="1"/>
        <pt x="401" y="779" on="0"/>
        <pt x="403" y="699" on="0"/>
        <pt x="403" y="655" on="1"/>
        <pt x="403" y="541" on="1"/>
        <pt x="403" y="504" on="0"/>
        <pt x="404" y="430" on="0"/>
        <pt x="406" y="395" on="1"/>
        <pt x="407" y="374" on="0"/>
        <pt x="415" y="330" on="0"/>
        <pt x="424" y="284" on="0"/>
        <pt x="432" y="238" on="0"/>
        <pt x="432" y="217" on="1"/>
        <pt x="432" y="196" on="0"/>
        <pt x="425" y="176" on="0"/>
        <pt x="411" y="161" on="0"/>
        <pt x="390" y="145" on="0"/>
        <pt x="375" y="129" on="1"/>
        <pt x="360" y="113" on="0"/>
        <pt x="335" y="77" on="0"/>
        <pt x="305" y="47" on="0"/>
        <pt x="269" y="27" on="0"/>
        <pt x="244" y="27" on="1"/>
        <pt x="212" y="27" on="0"/>
        <pt x="146" y="45" on="0"/>
        <pt x="90" y="78" on="0"/>
        <pt x="55" y="126" on="0"/>
        <pt x="55" y="156" on="1"/>
        <pt x="55" y="194" on="0"/>
        <pt x="74" y="304" on="0"/>
        <pt x="74" y="367" on="1"/>
        <pt x="74" y="391" on="0"/>
        <pt x="80" y="424" on="0"/>
        <pt x="89" y="453" on="0"/>
        <pt x="99" y="482" on="0"/>
        <pt x="102" y="502" on="1"/>
        <pt x="107" y="532" on="0"/>
        <pt x="112" y="602" on="0"/>
        <pt x="116" y="677" on="0"/>
        <pt x="119" y="755" on="0"/>
        <pt x="121" y="793" on="1"/>
        <pt x="122" y="811" on="0"/>
        <pt x="129" y="845" on="0"/>
        <pt x="136" y="881" on="0"/>
        <pt x="141" y="919" on="0"/>
        <pt x="141" y="942" on="1"/>
        <pt x="141" y="963" on="0"/>
        <pt x="134" y="999" on="0"/>
        <pt x="126" y="1037" on="0"/>
        <pt x="119" y="1080" on="0"/>
        <pt x="119" y="1108" on="1"/>
        <pt x="119" y="1126" on="0"/>
        <pt x="130" y="1169" on="0"/>
        <pt x="146" y="1216" on="0"/>
        <pt x="164" y="1266" on="0"/>
        <pt x="172" y="1292" on="1"/>
        <pt x="176" y="1305" on="0"/>
        <pt x="178" y="1331" on="0"/>
        <pt x="178" y="1354" on="0"/>
        <pt x="180" y="1370" on="0"/>
        <pt x="184" y="1374" on="1"/>
        <pt x="186" y="1378" on="0"/>
        <pt x="208" y="1388" on="0"/>
        <pt x="233" y="1399" on="0"/>
        <pt x="256" y="1406" on="0"/>
        <pt x="260" y="1407" on="1"/>
        <pt x="274" y="1407" on="0"/>
        <pt x="297" y="1390" on="0"/>
        <pt x="317" y="1386" on="1"/>
        <pt x="346" y="1380" on="0"/>
        <pt x="403" y="1376" on="0"/>
        <pt x="452" y="1370" on="0"/>
        <pt x="493" y="1358" on="0"/>
        <pt x="506" y="1343" on="1"/>
        <pt x="520" y="1328" on="0"/>
        <pt x="544" y="1281" on="0"/>
        <pt x="567" y="1229" on="0"/>
        <pt x="590" y="1175" on="0"/>
        <pt x="602" y="1153" on="1"/>
        <pt x="613" y="1133" on="0"/>
        <pt x="643" y="1100" on="0"/>
        <pt x="651" y="1083" on="1"/>
        <pt x="657" y="1072" on="0"/>
        <pt x="659" y="1043" on="0"/>
        <pt x="666" y="1032" on="1"/>
        <pt x="669" y="1025" on="0"/>
        <pt x="701" y="969" on="0"/>
        <pt x="740" y="906" on="0"/>
        <pt x="773" y="856" on="0"/>
        <pt x="778" y="856" on="1"/>
        <pt x="790" y="856" on="0"/>
        <pt x="811" y="890" on="0"/>
        <pt x="831" y="940" on="0"/>
        <pt x="853" y="997" on="0"/>
        <pt x="866" y="1020" on="1"/>
        <pt x="882" y="1046" on="0"/>
        <pt x="922" y="1093" on="0"/>
        <pt x="936" y="1122" on="1"/>
        <pt x="945" y="1141" on="0"/>
        <pt x="964" y="1201" on="0"/>
        <pt x="986" y="1268" on="0"/>
        <pt x="1013" y="1336" on="0"/>
        <pt x="1047" y="1391" on="0"/>
        <pt x="1089" y="1425" on="0"/>
        <pt x="1116" y="1425" on="1"/>
        <pt x="1129" y="1425" on="0"/>
        <pt x="1147" y="1418" on="0"/>
        <pt x="1166" y="1406" on="0"/>
        <pt x="1190" y="1392" on="0"/>
        <pt x="1208" y="1386" on="1"/>
        <pt x="1225" y="1381" on="0"/>
        <pt x="1260" y="1375" on="0"/>
        <pt x="1292" y="1369" on="0"/>
        <pt x="1319" y="1360" on="0"/>
        <pt x="1329" y="1350" on="1"/>
        <pt x="1339" y="1339" on="0"/>
        <pt x="1351" y="1305" on="0"/>
        <pt x="1358" y="1265" on="0"/>
        <pt x="1361" y="1219" on="0"/>
        <pt x="1362" y="1196" on="1"/>
        <pt x="1362" y="1162" on="0"/>
        <pt x="1358" y="1099" on="0"/>
        <pt x="1358" y="1071" on="1"/>
        <pt x="1358" y="1048" on="0"/>
        <pt x="1365" y="1014" on="0"/>
        <pt x="1374" y="979" on="0"/>
        <pt x="1382" y="935" on="0"/>
        <pt x="1382" y="903" on="1"/>
        <pt x="1382" y="872" on="0"/>
        <pt x="1378" y="805" on="0"/>
        <pt x="1378" y="774" on="1"/>
        <pt x="1378" y="736" on="0"/>
        <pt x="1389" y="691" on="0"/>
        <pt x="1405" y="661" on="0"/>
        <pt x="1423" y="635" on="0"/>
        <pt x="1430" y="616" on="1"/>
        <pt x="1433" y="608" on="0"/>
        <pt x="1439" y="578" on="0"/>
        <pt x="1445" y="545" on="0"/>
        <pt x="1449" y="513" on="0"/>
      </contour>
    </TTGlyph>
    <TTGlyph name="N" xMin="74" yMin="-16" xMax="1108" yMax="1524">
      <contour>
        <pt x="1106" y="514" on="1"/>
        <pt x="1106" y="506" on="0"/>
        <pt x="1108" y="491" on="0"/>
        <pt x="1108" y="483" on="1"/>
        <pt x="1108" y="440" on="0"/>
        <pt x="1094" y="347" on="0"/>
        <pt x="1094" y="299" on="1"/>
        <pt x="1094" y="282" on="0"/>
        <pt x="1096" y="243" on="0"/>
        <pt x="1096" y="223" on="1"/>
        <pt x="1096" y="198" on="0"/>
        <pt x="1089" y="148" on="0"/>
        <pt x="1069" y="107" on="0"/>
        <pt x="1030" y="82" on="0"/>
        <pt x="999" y="82" on="1"/>
        <pt x="981" y="82" on="0"/>
        <pt x="952" y="93" on="0"/>
        <pt x="923" y="106" on="0"/>
        <pt x="891" y="117" on="0"/>
        <pt x="870" y="117" on="1"/>
        <pt x="853" y="117" on="0"/>
        <pt x="805" y="113" on="0"/>
        <pt x="780" y="113" on="1"/>
        <pt x="746" y="113" on="0"/>
        <pt x="716" y="123" on="0"/>
        <pt x="704" y="143" on="0"/>
        <pt x="699" y="173" on="0"/>
        <pt x="690" y="193" on="1"/>
        <pt x="685" y="201" on="0"/>
        <pt x="665" y="217" on="0"/>
        <pt x="657" y="229" on="1"/>
        <pt x="649" y="242" on="0"/>
        <pt x="640" y="264" on="0"/>
        <pt x="631" y="283" on="0"/>
        <pt x="618" y="301" on="0"/>
        <pt x="606" y="311" on="1"/>
        <pt x="594" y="320" on="0"/>
        <pt x="579" y="332" on="0"/>
        <pt x="567" y="344" on="0"/>
        <pt x="554" y="360" on="0"/>
        <pt x="545" y="375" on="1"/>
        <pt x="529" y="396" on="0"/>
        <pt x="503" y="446" on="0"/>
        <pt x="487" y="471" on="1"/>
        <pt x="470" y="496" on="0"/>
        <pt x="424" y="533" on="0"/>
        <pt x="412" y="553" on="1"/>
        <pt x="402" y="568" on="0"/>
        <pt x="385" y="605" on="0"/>
        <pt x="370" y="646" on="0"/>
        <pt x="356" y="687" on="0"/>
        <pt x="348" y="705" on="1"/>
        <pt x="351" y="626" on="0"/>
        <pt x="349" y="466" on="0"/>
        <pt x="354" y="387" on="1"/>
        <pt x="356" y="353" on="0"/>
        <pt x="367" y="296" on="0"/>
        <pt x="367" y="262" on="1"/>
        <pt x="367" y="233" on="0"/>
        <pt x="347" y="156" on="0"/>
        <pt x="342" y="111" on="1"/>
        <pt x="338" y="77" on="0"/>
        <pt x="335" y="29" on="0"/>
        <pt x="319" y="-2" on="0"/>
        <pt x="283" y="-16" on="0"/>
        <pt x="246" y="-16" on="1"/>
        <pt x="235" y="-16" on="0"/>
        <pt x="207" y="-13" on="0"/>
        <pt x="180" y="-7" on="0"/>
        <pt x="157" y="-1" on="0"/>
        <pt x="152" y="2" on="1"/>
        <pt x="147" y="5" on="0"/>
        <pt x="135" y="36" on="0"/>
        <pt x="127" y="47" on="1"/>
        <pt x="118" y="57" on="0"/>
        <pt x="104" y="73" on="0"/>
        <pt x="94" y="93" on="0"/>
        <pt x="88" y="122" on="0"/>
        <pt x="88" y="145" on="1"/>
        <pt x="88" y="195" on="0"/>
        <pt x="100" y="302" on="0"/>
        <pt x="100" y="350" on="1"/>
        <pt x="100" y="370" on="0"/>
        <pt x="86" y="430" on="0"/>
        <pt x="86" y="461" on="1"/>
        <pt x="86" y="501" on="0"/>
        <pt x="88" y="578" on="0"/>
        <pt x="88" y="616" on="1"/>
        <pt x="88" y="685" on="0"/>
        <pt x="74" y="818" on="0"/>
        <pt x="74" y="883" on="1"/>
        <pt x="74" y="908" on="0"/>
        <pt x="85" y="950" on="0"/>
        <pt x="98" y="993" on="0"/>
        <pt x="109" y="1043" on="0"/>
        <pt x="109" y="1077" on="1"/>
        <pt x="109" y="1090" on="0"/>
        <pt x="106" y="1116" on="0"/>
        <pt x="106" y="1128" on="1"/>
        <pt x="106" y="1193" on="0"/>
        <pt x="181" y="1257" on="0"/>
        <pt x="244" y="1257" on="1"/>
        <pt x="272" y="1257" on="0"/>
        <pt x="342" y="1245" on="0"/>
        <pt x="407" y="1227" on="0"/>
        <pt x="458" y="1204" on="0"/>
        <pt x="467" y="1192" on="1"/>
        <pt x="476" y="1181" on="0"/>
        <pt x="483" y="1139" on="0"/>
        <pt x="494" y="1122" on="1"/>
        <pt x="506" y="1102" on="0"/>
        <pt x="543" y="1071" on="0"/>
        <pt x="551" y="1059" on="1"/>
        <pt x="556" y="1051" on="0"/>
        <pt x="560" y="1020" on="0"/>
        <pt x="569" y="1001" on="1"/>
        <pt x="576" y="987" on="0"/>
        <pt x="607" y="955" on="0"/>
        <pt x="621" y="938" on="1"/>
        <pt x="633" y="923" on="0"/>
        <pt x="653" y="887" on="0"/>
        <pt x="664" y="874" on="1"/>
        <pt x="691" y="844" on="0"/>
        <pt x="750" y="796" on="0"/>
        <pt x="772" y="768" on="1"/>
        <pt x="789" y="745" on="0"/>
        <pt x="815" y="695" on="0"/>
        <pt x="836" y="653" on="0"/>
        <pt x="852" y="625" on="0"/>
        <pt x="860" y="625" on="1"/>
        <pt x="868" y="625" on="0"/>
        <pt x="872" y="660" on="0"/>
        <pt x="872" y="686" on="1"/>
        <pt x="872" y="705" on="0"/>
        <pt x="870" y="749" on="0"/>
        <pt x="868" y="790" on="0"/>
        <pt x="866" y="823" on="0"/>
        <pt x="866" y="831" on="1"/>
        <pt x="866" y="847" on="0"/>
        <pt x="879" y="883" on="0"/>
        <pt x="879" y="909" on="1"/>
        <pt x="879" y="950" on="0"/>
        <pt x="870" y="1038" on="0"/>
        <pt x="870" y="1083" on="1"/>
        <pt x="870" y="1114" on="0"/>
        <pt x="881" y="1170" on="0"/>
        <pt x="894" y="1221" on="0"/>
        <pt x="905" y="1270" on="0"/>
        <pt x="905" y="1294" on="1"/>
        <pt x="905" y="1319" on="0"/>
        <pt x="898" y="1359" on="0"/>
        <pt x="890" y="1394" on="0"/>
        <pt x="883" y="1425" on="0"/>
        <pt x="883" y="1440" on="1"/>
        <pt x="883" y="1456" on="0"/>
        <pt x="895" y="1486" on="0"/>
        <pt x="916" y="1510" on="0"/>
        <pt x="947" y="1524" on="0"/>
        <pt x="967" y="1524" on="1"/>
        <pt x="971" y="1524" on="0"/>
        <pt x="1008" y="1519" on="0"/>
        <pt x="1049" y="1494" on="0"/>
        <pt x="1081" y="1442" on="0"/>
        <pt x="1081" y="1395" on="1"/>
        <pt x="1081" y="1375" on="0"/>
        <pt x="1075" y="1333" on="0"/>
        <pt x="1075" y="1307" on="1"/>
        <pt x="1075" y="1259" on="0"/>
        <pt x="1082" y="1166" on="0"/>
        <pt x="1091" y="1079" on="0"/>
        <pt x="1098" y="998" on="0"/>
        <pt x="1098" y="963" on="1"/>
        <pt x="1098" y="903" on="0"/>
        <pt x="1085" y="790" on="0"/>
        <pt x="1085" y="750" on="1"/>
        <pt x="1085" y="691" on="0"/>
        <pt x="1101" y="567" on="0"/>
      </contour>
    </TTGlyph>
    <TTGlyph name="Nacute" xMin="74" yMin="-16" xMax="1108" yMax="1739">
      <component glyphName="N" x="0" y="0" flags="0x204"/>
      <component glyphName="acute" x="434" y="125" flags="0x4"/>
    </TTGlyph>
    <TTGlyph name="Ncaron" xMin="74" yMin="-16" xMax="1108" yMax="1721">
      <component glyphName="N" x="0" y="0" flags="0x204"/>
      <component glyphName="caron" x="303" y="119" flags="0x4"/>
    </TTGlyph>
    <TTGlyph name="Ncommaaccent" xMin="74" yMin="-414" xMax="1108" yMax="1524">
      <component glyphName="N" x="0" y="0" flags="0x204"/>
      <component glyphName="uni0326" x="342" y="92" flags="0x4"/>
    </TTGlyph>
    <TTGlyph name="Ntilde" xMin="74" yMin="-16" xMax="1108" yMax="1708">
      <component glyphName="N" x="0" y="0" flags="0x204"/>
      <component glyphName="tilde" x="283" y="119" flags="0x4"/>
    </TTGlyph>
    <TTGlyph name="O" xMin="51" yMin="-49" xMax="1038" yMax="1235">
      <contour>
        <pt x="1038" y="262" on="1"/>
        <pt x="1036" y="254" on="0"/>
        <pt x="1023" y="234" on="0"/>
        <pt x="1004" y="208" on="0"/>
        <pt x="983" y="178" on="0"/>
        <pt x="975" y="160" on="1"/>
        <pt x="962" y="134" on="0"/>
        <pt x="944" y="96" on="0"/>
        <pt x="927" y="64" on="0"/>
        <pt x="905" y="36" on="0"/>
        <pt x="887" y="20" on="1"/>
        <pt x="870" y="4" on="0"/>
        <pt x="845" y="-8" on="0"/>
        <pt x="815" y="-13" on="0"/>
        <pt x="774" y="-16" on="0"/>
        <pt x="741" y="-23" on="1"/>
        <pt x="715" y="-29" on="0"/>
        <pt x="673" y="-47" on="0"/>
        <pt x="657" y="-49" on="1"/>
        <pt x="634" y="-49" on="0"/>
        <pt x="581" y="-33" on="0"/>
        <pt x="547" y="-33" on="1"/>
        <pt x="527" y="-33" on="0"/>
        <pt x="485" y="-35" on="0"/>
        <pt x="463" y="-35" on="1"/>
        <pt x="431" y="-35" on="0"/>
        <pt x="368" y="-31" on="0"/>
        <pt x="336" y="-23" on="1"/>
        <pt x="299" y="-15" on="0"/>
        <pt x="249" y="13" on="0"/>
        <pt x="221" y="27" on="1"/>
        <pt x="210" y="31" on="0"/>
        <pt x="184" y="39" on="0"/>
        <pt x="158" y="46" on="0"/>
        <pt x="137" y="54" on="0"/>
        <pt x="133" y="59" on="1"/>
        <pt x="125" y="68" on="0"/>
        <pt x="117" y="114" on="0"/>
        <pt x="108" y="172" on="0"/>
        <pt x="97" y="235" on="0"/>
        <pt x="88" y="262" on="1"/>
        <pt x="82" y="280" on="0"/>
        <pt x="69" y="305" on="0"/>
        <pt x="58" y="331" on="0"/>
        <pt x="51" y="363" on="0"/>
        <pt x="51" y="387" on="1"/>
        <pt x="51" y="438" on="0"/>
        <pt x="66" y="541" on="0"/>
        <pt x="66" y="582" on="1"/>
        <pt x="66" y="605" on="0"/>
        <pt x="61" y="652" on="0"/>
        <pt x="61" y="674" on="1"/>
        <pt x="61" y="714" on="0"/>
        <pt x="90" y="805" on="0"/>
        <pt x="102" y="856" on="1"/>
        <pt x="116" y="918" on="0"/>
        <pt x="134" y="1023" on="0"/>
        <pt x="145" y="1077" on="1"/>
        <pt x="152" y="1108" on="0"/>
        <pt x="188" y="1161" on="0"/>
        <pt x="240" y="1200" on="0"/>
        <pt x="308" y="1225" on="0"/>
        <pt x="348" y="1229" on="1"/>
        <pt x="350" y="1229" on="0"/>
        <pt x="353" y="1235" on="0"/>
        <pt x="358" y="1235" on="1"/>
        <pt x="426" y="1235" on="0"/>
        <pt x="555" y="1233" on="0"/>
        <pt x="667" y="1208" on="0"/>
        <pt x="759" y="1148" on="0"/>
        <pt x="791" y="1090" on="1"/>
        <pt x="799" y="1077" on="0"/>
        <pt x="803" y="1046" on="0"/>
        <pt x="811" y="1032" on="1"/>
        <pt x="823" y="1007" on="0"/>
        <pt x="861" y="970" on="0"/>
        <pt x="872" y="950" on="1"/>
        <pt x="883" y="927" on="0"/>
        <pt x="897" y="875" on="0"/>
        <pt x="911" y="850" on="1"/>
        <pt x="927" y="821" on="0"/>
        <pt x="963" y="767" on="0"/>
        <pt x="994" y="716" on="0"/>
        <pt x="1014" y="668" on="0"/>
        <pt x="1014" y="645" on="1"/>
        <pt x="1014" y="631" on="0"/>
        <pt x="1012" y="603" on="0"/>
        <pt x="1012" y="588" on="1"/>
        <pt x="1012" y="569" on="0"/>
        <pt x="1024" y="533" on="0"/>
        <pt x="1026" y="514" on="1"/>
        <pt x="1026" y="485" on="0"/>
        <pt x="1016" y="423" on="0"/>
        <pt x="1016" y="391" on="1"/>
        <pt x="1016" y="379" on="0"/>
        <pt x="1023" y="348" on="0"/>
        <pt x="1031" y="315" on="0"/>
        <pt x="1038" y="283" on="0"/>
        <pt x="1038" y="270" on="1"/>
      </contour>
      <contour>
        <pt x="684" y="457" on="1"/>
        <pt x="684" y="480" on="0"/>
        <pt x="670" y="509" on="0"/>
        <pt x="664" y="532" on="1"/>
        <pt x="660" y="551" on="0"/>
        <pt x="657" y="590" on="0"/>
        <pt x="651" y="610" on="1"/>
        <pt x="645" y="630" on="0"/>
        <pt x="627" y="672" on="0"/>
        <pt x="625" y="692" on="1"/>
        <pt x="625" y="702" on="0"/>
        <pt x="627" y="720" on="0"/>
        <pt x="627" y="731" on="1"/>
        <pt x="627" y="772" on="0"/>
        <pt x="602" y="858" on="0"/>
        <pt x="562" y="929" on="0"/>
        <pt x="511" y="975" on="0"/>
        <pt x="485" y="975" on="1"/>
        <pt x="476" y="975" on="0"/>
        <pt x="453" y="973" on="0"/>
        <pt x="432" y="971" on="0"/>
        <pt x="418" y="970" on="0"/>
        <pt x="418" y="971" on="1"/>
        <pt x="410" y="965" on="0"/>
        <pt x="406" y="944" on="0"/>
        <pt x="406" y="930" on="1"/>
        <pt x="406" y="919" on="0"/>
        <pt x="408" y="892" on="0"/>
        <pt x="408" y="877" on="1"/>
        <pt x="408" y="854" on="0"/>
        <pt x="393" y="774" on="0"/>
        <pt x="387" y="729" on="1"/>
        <pt x="384" y="711" on="0"/>
        <pt x="381" y="674" on="0"/>
        <pt x="378" y="638" on="0"/>
        <pt x="375" y="607" on="0"/>
        <pt x="373" y="596" on="1"/>
        <pt x="372" y="591" on="0"/>
        <pt x="361" y="575" on="0"/>
        <pt x="348" y="556" on="0"/>
        <pt x="337" y="538" on="0"/>
        <pt x="336" y="532" on="1"/>
        <pt x="330" y="508" on="0"/>
        <pt x="330" y="483" on="1"/>
        <pt x="330" y="426" on="0"/>
        <pt x="352" y="356" on="0"/>
        <pt x="402" y="317" on="0"/>
        <pt x="482" y="303" on="0"/>
        <pt x="541" y="303" on="1"/>
        <pt x="561" y="303" on="0"/>
        <pt x="593" y="306" on="0"/>
        <pt x="602" y="311" on="1"/>
        <pt x="611" y="316" on="0"/>
        <pt x="638" y="355" on="0"/>
        <pt x="664" y="402" on="0"/>
        <pt x="683" y="447" on="0"/>
      </contour>
    </TTGlyph>
</ttFont>
